<svg width="172" height="172" viewBox="0 0 172 172" fill="none" xmlns="http://www.w3.org/2000/svg">
<g filter="url(#filter0_dii_1488_782)">
<rect x="20.0547" y="14" width="131.461" height="131.461" rx="40" fill="#07072B"/>
<rect x="20.5547" y="14.5" width="130.461" height="130.461" rx="39.5" stroke="white" stroke-opacity="0.05"/>
</g>
<g filter="url(#filter1_dd_1488_782)">
<path d="M77.5462 79.9912L94.7414 70.0107L94.7272 74.9472L77.532 84.9277L77.5462 79.9912Z" fill="#4743FF"/>
<path d="M60.3669 60.1928L77.5621 50.2123L86.1943 45.3003L68.9991 55.2808L60.3669 60.1928Z" fill="#3532BF"/>
<path d="M77.532 84.9277L94.7272 74.9473L111.932 84.8709L94.7394 94.8514L77.532 84.9277Z" fill="#7572FF"/>
<path d="M94.7393 94.8513L111.932 84.8708L111.878 104.619L94.6824 114.599L94.7393 94.8513Z" fill="#4743FF"/>
<path d="M94.8084 70.1631L94.7535 89.9129L77.5461 79.9913L77.5319 84.9277L94.7393 94.8513L94.6823 114.599L68.8733 99.7147L60.2981 84.879L60.3672 60.1928L68.9994 55.2808L94.8084 70.1631Z" fill="#232280"/>
<path d="M94.8086 70.1631L112.004 60.1826L111.947 79.9324L94.7537 89.9128L94.8086 70.1631Z" fill="#4743FF"/>
<path d="M68.9995 55.2808L86.1947 45.3003L112.004 60.1827L94.8085 70.1631L68.9995 55.2808Z" fill="#7572FF"/>
</g>
<defs>
<filter id="filter0_dii_1488_782" x="0.0546875" y="0" width="171.461" height="171.461" filterUnits="userSpaceOnUse" color-interpolation-filters="sRGB">
<feFlood flood-opacity="0" result="BackgroundImageFix"/>
<feColorMatrix in="SourceAlpha" type="matrix" values="0 0 0 0 0 0 0 0 0 0 0 0 0 0 0 0 0 0 127 0" result="hardAlpha"/>
<feOffset dy="6"/>
<feGaussianBlur stdDeviation="10"/>
<feComposite in2="hardAlpha" operator="out"/>
<feColorMatrix type="matrix" values="0 0 0 0 0 0 0 0 0 0 0 0 0 0 0 0 0 0 0.4 0"/>
<feBlend mode="multiply" in2="BackgroundImageFix" result="effect1_dropShadow_1488_782"/>
<feBlend mode="normal" in="SourceGraphic" in2="effect1_dropShadow_1488_782" result="shape"/>
<feColorMatrix in="SourceAlpha" type="matrix" values="0 0 0 0 0 0 0 0 0 0 0 0 0 0 0 0 0 0 127 0" result="hardAlpha"/>
<feMorphology radius="4" operator="erode" in="SourceAlpha" result="effect2_innerShadow_1488_782"/>
<feOffset dy="4"/>
<feGaussianBlur stdDeviation="4"/>
<feComposite in2="hardAlpha" operator="arithmetic" k2="-1" k3="1"/>
<feColorMatrix type="matrix" values="0 0 0 0 1 0 0 0 0 1 0 0 0 0 1 0 0 0 0.1 0"/>
<feBlend mode="normal" in2="shape" result="effect2_innerShadow_1488_782"/>
<feColorMatrix in="SourceAlpha" type="matrix" values="0 0 0 0 0 0 0 0 0 0 0 0 0 0 0 0 0 0 127 0" result="hardAlpha"/>
<feOffset dy="-4"/>
<feGaussianBlur stdDeviation="4"/>
<feComposite in2="hardAlpha" operator="arithmetic" k2="-1" k3="1"/>
<feColorMatrix type="matrix" values="0 0 0 0 0 0 0 0 0 0 0 0 0 0 0 0 0 0 1 0"/>
<feBlend mode="multiply" in2="effect2_innerShadow_1488_782" result="effect3_innerShadow_1488_782"/>
</filter>
<filter id="filter1_dd_1488_782" x="48.2981" y="37.3003" width="75.7056" height="93.2988" filterUnits="userSpaceOnUse" color-interpolation-filters="sRGB">
<feFlood flood-opacity="0" result="BackgroundImageFix"/>
<feColorMatrix in="SourceAlpha" type="matrix" values="0 0 0 0 0 0 0 0 0 0 0 0 0 0 0 0 0 0 127 0" result="hardAlpha"/>
<feOffset dy="4"/>
<feGaussianBlur stdDeviation="6"/>
<feComposite in2="hardAlpha" operator="out"/>
<feColorMatrix type="matrix" values="0 0 0 0 0 0 0 0 0 0 0 0 0 0 0 0 0 0 0.2 0"/>
<feBlend mode="multiply" in2="BackgroundImageFix" result="effect1_dropShadow_1488_782"/>
<feColorMatrix in="SourceAlpha" type="matrix" values="0 0 0 0 0 0 0 0 0 0 0 0 0 0 0 0 0 0 127 0" result="hardAlpha"/>
<feOffset/>
<feGaussianBlur stdDeviation="2"/>
<feComposite in2="hardAlpha" operator="out"/>
<feColorMatrix type="matrix" values="0 0 0 0 0.458824 0 0 0 0 0.447059 0 0 0 0 1 0 0 0 1 0"/>
<feBlend mode="normal" in2="effect1_dropShadow_1488_782" result="effect2_dropShadow_1488_782"/>
<feBlend mode="normal" in="SourceGraphic" in2="effect2_dropShadow_1488_782" result="shape"/>
</filter>
</defs>
</svg>
