<svg width="56" height="56" viewBox="0 0 56 56" fill="none" xmlns="http://www.w3.org/2000/svg">
<path d="M27.9994 25.6667C29.8453 25.6667 31.6498 25.1193 33.1847 24.0937C34.7195 23.0682 35.9158 21.6105 36.6222 19.9051C37.3286 18.1996 37.5135 16.323 37.1533 14.5125C36.7932 12.702 35.9043 11.039 34.599 9.73367C33.2937 8.42838 31.6307 7.53947 29.8202 7.17934C28.0097 6.81921 26.1331 7.00404 24.4276 7.71046C22.7222 8.41688 21.2645 9.61316 20.239 11.148C19.2134 12.6829 18.666 14.4874 18.666 16.3333C18.666 18.8087 19.6493 21.1827 21.3997 22.933C23.15 24.6833 25.524 25.6667 27.9994 25.6667ZM41.9994 49C42.6182 49 43.2117 48.7542 43.6493 48.3166C44.0869 47.879 44.3327 47.2855 44.3327 46.6667C44.3327 42.3348 42.6119 38.1804 39.5488 35.1173C36.4857 32.0542 32.3312 30.3333 27.9994 30.3333C23.6675 30.3333 19.513 32.0542 16.4499 35.1173C13.3868 38.1804 11.666 42.3348 11.666 46.6667C11.666 47.2855 11.9118 47.879 12.3494 48.3166C12.787 48.7542 13.3805 49 13.9993 49H41.9994Z" fill="url(#paint0_linear_1866_11165)"/>
<defs>
<linearGradient id="paint0_linear_1866_11165" x1="27.9993" y1="7" x2="27.9993" y2="49" gradientUnits="userSpaceOnUse">
<stop stop-color="#009ED4" stop-opacity="0.65"/>
<stop offset="1" stop-color="#003648"/>
</linearGradient>
</defs>
</svg>
