<svg width="56" height="56" viewBox="0 0 56 56" fill="none" xmlns="http://www.w3.org/2000/svg">
<path d="M52 51H4C3.73478 51 3.48043 51.1054 3.29289 51.2929C3.10536 51.4804 3 51.7348 3 52C3 52.2652 3.10536 52.5196 3.29289 52.7071C3.48043 52.8946 3.73478 53 4 53H52C52.2652 53 52.5196 52.8946 52.7071 52.7071C52.8946 52.5196 53 52.2652 53 52C53 51.7348 52.8946 51.4804 52.7071 51.2929C52.5196 51.1054 52.2652 51 52 51ZM22 49H34C34.55 49 35 48.55 35 48V36C35 35.45 34.55 35 34 35H22C21.45 35 21 35.45 21 36V48C21 48.55 21.45 49 22 49ZM6 49H18C18.55 49 19 48.55 19 48V40C19 39.45 18.55 39 18 39H6C5.45 39 5 39.45 5 40V48C5 48.55 5.45 49 6 49Z" fill="url(#paint0_linear_1865_11146)"/>
<path d="M38 49H50C50.55 49 51 48.55 51 48V28C51 27.45 50.55 27 50 27H38C37.45 27 37 27.45 37 28V48C37 48.55 37.45 49 38 49Z" fill="url(#paint1_linear_1865_11146)"/>
<path d="M6.00094 37C6.15094 37 6.30394 36.966 6.44794 36.895L32.4309 23.903L31.1059 26.553C30.9874 26.7904 30.968 27.0651 31.052 27.3168C31.136 27.5685 31.3166 27.7764 31.5539 27.895C31.7913 28.0136 32.066 28.033 32.3177 27.9489C32.5694 27.8649 32.7774 27.6844 32.8959 27.447L35.8959 21.447C35.9718 21.2945 36.0076 21.1251 35.9997 20.9549C35.9919 20.7847 35.9407 20.6193 35.8511 20.4744C35.7615 20.3295 35.6364 20.2099 35.4876 20.1269C35.3388 20.0439 35.1713 20.0002 35.0009 20H28.0009C27.7357 20 27.4814 20.1054 27.2938 20.2929C27.1063 20.4804 27.0009 20.7348 27.0009 21C27.0009 21.2652 27.1063 21.5196 27.2938 21.7071C27.4814 21.8946 27.7357 22 28.0009 22H31.7639L5.55394 35.105C5.35215 35.2056 5.19027 35.3714 5.09456 35.5755C4.99886 35.7797 4.97495 36.0101 5.02671 36.2296C5.07847 36.449 5.20287 36.6445 5.37972 36.7844C5.55656 36.9242 5.77548 37.0002 6.00094 37Z" fill="url(#paint2_linear_1865_11146)"/>
<path d="M43.5799 3C38.3899 3 34.1699 7.22 34.1699 12.42C34.1699 17.61 38.3899 21.83 43.5799 21.83C48.7699 21.83 52.9999 17.61 52.9999 12.42C52.9999 7.22 48.7699 3 43.5799 3ZM43.5599 11.417C45.3549 11.417 46.7799 12.841 46.7799 14.591C46.7835 15.2663 46.5727 15.9253 46.1779 16.4732C45.7831 17.0211 45.2246 17.4296 44.5829 17.64V18.274C44.5829 18.5392 44.4776 18.7936 44.29 18.9811C44.1025 19.1686 43.8481 19.274 43.5829 19.274C43.3177 19.274 43.0634 19.1686 42.8758 18.9811C42.6883 18.7936 42.5829 18.5392 42.5829 18.274V17.633C41.3019 17.211 40.3869 16.034 40.3869 14.635C40.3869 14.3698 40.4923 14.1154 40.6798 13.9279C40.8674 13.7404 41.1217 13.635 41.3869 13.635C41.6521 13.635 41.9065 13.7404 42.094 13.9279C42.2816 14.1154 42.3869 14.3698 42.3869 14.635C42.3869 15.283 42.9129 15.81 43.5609 15.81C44.2529 15.81 44.7799 15.283 44.7799 14.635C44.7799 13.943 44.2529 13.417 43.6049 13.417C41.8099 13.417 40.3869 11.992 40.3869 10.242C40.3834 9.56695 40.5941 8.90817 40.9887 8.36046C41.3833 7.81275 41.9415 7.40434 42.5829 7.194V6.559C42.5829 6.29378 42.6883 6.03943 42.8758 5.85189C43.0634 5.66436 43.3177 5.559 43.5829 5.559C43.8481 5.559 44.1025 5.66436 44.29 5.85189C44.4776 6.03943 44.5829 6.29378 44.5829 6.559V7.2C45.8629 7.622 46.7799 8.798 46.7799 10.197C46.7799 10.4622 46.6746 10.7166 46.487 10.9041C46.2995 11.0916 46.0451 11.197 45.7799 11.197C45.5147 11.197 45.2604 11.0916 45.0728 10.9041C44.8853 10.7166 44.7799 10.4622 44.7799 10.197C44.7799 9.549 44.2529 9.022 43.6049 9.022C42.9129 9.022 42.3869 9.549 42.3869 10.197C42.3869 10.889 42.9129 11.416 43.5609 11.416L43.5599 11.417Z" fill="url(#paint3_linear_1865_11146)"/>
<defs>
<linearGradient id="paint0_linear_1865_11146" x1="28" y1="35" x2="28" y2="53" gradientUnits="userSpaceOnUse">
<stop stop-color="#FE9526"/>
<stop offset="1" stop-color="#F7931A" stop-opacity="0.57"/>
</linearGradient>
<linearGradient id="paint1_linear_1865_11146" x1="44" y1="27" x2="44" y2="49" gradientUnits="userSpaceOnUse">
<stop stop-color="#009ED4"/>
<stop offset="1" stop-color="#07698A"/>
</linearGradient>
<linearGradient id="paint2_linear_1865_11146" x1="20.5004" y1="20" x2="20.5004" y2="37" gradientUnits="userSpaceOnUse">
<stop stop-color="#FE9526"/>
<stop offset="1" stop-color="#F7931A" stop-opacity="0.57"/>
</linearGradient>
<linearGradient id="paint3_linear_1865_11146" x1="43.5849" y1="3" x2="43.5849" y2="21.83" gradientUnits="userSpaceOnUse">
<stop stop-color="#009ED4"/>
<stop offset="1" stop-color="#07698A"/>
</linearGradient>
</defs>
</svg>
