<svg width="56" height="56" viewBox="0 0 56 56" fill="none" xmlns="http://www.w3.org/2000/svg">
<path d="M38.4994 8.75C38.4994 8.75 39.2641 13.6605 39.3744 15.3125C39.5826 18.4468 36.8281 21 33.6869 21C30.5456 21 27.9994 18.4537 27.9994 15.3125C27.9994 18.4537 25.4531 21 22.3119 21C19.1706 21 16.4161 18.4468 16.6244 15.3125C16.7346 13.6605 17.4994 8.75 17.4994 8.75" stroke="url(#paint0_linear_1865_11153)" stroke-width="2" stroke-miterlimit="10" stroke-linecap="round" stroke-linejoin="round"/>
<path d="M28 8.75V15.75" stroke="url(#paint1_linear_1865_11153)" stroke-width="2" stroke-miterlimit="10" stroke-linecap="round" stroke-linejoin="round"/>
<path d="M39.3757 15.3125C39.3757 18.4537 41.922 21 45.0632 21C48.2045 21 51.1585 18.4275 50.7507 15.3125C50.5302 13.629 47.2507 8.75 47.2507 8.75H8.75072C8.75072 8.75 5.47122 13.629 5.25072 15.3125C4.84297 18.4275 7.79697 21 10.9382 21C14.0795 21 16.6257 18.4537 16.6257 15.3125" stroke="url(#paint2_linear_1865_11153)" stroke-width="2" stroke-miterlimit="10" stroke-linecap="round" stroke-linejoin="round"/>
<path d="M5.25 47.25H50.75" stroke="url(#paint3_linear_1865_11153)" stroke-width="2" stroke-miterlimit="10" stroke-linecap="round" stroke-linejoin="round"/>
<path d="M40.25 26.25H15.75V40.25H40.25V26.25Z" stroke="url(#paint4_linear_1865_11153)" stroke-width="2" stroke-miterlimit="10" stroke-linecap="round" stroke-linejoin="round"/>
<path d="M47.25 47.25V21" stroke="url(#paint5_linear_1865_11153)" stroke-width="2" stroke-miterlimit="10" stroke-linecap="round" stroke-linejoin="round"/>
<path d="M8.75 21V47.25" stroke="url(#paint6_linear_1865_11153)" stroke-width="2" stroke-miterlimit="10" stroke-linecap="round" stroke-linejoin="round"/>
<defs>
<linearGradient id="paint0_linear_1865_11153" x1="27.9994" y1="8.75" x2="27.9994" y2="21" gradientUnits="userSpaceOnUse">
<stop stop-color="#009ED4"/>
<stop offset="1" stop-color="#02516C"/>
</linearGradient>
<linearGradient id="paint1_linear_1865_11153" x1="28.5" y1="8.75" x2="28.5" y2="15.75" gradientUnits="userSpaceOnUse">
<stop stop-color="#009ED4"/>
<stop offset="1" stop-color="#02516C"/>
</linearGradient>
<linearGradient id="paint2_linear_1865_11153" x1="28.0007" y1="8.75" x2="28.0007" y2="21" gradientUnits="userSpaceOnUse">
<stop stop-color="#009ED4"/>
<stop offset="1" stop-color="#02516C"/>
</linearGradient>
<linearGradient id="paint3_linear_1865_11153" x1="28" y1="47.25" x2="28" y2="48.25" gradientUnits="userSpaceOnUse">
<stop stop-color="#009ED4"/>
<stop offset="1" stop-color="#02516C"/>
</linearGradient>
<linearGradient id="paint4_linear_1865_11153" x1="28" y1="26.25" x2="28" y2="40.25" gradientUnits="userSpaceOnUse">
<stop stop-color="#009ED4"/>
<stop offset="1" stop-color="#02516C"/>
</linearGradient>
<linearGradient id="paint5_linear_1865_11153" x1="47.75" y1="21" x2="47.75" y2="47.25" gradientUnits="userSpaceOnUse">
<stop stop-color="#009ED4"/>
<stop offset="1" stop-color="#02516C"/>
</linearGradient>
<linearGradient id="paint6_linear_1865_11153" x1="9.25" y1="21" x2="9.25" y2="47.25" gradientUnits="userSpaceOnUse">
<stop stop-color="#009ED4"/>
<stop offset="1" stop-color="#02516C"/>
</linearGradient>
</defs>
</svg>
