<svg width="56" height="56" viewBox="0 0 56 56" fill="none" xmlns="http://www.w3.org/2000/svg">
<path fill-rule="evenodd" clip-rule="evenodd" d="M41.1723 29.2967L40.6281 25.9665C40.4898 25.1213 39.7583 24.5 38.9008 24.5H34.5993C33.7418 24.5 33.0103 25.1213 32.8721 25.9665L32.3278 29.2967L30.3276 30.4465L27.2738 29.2827C26.4671 28.9747 25.5553 29.302 25.1283 30.0545L22.9776 33.8433C22.5611 34.5783 22.7291 35.5058 23.3766 36.0483L25.9806 38.2287V40.5213L23.3766 42.7017C22.7291 43.2442 22.5611 44.1717 22.9776 44.9067L25.1283 48.6955C25.5553 49.448 26.4671 49.7753 27.2738 49.4673L30.3276 48.3035L32.3278 49.4533L32.8721 52.7835C33.0103 53.6288 33.7418 54.25 34.5993 54.25H38.9008C39.7583 54.25 40.4898 53.6288 40.6281 52.7835L41.1723 49.4533L43.1726 48.3035L46.2263 49.4673C47.0331 49.7753 47.9448 49.448 48.3718 48.6955L50.5226 44.9067C50.9391 44.1717 50.7711 43.2442 50.1236 42.7017L47.5196 40.5213V38.2287L50.1236 36.0483C50.7711 35.5058 50.9391 34.5783 50.5226 33.8433L48.3718 30.0545C47.9448 29.302 47.0331 28.9747 46.2263 29.2827L43.1726 30.4465L41.1723 29.2967ZM37.8543 30.681C37.9383 31.2007 38.2516 31.654 38.7083 31.9147L42.1471 33.894C42.6021 34.1565 43.1516 34.2003 43.6433 34.013L46.0688 33.089L46.7583 34.3017L44.6461 36.0693C44.2488 36.4018 44.0196 36.8935 44.0196 37.4115V41.3385C44.0196 41.8565 44.2488 42.3482 44.6461 42.6807L46.7583 44.4483L46.0688 45.661L43.6433 44.737C43.1516 44.5497 42.6021 44.5935 42.1471 44.856L38.7083 46.8353C38.2516 47.096 37.9383 47.5493 37.8543 48.069L37.4133 50.75H36.0868L35.6458 48.069C35.5618 47.5493 35.2486 47.096 34.7918 46.8353L31.3531 44.856C30.8981 44.5935 30.3486 44.5497 29.8568 44.737L27.4313 45.661L26.7418 44.4483L28.8541 42.6807C29.2513 42.3482 29.4806 41.8565 29.4806 41.3385V37.4115C29.4806 36.8935 29.2513 36.4018 28.8541 36.0693L26.7418 34.3017L27.4313 33.089L29.8568 34.013C30.3486 34.2003 30.8981 34.1565 31.3531 33.894L34.7918 31.9147C35.2486 31.654 35.5618 31.2007 35.6458 30.681L36.0868 28H37.4133L37.8543 30.681ZM36.7501 34.125C33.8521 34.125 31.5001 36.477 31.5001 39.375C31.5001 42.273 33.8521 44.625 36.7501 44.625C39.6481 44.625 42.0001 42.273 42.0001 39.375C42.0001 36.477 39.6481 34.125 36.7501 34.125ZM36.7501 37.625C37.7161 37.625 38.5001 38.409 38.5001 39.375C38.5001 40.341 37.7161 41.125 36.7501 41.125C35.7841 41.125 35.0001 40.341 35.0001 39.375C35.0001 38.409 35.7841 37.625 36.7501 37.625ZM23.6723 6.54675L23.1281 3.2165C22.9898 2.37125 22.2583 1.75 21.4008 1.75H17.0993C16.2418 1.75 15.5103 2.37125 15.3721 3.2165L14.8278 6.54675L12.8276 7.6965L9.77383 6.53275C8.96708 6.22475 8.05533 6.552 7.62833 7.3045L5.47758 11.0933C5.06108 11.8283 5.22908 12.7557 5.87658 13.2982L8.48058 15.4788V17.7712L5.87658 19.9518C5.22908 20.4943 5.06108 21.4218 5.47758 22.1568L7.62833 25.9455C8.05533 26.698 8.96708 27.0253 9.77383 26.7173L12.8276 25.5535L14.8278 26.7032L15.3721 30.0335C15.5103 30.8788 16.2418 31.5 17.0993 31.5H21.4008C22.2583 31.5 22.9898 30.8788 23.1281 30.0335L23.6723 26.7032L25.6726 25.5535L28.7263 26.7173C29.5331 27.0253 30.4448 26.698 30.8718 25.9455L33.0226 22.1568C33.4391 21.4218 33.2711 20.4943 32.6236 19.9518L30.0196 17.7712V15.4788L32.6236 13.2982C33.2711 12.7557 33.4391 11.8283 33.0226 11.0933L30.8718 7.3045C30.4448 6.552 29.5331 6.22475 28.7263 6.53275L25.6726 7.6965L23.6723 6.54675ZM20.3543 7.931C20.4383 8.45075 20.7516 8.904 21.2083 9.16475L24.6471 11.144C25.1021 11.4065 25.6516 11.4502 26.1433 11.263L28.5688 10.339L29.2583 11.5517L27.1461 13.3193C26.7488 13.6518 26.5196 14.1435 26.5196 14.6615V18.5885C26.5196 19.1065 26.7488 19.5982 27.1461 19.9307L29.2583 21.6983L28.5688 22.911L26.1433 21.987C25.6516 21.7998 25.1021 21.8435 24.6471 22.106L21.2083 24.0852C20.7516 24.346 20.4383 24.7993 20.3543 25.319L19.9133 28H18.5868L18.1458 25.319C18.0618 24.7993 17.7486 24.346 17.2918 24.0852L13.8531 22.106C13.3981 21.8435 12.8486 21.7998 12.3568 21.987L9.93133 22.911L9.24183 21.6983L11.3541 19.9307C11.7513 19.5982 11.9806 19.1065 11.9806 18.5885V14.6615C11.9806 14.1435 11.7513 13.6518 11.3541 13.3193L9.24183 11.5517L9.93133 10.339L12.3568 11.263C12.8486 11.4502 13.3981 11.4065 13.8531 11.144L17.2918 9.16475C17.7486 8.904 18.0618 8.45075 18.1458 7.931L18.5868 5.25H19.9133L20.3543 7.931ZM19.2501 11.375C16.3521 11.375 14.0001 13.727 14.0001 16.625C14.0001 19.523 16.3521 21.875 19.2501 21.875C22.1481 21.875 24.5001 19.523 24.5001 16.625C24.5001 13.727 22.1481 11.375 19.2501 11.375ZM19.2501 14.875C20.2161 14.875 21.0001 15.659 21.0001 16.625C21.0001 17.591 20.2161 18.375 19.2501 18.375C18.2841 18.375 17.5001 17.591 17.5001 16.625C17.5001 15.659 18.2841 14.875 19.2501 14.875Z" fill="url(#paint0_linear_1865_11144)"/>
<defs>
<linearGradient id="paint0_linear_1865_11144" x1="32.9771" y1="1.75" x2="32.9771" y2="53.9577" gradientUnits="userSpaceOnUse">
<stop stop-color="#F7931A"/>
<stop offset="1" stop-color="#009ED4"/>
</linearGradient>
</defs>
</svg>
