<svg width="19" height="18" viewBox="0 0 19 18" fill="none" xmlns="http://www.w3.org/2000/svg">
<path fill-rule="evenodd" clip-rule="evenodd" d="M9.83331 18C14.8039 18 18.8333 13.9706 18.8333 9C18.8333 4.02944 14.8039 0 9.83331 0C4.86275 0 0.833313 4.02944 0.833313 9C0.833313 13.9706 4.86275 18 9.83331 18ZM11.5742 4.06454C12.4452 4.21551 13.2813 4.4768 14.0535 4.8368C14.0651 4.8368 14.071 4.84261 14.0768 4.84841C15.4529 6.87487 16.1322 9.1568 15.8768 11.7871C15.8768 11.7987 15.871 11.8103 15.8593 11.8162C14.8142 12.5826 13.8097 13.0471 12.811 13.3549C12.7935 13.3607 12.7761 13.3549 12.7587 13.3491C12.5322 13.0297 12.3232 12.6929 12.1374 12.3387C12.1316 12.3213 12.1374 12.2923 12.1606 12.2865C12.4916 12.1587 12.811 12.0136 13.1129 11.8336C13.1419 11.822 13.1419 11.7871 13.1187 11.7697C13.0868 11.7436 13.0548 11.7189 13.0229 11.6942C12.991 11.6695 12.959 11.6449 12.9271 11.6187C12.9155 11.6071 12.8981 11.6071 12.8864 11.6129C10.9122 12.5245 8.75805 12.5245 6.76063 11.6129C6.74902 11.6071 6.7316 11.6071 6.71999 11.6187C6.68805 11.642 6.65612 11.6666 6.62418 11.6913C6.59225 11.716 6.56031 11.7407 6.52838 11.7639C6.51096 11.7813 6.51096 11.8162 6.53418 11.8278C6.84192 12.002 7.15547 12.1529 7.48644 12.2807C7.50967 12.2865 7.52128 12.3097 7.50967 12.3329C7.32967 12.6871 7.12063 13.0239 6.88838 13.3433C6.88257 13.3549 6.86515 13.3607 6.84773 13.3549C5.85483 13.0471 4.85031 12.5826 3.80515 11.8162C3.79354 11.8103 3.78773 11.7987 3.78773 11.7871C3.57289 9.51099 4.00838 7.21164 5.58773 4.84841C5.59354 4.84261 5.59934 4.8368 5.60515 4.8368C6.38321 4.4768 7.21354 4.21551 8.08451 4.06454C8.10192 4.06454 8.11934 4.07035 8.12515 4.08196C8.23547 4.27358 8.35741 4.51745 8.4387 4.71487C9.3625 4.57551 10.302 4.57551 11.2258 4.71487C11.3071 4.52325 11.429 4.27358 11.5335 4.08196C11.5386 4.07626 11.5449 4.07175 11.5519 4.06874C11.5589 4.06573 11.5665 4.0643 11.5742 4.06454ZM6.71418 9.16841C6.71418 9.84777 7.21354 10.3994 7.8116 10.3994C8.42128 10.3994 8.90902 9.84777 8.90902 9.16841C8.91483 8.49487 8.42709 7.93745 7.8116 7.93745C7.20192 7.93745 6.71418 8.48906 6.71418 9.16841ZM10.7613 9.16841C10.7613 9.84777 11.2606 10.3994 11.8587 10.3994C12.4742 10.3994 12.9561 9.84777 12.9561 9.16841C12.9619 8.49487 12.4742 7.93745 11.8587 7.93745C11.249 7.93745 10.7613 8.48906 10.7613 9.16841Z" fill="#00B3B5"/>
</svg>
