<svg width="19" height="18" viewBox="0 0 19 18" fill="none" xmlns="http://www.w3.org/2000/svg">
<path d="M9.83331 0C4.86269 0 0.833313 4.02938 0.833313 9C0.833313 13.9706 4.86269 18 9.83331 18C14.8039 18 18.8333 13.9706 18.8333 9C18.8333 4.02938 14.8039 0 9.83331 0ZM7.63019 12.7303H5.80769V6.86531H7.63019V12.7303ZM6.70769 6.14531C6.13206 6.14531 5.75988 5.7375 5.75988 5.23312C5.75988 4.71844 6.14331 4.32281 6.73112 4.32281C7.31894 4.32281 7.67894 4.71844 7.69019 5.23312C7.69019 5.7375 7.31894 6.14531 6.70769 6.14531ZM14.2864 12.7303H12.4639V9.48C12.4639 8.72344 12.1996 8.20969 11.5405 8.20969C11.0371 8.20969 10.738 8.5575 10.6058 8.89219C10.5571 9.01125 10.5449 9.18 10.5449 9.34781V12.7294H8.72144V8.73563C8.72144 8.00344 8.698 7.39125 8.67362 6.86437H10.2571L10.3405 7.67906H10.3771C10.6171 7.29656 11.2049 6.73219 12.1883 6.73219C13.3874 6.73219 14.2864 7.53562 14.2864 9.2625V12.7303Z" fill="#00B3B5"/>
</svg>
