<svg width="19" height="18" viewBox="0 0 19 18" fill="none" xmlns="http://www.w3.org/2000/svg">
<path d="M9.83331 0C4.86531 0 0.833313 4.032 0.833313 9C0.833313 13.968 4.86531 18 9.83331 18C14.8013 18 18.8333 13.968 18.8333 9C18.8333 4.032 14.8013 0 9.83331 0ZM14.0093 6.12C13.8743 7.542 13.2893 10.998 12.9923 12.591C12.8663 13.266 12.6143 13.491 12.3803 13.518C11.8583 13.563 11.4623 13.176 10.9583 12.843C10.1663 12.321 9.71631 11.997 8.95131 11.493C8.06031 10.908 8.63631 10.584 9.14931 10.062C9.28431 9.927 11.5883 7.83 11.6333 7.641C11.6396 7.61237 11.6387 7.58265 11.6309 7.55442C11.623 7.52619 11.6084 7.5003 11.5883 7.479C11.5343 7.434 11.4623 7.452 11.3993 7.461C11.3183 7.479 10.0583 8.316 7.60131 9.972C7.24131 10.215 6.91731 10.341 6.62931 10.332C6.30531 10.323 5.69331 10.152 5.23431 9.999C4.66731 9.819 4.22631 9.72 4.26231 9.405C4.28031 9.243 4.50531 9.081 4.92831 8.91C7.55631 7.767 9.30231 7.011 10.1753 6.651C12.6773 5.607 13.1903 5.427 13.5323 5.427C13.6043 5.427 13.7753 5.445 13.8833 5.535C13.9733 5.607 14.0003 5.706 14.0093 5.778C14.0003 5.832 14.0183 5.994 14.0093 6.12Z" fill="#00B3B5"/>
</svg>
