<svg width="71" height="63" viewBox="0 0 71 63" fill="none" xmlns="http://www.w3.org/2000/svg">
<g filter="url(#filter0_dii_1488_162)">
<rect x="20.4517" y="6.07715" width="30.445" height="30.445" rx="15.2225" fill="#F7F7F7"/>
<rect x="20.9517" y="6.57715" width="29.445" height="29.445" rx="14.7225" stroke="#000041" stroke-opacity="0.05"/>
</g>
<g filter="url(#filter1_dd_1488_162)">
<path d="M33.1398 22.6611L37.1216 20.3497L37.1202 20.9211L33.1379 23.2325L33.1398 22.6611Z" fill="#32BF73"/>
<path d="M33.1479 19.8023L37.1296 17.491L37.1282 18.0628L33.146 20.3742L33.1479 19.8023Z" fill="#32BF73"/>
<path d="M33.146 20.374L37.1282 18.0626L38.1245 18.6373L34.1423 20.9487L33.146 20.374Z" fill="#43FF99"/>
<path d="M29.1665 16.3612L33.1487 14.0498L35.1474 12.9117L31.1656 15.2231L29.1665 16.3612Z" fill="#085A2D"/>
<path d="M38.1193 26.1053L42.1015 23.7939L42.0916 27.2241L38.1094 29.5355L38.1193 26.1053Z" fill="#32BF73"/>
<path d="M33.1379 23.2324L37.1202 20.921L42.1015 23.7939L38.1193 26.1053L33.1379 23.2324Z" fill="#43FF99"/>
<path d="M38.1326 21.5313L42.1144 19.22L42.1031 23.222L38.1213 25.5333L38.1326 21.5313Z" fill="#32BF73"/>
<path d="M31.1653 15.223L35.147 12.9116L40.1283 15.784L36.1461 18.0954L31.1653 15.223Z" fill="#43FF99"/>
<path d="M38.121 25.5333L33.1397 22.6609L33.1382 23.2328L38.1196 26.1052L38.1097 29.5353L31.1358 25.5136L29.1499 22.0778L29.1659 16.3607L31.165 15.2231L36.1459 18.0956L38.1323 21.5313L38.121 25.5333ZM33.1477 19.8022L33.1462 20.374L34.1425 20.9487L34.1439 20.3768L33.1477 19.8022Z" fill="#22804D"/>
<path d="M36.146 18.0956L40.1282 15.7842L42.1142 19.22L38.1324 21.5313L36.146 18.0956Z" fill="#72FFB3"/>
</g>
<defs>
<filter id="filter0_dii_1488_162" x="0.45166" y="-7.92285" width="70.4451" height="70.4449" filterUnits="userSpaceOnUse" color-interpolation-filters="sRGB">
<feFlood flood-opacity="0" result="BackgroundImageFix"/>
<feColorMatrix in="SourceAlpha" type="matrix" values="0 0 0 0 0 0 0 0 0 0 0 0 0 0 0 0 0 0 127 0" result="hardAlpha"/>
<feOffset dy="6"/>
<feGaussianBlur stdDeviation="10"/>
<feComposite in2="hardAlpha" operator="out"/>
<feColorMatrix type="matrix" values="0 0 0 0 0 0 0 0 0 0 0 0 0 0 0 0 0 0 0.08 0"/>
<feBlend mode="normal" in2="BackgroundImageFix" result="effect1_dropShadow_1488_162"/>
<feBlend mode="normal" in="SourceGraphic" in2="effect1_dropShadow_1488_162" result="shape"/>
<feColorMatrix in="SourceAlpha" type="matrix" values="0 0 0 0 0 0 0 0 0 0 0 0 0 0 0 0 0 0 127 0" result="hardAlpha"/>
<feMorphology radius="4" operator="erode" in="SourceAlpha" result="effect2_innerShadow_1488_162"/>
<feOffset dy="4"/>
<feGaussianBlur stdDeviation="4"/>
<feComposite in2="hardAlpha" operator="arithmetic" k2="-1" k3="1"/>
<feColorMatrix type="matrix" values="0 0 0 0 1 0 0 0 0 1 0 0 0 0 1 0 0 0 0.8 0"/>
<feBlend mode="normal" in2="shape" result="effect2_innerShadow_1488_162"/>
<feColorMatrix in="SourceAlpha" type="matrix" values="0 0 0 0 0 0 0 0 0 0 0 0 0 0 0 0 0 0 127 0" result="hardAlpha"/>
<feOffset dy="-4"/>
<feGaussianBlur stdDeviation="2"/>
<feComposite in2="hardAlpha" operator="arithmetic" k2="-1" k3="1"/>
<feColorMatrix type="matrix" values="0 0 0 0 0 0 0 0 0 0 0 0 0 0 0 0 0 0 0.08 0"/>
<feBlend mode="normal" in2="effect2_innerShadow_1488_162" result="effect3_innerShadow_1488_162"/>
</filter>
<filter id="filter1_dd_1488_162" x="17.1499" y="4.91162" width="36.9646" height="40.6238" filterUnits="userSpaceOnUse" color-interpolation-filters="sRGB">
<feFlood flood-opacity="0" result="BackgroundImageFix"/>
<feColorMatrix in="SourceAlpha" type="matrix" values="0 0 0 0 0 0 0 0 0 0 0 0 0 0 0 0 0 0 127 0" result="hardAlpha"/>
<feOffset dy="4"/>
<feGaussianBlur stdDeviation="6"/>
<feComposite in2="hardAlpha" operator="out"/>
<feColorMatrix type="matrix" values="0 0 0 0 0 0 0 0 0 0 0 0 0 0 0 0 0 0 0.2 0"/>
<feBlend mode="multiply" in2="BackgroundImageFix" result="effect1_dropShadow_1488_162"/>
<feColorMatrix in="SourceAlpha" type="matrix" values="0 0 0 0 0 0 0 0 0 0 0 0 0 0 0 0 0 0 127 0" result="hardAlpha"/>
<feOffset/>
<feGaussianBlur stdDeviation="2"/>
<feComposite in2="hardAlpha" operator="out"/>
<feColorMatrix type="matrix" values="0 0 0 0 0.262745 0 0 0 0 1 0 0 0 0 0.6 0 0 0 1 0"/>
<feBlend mode="normal" in2="effect1_dropShadow_1488_162" result="effect2_dropShadow_1488_162"/>
<feBlend mode="normal" in="SourceGraphic" in2="effect2_dropShadow_1488_162" result="shape"/>
</filter>
</defs>
</svg>
