<svg width="130" height="71" viewBox="0 0 130 71" fill="none" xmlns="http://www.w3.org/2000/svg">
<g filter="url(#filter0_dii_1484_1547)">
<rect x="20.0986" y="14.0771" width="30.445" height="30.445" rx="15.2225" fill="#F7F7F7"/>
<rect x="20.5986" y="14.5771" width="29.445" height="29.445" rx="14.7225" stroke="#000041" stroke-opacity="0.05"/>
</g>
<g filter="url(#filter1_dd_1484_1547)">
<path d="M32.787 30.6611L36.7688 28.3497L36.7674 28.9211L32.7852 31.2325L32.787 30.6611Z" fill="#32BF73"/>
<path d="M32.7949 27.8023L36.7766 25.491L36.7752 26.0628L32.793 28.3742L32.7949 27.8023Z" fill="#32BF73"/>
<path d="M32.793 28.374L36.7752 26.0626L37.7715 26.6373L33.7892 28.9487L32.793 28.374Z" fill="#43FF99"/>
<path d="M28.8135 24.3612L32.7957 22.0498L34.7943 20.9117L30.8126 23.2231L28.8135 24.3612Z" fill="#085A2D"/>
<path d="M37.7662 34.1053L41.7485 31.7939L41.7386 35.2241L37.7563 37.5355L37.7662 34.1053Z" fill="#32BF73"/>
<path d="M32.7852 31.2324L36.7674 28.921L41.7487 31.7939L37.7665 34.1053L32.7852 31.2324Z" fill="#43FF99"/>
<path d="M37.7794 29.5313L41.7611 27.22L41.7498 31.222L37.7681 33.5333L37.7794 29.5313Z" fill="#32BF73"/>
<path d="M30.812 23.223L34.7938 20.9116L39.7751 23.784L35.7929 26.0954L30.812 23.223Z" fill="#43FF99"/>
<path d="M37.7679 33.5333L32.7866 30.6609L32.7852 31.2328L37.7665 34.1052L37.7566 37.5353L30.7828 33.5136L28.7969 30.0778L28.8129 24.3607L30.812 23.2231L35.7928 26.0956L37.7792 29.5313L37.7679 33.5333ZM32.7946 27.8022L32.7932 28.374L33.7895 28.9487L33.7909 28.3768L32.7946 27.8022Z" fill="#22804D"/>
<path d="M35.793 26.0956L39.7752 23.7842L41.7611 27.22L37.7794 29.5313L35.793 26.0956Z" fill="#72FFB3"/>
</g>
<path d="M58.5435 37.226V21.3733H71.6699V23.6983H61.2308V28.0525H70.5536V30.3776H61.2308V34.9009H71.8353V37.226H58.5435Z" fill="#000041"/>
<path d="M73.6873 37.226L81.7906 21.3733H84.6846L92.4985 37.226H89.4597L87.558 33.2522H78.6692L76.7054 37.226H73.6873ZM79.7854 30.9272H86.483L83.1963 24.0365L79.7854 30.9272Z" fill="#000041"/>
<path d="M94.5572 37.226V21.3733H103.591C107.229 21.3733 109.668 23.4658 109.668 26.6152C109.668 28.8769 108.118 30.5467 105.617 31.0751L110.268 37.226H106.919L102.557 31.2654H97.2652V37.226H94.5572ZM97.2652 28.9192H103.756C105.658 28.9192 106.919 27.9891 106.919 26.5941C106.919 24.8609 105.596 23.7195 103.591 23.7195H97.2652V28.9192Z" fill="#000041"/>
<path d="M113.129 37.226V21.3733H115.734L126.38 33.2945V21.3733H129.088V37.226H126.38L115.775 25.3682L115.817 30.2931V37.226H113.129Z" fill="#000041"/>
<defs>
<filter id="filter0_dii_1484_1547" x="0.0986328" y="0.0771484" width="70.4448" height="70.4449" filterUnits="userSpaceOnUse" color-interpolation-filters="sRGB">
<feFlood flood-opacity="0" result="BackgroundImageFix"/>
<feColorMatrix in="SourceAlpha" type="matrix" values="0 0 0 0 0 0 0 0 0 0 0 0 0 0 0 0 0 0 127 0" result="hardAlpha"/>
<feOffset dy="6"/>
<feGaussianBlur stdDeviation="10"/>
<feComposite in2="hardAlpha" operator="out"/>
<feColorMatrix type="matrix" values="0 0 0 0 0 0 0 0 0 0 0 0 0 0 0 0 0 0 0.08 0"/>
<feBlend mode="normal" in2="BackgroundImageFix" result="effect1_dropShadow_1484_1547"/>
<feBlend mode="normal" in="SourceGraphic" in2="effect1_dropShadow_1484_1547" result="shape"/>
<feColorMatrix in="SourceAlpha" type="matrix" values="0 0 0 0 0 0 0 0 0 0 0 0 0 0 0 0 0 0 127 0" result="hardAlpha"/>
<feMorphology radius="4" operator="erode" in="SourceAlpha" result="effect2_innerShadow_1484_1547"/>
<feOffset dy="4"/>
<feGaussianBlur stdDeviation="4"/>
<feComposite in2="hardAlpha" operator="arithmetic" k2="-1" k3="1"/>
<feColorMatrix type="matrix" values="0 0 0 0 1 0 0 0 0 1 0 0 0 0 1 0 0 0 0.8 0"/>
<feBlend mode="normal" in2="shape" result="effect2_innerShadow_1484_1547"/>
<feColorMatrix in="SourceAlpha" type="matrix" values="0 0 0 0 0 0 0 0 0 0 0 0 0 0 0 0 0 0 127 0" result="hardAlpha"/>
<feOffset dy="-4"/>
<feGaussianBlur stdDeviation="2"/>
<feComposite in2="hardAlpha" operator="arithmetic" k2="-1" k3="1"/>
<feColorMatrix type="matrix" values="0 0 0 0 0 0 0 0 0 0 0 0 0 0 0 0 0 0 0.08 0"/>
<feBlend mode="normal" in2="effect2_innerShadow_1484_1547" result="effect3_innerShadow_1484_1547"/>
</filter>
<filter id="filter1_dd_1484_1547" x="16.7969" y="12.9116" width="36.9644" height="40.6238" filterUnits="userSpaceOnUse" color-interpolation-filters="sRGB">
<feFlood flood-opacity="0" result="BackgroundImageFix"/>
<feColorMatrix in="SourceAlpha" type="matrix" values="0 0 0 0 0 0 0 0 0 0 0 0 0 0 0 0 0 0 127 0" result="hardAlpha"/>
<feOffset dy="4"/>
<feGaussianBlur stdDeviation="6"/>
<feComposite in2="hardAlpha" operator="out"/>
<feColorMatrix type="matrix" values="0 0 0 0 0 0 0 0 0 0 0 0 0 0 0 0 0 0 0.2 0"/>
<feBlend mode="multiply" in2="BackgroundImageFix" result="effect1_dropShadow_1484_1547"/>
<feColorMatrix in="SourceAlpha" type="matrix" values="0 0 0 0 0 0 0 0 0 0 0 0 0 0 0 0 0 0 127 0" result="hardAlpha"/>
<feOffset/>
<feGaussianBlur stdDeviation="2"/>
<feComposite in2="hardAlpha" operator="out"/>
<feColorMatrix type="matrix" values="0 0 0 0 0.262745 0 0 0 0 1 0 0 0 0 0.6 0 0 0 1 0"/>
<feBlend mode="normal" in2="effect1_dropShadow_1484_1547" result="effect2_dropShadow_1484_1547"/>
<feBlend mode="normal" in="SourceGraphic" in2="effect2_dropShadow_1484_1547" result="shape"/>
</filter>
</defs>
</svg>
