<svg width="71" height="71" viewBox="0 0 71 71" fill="none" xmlns="http://www.w3.org/2000/svg">
<g filter="url(#filter0_dii_1520_5142)">
<rect x="20" y="14.0771" width="30.445" height="30.445" rx="15.2225" fill="#F7F7F7"/>
<rect x="20.5" y="14.5771" width="29.445" height="29.445" rx="14.7225" stroke="#000041" stroke-opacity="0.05"/>
</g>
<g filter="url(#filter1_d_1520_5142)">
<path d="M28.9141 32.1999L32.81 29.9386L37.6828 32.7487L33.7874 35.01L28.9141 32.1999Z" fill="#FF72F9"/>
<path d="M32.8267 29.4136L36.7221 27.1523L37.6968 27.7146L33.8013 29.9758L32.8267 29.4136Z" fill="#FF72F9"/>
<path d="M32.8331 27.1768L36.7285 24.9155L36.7221 27.1524L32.8267 29.4137L32.8331 27.1768Z" fill="#FF43F7"/>
<path d="M28.939 23.2507L32.8349 20.9894L34.7902 19.8765L30.8947 22.1377L28.939 23.2507Z" fill="#80227C"/>
<path d="M30.8947 22.1377L37.7174 26.0722L37.6842 37.8175L35.7284 38.9304L28.9058 34.9958L28.9136 32.1995L33.7865 35.0096L33.7897 33.8907L30.8657 32.2046L28.9228 28.8433L28.9385 23.2501L30.8942 22.1372L30.8947 22.1377ZM33.8012 29.976L33.8076 27.7386L32.833 27.1764L32.8265 29.4137L33.8012 29.976Z" fill="#BF32BA"/>
<path d="M30.8945 22.1377L34.79 19.8765L41.6126 23.811L37.7172 26.0723L30.8945 22.1377Z" fill="#FF72F9"/>
<path d="M37.7177 26.0721L41.6131 23.8108L41.58 35.556L37.6841 37.8173L37.7177 26.0721Z" fill="#FF43F7"/>
</g>
<defs>
<filter id="filter0_dii_1520_5142" x="0" y="0.0771484" width="70.4448" height="70.4449" filterUnits="userSpaceOnUse" color-interpolation-filters="sRGB">
<feFlood flood-opacity="0" result="BackgroundImageFix"/>
<feColorMatrix in="SourceAlpha" type="matrix" values="0 0 0 0 0 0 0 0 0 0 0 0 0 0 0 0 0 0 127 0" result="hardAlpha"/>
<feOffset dy="6"/>
<feGaussianBlur stdDeviation="10"/>
<feComposite in2="hardAlpha" operator="out"/>
<feColorMatrix type="matrix" values="0 0 0 0 0 0 0 0 0 0 0 0 0 0 0 0 0 0 0.08 0"/>
<feBlend mode="normal" in2="BackgroundImageFix" result="effect1_dropShadow_1520_5142"/>
<feBlend mode="normal" in="SourceGraphic" in2="effect1_dropShadow_1520_5142" result="shape"/>
<feColorMatrix in="SourceAlpha" type="matrix" values="0 0 0 0 0 0 0 0 0 0 0 0 0 0 0 0 0 0 127 0" result="hardAlpha"/>
<feMorphology radius="4" operator="erode" in="SourceAlpha" result="effect2_innerShadow_1520_5142"/>
<feOffset dy="4"/>
<feGaussianBlur stdDeviation="4"/>
<feComposite in2="hardAlpha" operator="arithmetic" k2="-1" k3="1"/>
<feColorMatrix type="matrix" values="0 0 0 0 1 0 0 0 0 1 0 0 0 0 1 0 0 0 0.8 0"/>
<feBlend mode="normal" in2="shape" result="effect2_innerShadow_1520_5142"/>
<feColorMatrix in="SourceAlpha" type="matrix" values="0 0 0 0 0 0 0 0 0 0 0 0 0 0 0 0 0 0 127 0" result="hardAlpha"/>
<feOffset dy="-4"/>
<feGaussianBlur stdDeviation="2"/>
<feComposite in2="hardAlpha" operator="arithmetic" k2="-1" k3="1"/>
<feColorMatrix type="matrix" values="0 0 0 0 0 0 0 0 0 0 0 0 0 0 0 0 0 0 0.08 0"/>
<feBlend mode="normal" in2="effect2_innerShadow_1520_5142" result="effect3_innerShadow_1520_5142"/>
</filter>
<filter id="filter1_d_1520_5142" x="16.9058" y="11.8765" width="36.7075" height="43.054" filterUnits="userSpaceOnUse" color-interpolation-filters="sRGB">
<feFlood flood-opacity="0" result="BackgroundImageFix"/>
<feColorMatrix in="SourceAlpha" type="matrix" values="0 0 0 0 0 0 0 0 0 0 0 0 0 0 0 0 0 0 127 0" result="hardAlpha"/>
<feOffset dy="4"/>
<feGaussianBlur stdDeviation="6"/>
<feComposite in2="hardAlpha" operator="out"/>
<feColorMatrix type="matrix" values="0 0 0 0 0 0 0 0 0 0 0 0 0 0 0 0 0 0 0.2 0"/>
<feBlend mode="multiply" in2="BackgroundImageFix" result="effect1_dropShadow_1520_5142"/>
<feBlend mode="normal" in="SourceGraphic" in2="effect1_dropShadow_1520_5142" result="shape"/>
</filter>
</defs>
</svg>
