<svg width="170" height="71" viewBox="0 0 170 71" fill="none" xmlns="http://www.w3.org/2000/svg">
<g filter="url(#filter0_dii_1484_1547)">
<rect x="20.7134" y="14.0771" width="30.445" height="30.445" rx="15.2225" fill="#F7F7F7"/>
<rect x="21.2134" y="14.5771" width="29.445" height="29.445" rx="14.7225" stroke="#000041" stroke-opacity="0.05"/>
</g>
<g filter="url(#filter1_dd_1484_1547)">
<path d="M31.7886 28.328L35.1842 26.3571L35.1701 31.232L31.7749 33.2029L31.7886 28.328Z" fill="#32A6BF"/>
<path d="M36.0355 30.7772L39.4308 28.8063L39.4171 33.6812L36.0215 35.6521L36.0355 30.7772Z" fill="#32A6BF"/>
<path d="M40.2887 31.2769L43.684 29.306L43.6647 36.131L40.269 38.1019L40.2887 31.2769Z" fill="#32A6BF"/>
<path d="M38.5951 28.3471L40.2889 31.2768L40.2692 38.1018L36.8712 36.1421L36.8852 31.2672L36.0357 30.7772L36.0217 35.6521L32.624 33.6929L32.6377 28.8179L31.7882 28.3279L31.7745 33.2028L28.3765 31.2436L28.4014 22.4685L38.5951 28.3471Z" fill="#226F80"/>
<path d="M38.5952 28.3473L41.9905 26.3763L43.6843 29.306L40.289 31.2769L38.5952 28.3473Z" fill="#72E6FF"/>
<path d="M28.4014 22.4685L31.7966 20.4976L41.9903 26.3762L38.5951 28.3471L28.4014 22.4685Z" fill="#43DDFF"/>
</g>
<path d="M59.1582 21.7697L62.5437 21.7897L62.5643 21.7697L68.8811 33.2755L75.0947 21.7697H78.3563V36.8297H75.6727V25.5447L69.8513 36.8297H67.8077L61.8418 25.4041V36.8297H59.1582V21.7697Z" fill="#000041"/>
<path d="M80.4298 36.8297L88.5219 21.7697H91.4119L99.215 36.8297H96.1804L94.2813 33.0546H85.4047L83.4437 36.8297H80.4298ZM86.5195 30.8458H93.2078L89.9256 24.2997L86.5195 30.8458Z" fill="#000041"/>
<path d="M101.271 36.8297V21.7697H110.292C113.925 21.7697 116.361 23.7576 116.361 26.7495C116.361 28.8981 114.813 30.4844 112.315 30.9864L116.96 36.8297H113.615L109.26 31.1671H103.975V36.8297H101.271ZM103.975 28.9382H110.457C112.356 28.9382 113.615 28.0547 113.615 26.7294C113.615 25.0829 112.294 23.9985 110.292 23.9985H103.975V28.9382Z" fill="#000041"/>
<path d="M119.817 36.8297V21.7697H122.501V29.1189L131.584 21.8098H135.114L128.137 27.6933L135.754 36.8297H132.203L126.072 29.2796L122.501 32.1109V36.8297H119.817Z" fill="#000041"/>
<path d="M137.779 36.8297V21.7697H150.888V23.9785H140.463V28.1149H149.773V30.3237H140.463V34.6209H151.053V36.8297H137.779Z" fill="#000041"/>
<path d="M153.171 23.9785V21.7697H169.334V23.9785H162.522V36.8297H159.838V23.9785H153.171Z" fill="#000041"/>
<defs>
<filter id="filter0_dii_1484_1547" x="0.713379" y="0.0771484" width="70.4448" height="70.4449" filterUnits="userSpaceOnUse" color-interpolation-filters="sRGB">
<feFlood flood-opacity="0" result="BackgroundImageFix"/>
<feColorMatrix in="SourceAlpha" type="matrix" values="0 0 0 0 0 0 0 0 0 0 0 0 0 0 0 0 0 0 127 0" result="hardAlpha"/>
<feOffset dy="6"/>
<feGaussianBlur stdDeviation="10"/>
<feComposite in2="hardAlpha" operator="out"/>
<feColorMatrix type="matrix" values="0 0 0 0 0 0 0 0 0 0 0 0 0 0 0 0 0 0 0.08 0"/>
<feBlend mode="normal" in2="BackgroundImageFix" result="effect1_dropShadow_1484_1547"/>
<feBlend mode="normal" in="SourceGraphic" in2="effect1_dropShadow_1484_1547" result="shape"/>
<feColorMatrix in="SourceAlpha" type="matrix" values="0 0 0 0 0 0 0 0 0 0 0 0 0 0 0 0 0 0 127 0" result="hardAlpha"/>
<feMorphology radius="4" operator="erode" in="SourceAlpha" result="effect2_innerShadow_1484_1547"/>
<feOffset dy="4"/>
<feGaussianBlur stdDeviation="4"/>
<feComposite in2="hardAlpha" operator="arithmetic" k2="-1" k3="1"/>
<feColorMatrix type="matrix" values="0 0 0 0 1 0 0 0 0 1 0 0 0 0 1 0 0 0 0.8 0"/>
<feBlend mode="normal" in2="shape" result="effect2_innerShadow_1484_1547"/>
<feColorMatrix in="SourceAlpha" type="matrix" values="0 0 0 0 0 0 0 0 0 0 0 0 0 0 0 0 0 0 127 0" result="hardAlpha"/>
<feOffset dy="-4"/>
<feGaussianBlur stdDeviation="2"/>
<feComposite in2="hardAlpha" operator="arithmetic" k2="-1" k3="1"/>
<feColorMatrix type="matrix" values="0 0 0 0 0 0 0 0 0 0 0 0 0 0 0 0 0 0 0.08 0"/>
<feBlend mode="normal" in2="effect2_innerShadow_1484_1547" result="effect3_innerShadow_1484_1547"/>
</filter>
<filter id="filter1_dd_1484_1547" x="16.3765" y="12.4976" width="39.3076" height="41.6044" filterUnits="userSpaceOnUse" color-interpolation-filters="sRGB">
<feFlood flood-opacity="0" result="BackgroundImageFix"/>
<feColorMatrix in="SourceAlpha" type="matrix" values="0 0 0 0 0 0 0 0 0 0 0 0 0 0 0 0 0 0 127 0" result="hardAlpha"/>
<feOffset dy="4"/>
<feGaussianBlur stdDeviation="6"/>
<feComposite in2="hardAlpha" operator="out"/>
<feColorMatrix type="matrix" values="0 0 0 0 0 0 0 0 0 0 0 0 0 0 0 0 0 0 0.2 0"/>
<feBlend mode="multiply" in2="BackgroundImageFix" result="effect1_dropShadow_1484_1547"/>
<feColorMatrix in="SourceAlpha" type="matrix" values="0 0 0 0 0 0 0 0 0 0 0 0 0 0 0 0 0 0 127 0" result="hardAlpha"/>
<feOffset/>
<feGaussianBlur stdDeviation="2"/>
<feComposite in2="hardAlpha" operator="out"/>
<feColorMatrix type="matrix" values="0 0 0 0 0.447059 0 0 0 0 0.901961 0 0 0 0 1 0 0 0 1 0"/>
<feBlend mode="normal" in2="effect1_dropShadow_1484_1547" result="effect2_dropShadow_1484_1547"/>
<feBlend mode="normal" in="SourceGraphic" in2="effect2_dropShadow_1484_1547" result="shape"/>
</filter>
</defs>
</svg>
