<svg width="72" height="63" viewBox="0 0 72 63" fill="none" xmlns="http://www.w3.org/2000/svg">
<g filter="url(#filter0_dii_1488_177)">
<rect x="20.5735" y="6.07715" width="30.445" height="30.445" rx="15.2225" fill="#F7F7F7"/>
<rect x="21.0735" y="6.57715" width="29.445" height="29.445" rx="14.7225" stroke="#000041" stroke-opacity="0.05"/>
</g>
<g filter="url(#filter1_dd_1488_177)">
<path d="M29.2822 21.5555L33.264 19.2441L38.2453 22.1165L34.2631 24.4279L29.2822 21.5555Z" fill="#FF5A5A"/>
<path d="M33.2768 20.4233L37.2585 18.1119L37.2571 18.6838L33.2749 20.9952L33.2768 20.4233Z" fill="#FF2424"/>
<path d="M29.2947 16.9824L33.2769 14.671L35.2755 13.533L31.2938 15.8443L29.2947 16.9824Z" fill="#BF1B1B"/>
<path d="M33.2749 20.995L37.2571 18.6836L42.2384 21.556L38.2562 23.8674L33.2749 20.995Z" fill="#FF5A5A"/>
<path d="M38.2559 23.8674L42.2382 21.556L42.2269 25.558L38.2446 27.8694L38.2559 23.8674Z" fill="#FF2424"/>
<path d="M31.2939 15.8443L35.2757 13.533L42.2495 17.5547L38.2673 19.8661L31.2939 15.8443Z" fill="#FF5A5A"/>
<path d="M38.2672 19.8659L42.2495 17.5546L42.2396 20.9847L38.2578 23.2961L38.2672 19.8659Z" fill="#FF2424"/>
<path d="M38.2673 19.8661L38.2579 23.2962L33.2766 20.4234L33.2747 20.9952L38.256 23.8676L38.2447 27.8696L36.2456 29.0077L29.2722 24.9859L29.2821 21.5558L34.2629 24.4282L34.2644 23.8563L29.2835 20.9839L29.2948 16.9824L31.2939 15.8444L38.2673 19.8661Z" fill="#BF1B1B"/>
</g>
<defs>
<filter id="filter0_dii_1488_177" x="0.573486" y="-7.92285" width="70.4451" height="70.4449" filterUnits="userSpaceOnUse" color-interpolation-filters="sRGB">
<feFlood flood-opacity="0" result="BackgroundImageFix"/>
<feColorMatrix in="SourceAlpha" type="matrix" values="0 0 0 0 0 0 0 0 0 0 0 0 0 0 0 0 0 0 127 0" result="hardAlpha"/>
<feOffset dy="6"/>
<feGaussianBlur stdDeviation="10"/>
<feComposite in2="hardAlpha" operator="out"/>
<feColorMatrix type="matrix" values="0 0 0 0 0 0 0 0 0 0 0 0 0 0 0 0 0 0 0.08 0"/>
<feBlend mode="normal" in2="BackgroundImageFix" result="effect1_dropShadow_1488_177"/>
<feBlend mode="normal" in="SourceGraphic" in2="effect1_dropShadow_1488_177" result="shape"/>
<feColorMatrix in="SourceAlpha" type="matrix" values="0 0 0 0 0 0 0 0 0 0 0 0 0 0 0 0 0 0 127 0" result="hardAlpha"/>
<feMorphology radius="4" operator="erode" in="SourceAlpha" result="effect2_innerShadow_1488_177"/>
<feOffset dy="4"/>
<feGaussianBlur stdDeviation="4"/>
<feComposite in2="hardAlpha" operator="arithmetic" k2="-1" k3="1"/>
<feColorMatrix type="matrix" values="0 0 0 0 1 0 0 0 0 1 0 0 0 0 1 0 0 0 0.8 0"/>
<feBlend mode="normal" in2="shape" result="effect2_innerShadow_1488_177"/>
<feColorMatrix in="SourceAlpha" type="matrix" values="0 0 0 0 0 0 0 0 0 0 0 0 0 0 0 0 0 0 127 0" result="hardAlpha"/>
<feOffset dy="-4"/>
<feGaussianBlur stdDeviation="2"/>
<feComposite in2="hardAlpha" operator="arithmetic" k2="-1" k3="1"/>
<feColorMatrix type="matrix" values="0 0 0 0 0 0 0 0 0 0 0 0 0 0 0 0 0 0 0.08 0"/>
<feBlend mode="normal" in2="effect2_innerShadow_1488_177" result="effect3_innerShadow_1488_177"/>
</filter>
<filter id="filter1_dd_1488_177" x="17.2722" y="7.53296" width="36.9773" height="39.4747" filterUnits="userSpaceOnUse" color-interpolation-filters="sRGB">
<feFlood flood-opacity="0" result="BackgroundImageFix"/>
<feColorMatrix in="SourceAlpha" type="matrix" values="0 0 0 0 0 0 0 0 0 0 0 0 0 0 0 0 0 0 127 0" result="hardAlpha"/>
<feOffset dy="6"/>
<feGaussianBlur stdDeviation="6"/>
<feComposite in2="hardAlpha" operator="out"/>
<feColorMatrix type="matrix" values="0 0 0 0 0 0 0 0 0 0 0 0 0 0 0 0 0 0 0.2 0"/>
<feBlend mode="multiply" in2="BackgroundImageFix" result="effect1_dropShadow_1488_177"/>
<feColorMatrix in="SourceAlpha" type="matrix" values="0 0 0 0 0 0 0 0 0 0 0 0 0 0 0 0 0 0 127 0" result="hardAlpha"/>
<feOffset/>
<feGaussianBlur stdDeviation="2"/>
<feComposite in2="hardAlpha" operator="out"/>
<feColorMatrix type="matrix" values="0 0 0 0 1 0 0 0 0 0.352941 0 0 0 0 0.352941 0 0 0 1 0"/>
<feBlend mode="normal" in2="effect1_dropShadow_1488_177" result="effect2_dropShadow_1488_177"/>
<feBlend mode="normal" in="SourceGraphic" in2="effect2_dropShadow_1488_177" result="shape"/>
</filter>
</defs>
</svg>
