<svg width="191" height="71" viewBox="0 0 191 71" fill="none" xmlns="http://www.w3.org/2000/svg">
<g filter="url(#filter0_dii_1484_1547)">
<rect x="20.5591" y="14.0771" width="30.445" height="30.445" rx="15.2225" fill="#F7F7F7"/>
<rect x="21.0591" y="14.5771" width="29.445" height="29.445" rx="14.7225" stroke="#000041" stroke-opacity="0.05"/>
</g>
<g filter="url(#filter1_dd_1484_1547)">
<path d="M34.1398 31.8895L37.7681 29.7836L37.7651 30.8252L34.1372 32.9312L34.1398 31.8895Z" fill="#E6C40F"/>
<path d="M34.1372 32.9312L37.7651 30.8252L40.9422 32.6574L37.3138 34.7633L34.1372 32.9312Z" fill="#FFD812"/>
<path d="M37.3138 34.7634L40.9422 32.6575L40.9302 36.8244L37.3022 38.9304L37.3138 34.7634Z" fill="#E6C40F"/>
<path d="M34.1519 27.7222L37.7802 25.6162L40.9568 27.4484L37.3289 29.5544L34.1519 27.7222Z" fill="#FFD812"/>
<path d="M37.3284 29.5545L40.9563 27.4485L40.9447 31.6159L37.3164 33.7218L37.3284 29.5545Z" fill="#E6C40F"/>
<path d="M30.5312 21.9824L34.1596 19.8765L37.7905 21.9704L34.1622 24.0764L30.5312 21.9824Z" fill="#FFD812"/>
<path d="M34.1622 24.0762L37.7905 21.9702L37.7802 25.6161L34.1519 27.7221L34.1622 24.0762Z" fill="#E6C40F"/>
<path d="M34.1623 24.0764L34.152 27.7223L37.329 29.5545L37.317 33.7219L34.14 31.8897L34.1374 32.9313L37.314 34.7635L37.3024 38.9304L32.3099 36.0515L30.5005 32.921L30.5314 21.9824L34.1623 24.0764Z" fill="#BF9832"/>
</g>
<path d="M59.0039 23.6985V21.3779H75.207V23.6985H68.3781V37.2004H65.6879V23.6985H59.0039Z" fill="#000041"/>
<path d="M86.4231 37.6223C80.8772 37.6223 77.1731 34.2891 77.1731 29.2891C77.1731 24.2892 80.8772 20.9771 86.4231 20.9771C91.969 20.9771 95.6731 24.2892 95.6731 29.2891C95.6731 34.2891 91.969 37.6223 86.4231 37.6223ZM86.4231 35.1118C90.3135 35.1118 92.8588 32.7279 92.8588 29.2891C92.8588 25.8504 90.3135 23.4876 86.4231 23.4876C82.5327 23.4876 79.9874 25.8504 79.9874 29.2891C79.9874 32.7279 82.5327 35.1118 86.4231 35.1118Z" fill="#000041"/>
<path d="M98.9465 37.2004V21.3779H101.637V29.0993L110.742 21.4201H114.28L107.286 27.6014L114.922 37.2004H111.363L105.217 29.2681L101.637 32.2427V37.2004H98.9465Z" fill="#000041"/>
<path d="M116.952 37.2004V21.3779H130.093V23.6985H119.642V28.0444H128.975V30.3651H119.642V34.8798H130.258V37.2004H116.952Z" fill="#000041"/>
<path d="M133.685 37.2004V21.3779H136.292L146.95 33.2764V21.3779H149.661V37.2004H146.95L136.334 25.3652L136.375 30.2807V37.2004H133.685Z" fill="#000041"/>
<path d="M155.998 37.2004H153.308V21.3779H155.998V37.2004Z" fill="#000041"/>
<path d="M159.157 25.9137C159.157 22.9601 162.137 20.9771 166.627 20.9771C169.173 20.9771 171.904 21.5045 173.436 22.285V25.1964C172.484 24.1205 169.752 23.4032 166.627 23.4032C163.73 23.4032 161.806 24.3103 161.806 25.6605C161.806 29.1837 174.118 26.8208 174.118 32.4748C174.118 35.5549 171.283 37.6223 167.041 37.6223C163.792 37.6223 160.688 36.9683 159.26 35.9768V32.96C160.316 34.2891 163.42 35.1751 167.041 35.1751C169.69 35.1751 171.47 34.2891 171.47 32.9389C171.47 29.5634 159.157 31.5043 159.157 25.9137Z" fill="#000041"/>
<path d="M177.275 37.2004V21.3779H190.415V23.6985H179.965V28.0444H189.298V30.3651H179.965V34.8798H190.581V37.2004H177.275Z" fill="#000041"/>
<defs>
<filter id="filter0_dii_1484_1547" x="0.559082" y="0.0771484" width="70.4448" height="70.4449" filterUnits="userSpaceOnUse" color-interpolation-filters="sRGB">
<feFlood flood-opacity="0" result="BackgroundImageFix"/>
<feColorMatrix in="SourceAlpha" type="matrix" values="0 0 0 0 0 0 0 0 0 0 0 0 0 0 0 0 0 0 127 0" result="hardAlpha"/>
<feOffset dy="6"/>
<feGaussianBlur stdDeviation="10"/>
<feComposite in2="hardAlpha" operator="out"/>
<feColorMatrix type="matrix" values="0 0 0 0 0 0 0 0 0 0 0 0 0 0 0 0 0 0 0.08 0"/>
<feBlend mode="normal" in2="BackgroundImageFix" result="effect1_dropShadow_1484_1547"/>
<feBlend mode="normal" in="SourceGraphic" in2="effect1_dropShadow_1484_1547" result="shape"/>
<feColorMatrix in="SourceAlpha" type="matrix" values="0 0 0 0 0 0 0 0 0 0 0 0 0 0 0 0 0 0 127 0" result="hardAlpha"/>
<feMorphology radius="4" operator="erode" in="SourceAlpha" result="effect2_innerShadow_1484_1547"/>
<feOffset dy="4"/>
<feGaussianBlur stdDeviation="4"/>
<feComposite in2="hardAlpha" operator="arithmetic" k2="-1" k3="1"/>
<feColorMatrix type="matrix" values="0 0 0 0 1 0 0 0 0 1 0 0 0 0 1 0 0 0 0.8 0"/>
<feBlend mode="normal" in2="shape" result="effect2_innerShadow_1484_1547"/>
<feColorMatrix in="SourceAlpha" type="matrix" values="0 0 0 0 0 0 0 0 0 0 0 0 0 0 0 0 0 0 127 0" result="hardAlpha"/>
<feOffset dy="-4"/>
<feGaussianBlur stdDeviation="2"/>
<feComposite in2="hardAlpha" operator="arithmetic" k2="-1" k3="1"/>
<feColorMatrix type="matrix" values="0 0 0 0 0 0 0 0 0 0 0 0 0 0 0 0 0 0 0.08 0"/>
<feBlend mode="normal" in2="effect2_innerShadow_1484_1547" result="effect3_innerShadow_1484_1547"/>
</filter>
<filter id="filter1_dd_1484_1547" x="18.5005" y="11.8765" width="34.4565" height="43.054" filterUnits="userSpaceOnUse" color-interpolation-filters="sRGB">
<feFlood flood-opacity="0" result="BackgroundImageFix"/>
<feColorMatrix in="SourceAlpha" type="matrix" values="0 0 0 0 0 0 0 0 0 0 0 0 0 0 0 0 0 0 127 0" result="hardAlpha"/>
<feOffset dy="4"/>
<feGaussianBlur stdDeviation="6"/>
<feComposite in2="hardAlpha" operator="out"/>
<feColorMatrix type="matrix" values="0 0 0 0 0 0 0 0 0 0 0 0 0 0 0 0 0 0 0.2 0"/>
<feBlend mode="multiply" in2="BackgroundImageFix" result="effect1_dropShadow_1484_1547"/>
<feColorMatrix in="SourceAlpha" type="matrix" values="0 0 0 0 0 0 0 0 0 0 0 0 0 0 0 0 0 0 127 0" result="hardAlpha"/>
<feOffset/>
<feGaussianBlur stdDeviation="2"/>
<feComposite in2="hardAlpha" operator="out"/>
<feColorMatrix type="matrix" values="0 0 0 0 1 0 0 0 0 0.847059 0 0 0 0 0.0705882 0 0 0 1 0"/>
<feBlend mode="normal" in2="effect1_dropShadow_1484_1547" result="effect2_dropShadow_1484_1547"/>
<feBlend mode="normal" in="SourceGraphic" in2="effect2_dropShadow_1484_1547" result="shape"/>
</filter>
</defs>
</svg>
