<svg width="72" height="63" viewBox="0 0 72 63" fill="none" xmlns="http://www.w3.org/2000/svg">
<g filter="url(#filter0_dii_1488_136)">
<rect x="20.9082" y="6.07715" width="30.445" height="30.445" rx="15.2225" fill="#F7F7F7"/>
<rect x="21.4082" y="6.57715" width="29.445" height="29.445" rx="14.7225" stroke="#000041" stroke-opacity="0.05"/>
</g>
<g filter="url(#filter1_dd_1488_136)">
<path d="M34.4889 23.8898L38.1172 21.7838L38.1142 22.8254L34.4863 24.9314L34.4889 23.8898Z" fill="#00C509"/>
<path d="M34.4863 24.9312L38.1142 22.8252L41.2913 24.6574L37.6629 26.7633L34.4863 24.9312Z" fill="#ABF13A"/>
<path d="M37.6629 26.7636L41.2913 24.6576L41.2793 28.8245L37.6514 30.9305L37.6629 26.7636Z" fill="#00C509"/>
<path d="M34.501 19.7224L38.1293 17.6165L41.3059 19.4486L37.678 21.5546L34.501 19.7224Z" fill="#ABF13A"/>
<path d="M37.6775 21.5546L41.3054 19.4486L41.2939 23.616L37.6655 25.722L37.6775 21.5546Z" fill="#00C509"/>
<path d="M30.8804 13.9824L34.5087 11.8765L38.1396 13.9704L34.5113 16.0764L30.8804 13.9824Z" fill="#ABF13A"/>
<path d="M34.5113 16.0762L38.1396 13.9702L38.1293 17.6161L34.501 19.7221L34.5113 16.0762Z" fill="#00C509"/>
<path d="M34.5109 16.0763L34.5006 19.7222L37.6777 21.5544L37.6657 25.7217L34.4886 23.8896L34.486 24.9312L37.6627 26.7634L37.6511 30.9303L32.6586 28.0514L30.8491 24.9209L30.88 13.9823L34.5109 16.0763Z" fill="#008906"/>
</g>
<defs>
<filter id="filter0_dii_1488_136" x="0.908203" y="-7.92285" width="70.4448" height="70.4449" filterUnits="userSpaceOnUse" color-interpolation-filters="sRGB">
<feFlood flood-opacity="0" result="BackgroundImageFix"/>
<feColorMatrix in="SourceAlpha" type="matrix" values="0 0 0 0 0 0 0 0 0 0 0 0 0 0 0 0 0 0 127 0" result="hardAlpha"/>
<feOffset dy="6"/>
<feGaussianBlur stdDeviation="10"/>
<feComposite in2="hardAlpha" operator="out"/>
<feColorMatrix type="matrix" values="0 0 0 0 0 0 0 0 0 0 0 0 0 0 0 0 0 0 0.08 0"/>
<feBlend mode="normal" in2="BackgroundImageFix" result="effect1_dropShadow_1488_136"/>
<feBlend mode="normal" in="SourceGraphic" in2="effect1_dropShadow_1488_136" result="shape"/>
<feColorMatrix in="SourceAlpha" type="matrix" values="0 0 0 0 0 0 0 0 0 0 0 0 0 0 0 0 0 0 127 0" result="hardAlpha"/>
<feMorphology radius="4" operator="erode" in="SourceAlpha" result="effect2_innerShadow_1488_136"/>
<feOffset dy="4"/>
<feGaussianBlur stdDeviation="4"/>
<feComposite in2="hardAlpha" operator="arithmetic" k2="-1" k3="1"/>
<feColorMatrix type="matrix" values="0 0 0 0 1 0 0 0 0 1 0 0 0 0 1 0 0 0 0.8 0"/>
<feBlend mode="normal" in2="shape" result="effect2_innerShadow_1488_136"/>
<feColorMatrix in="SourceAlpha" type="matrix" values="0 0 0 0 0 0 0 0 0 0 0 0 0 0 0 0 0 0 127 0" result="hardAlpha"/>
<feOffset dy="-4"/>
<feGaussianBlur stdDeviation="2"/>
<feComposite in2="hardAlpha" operator="arithmetic" k2="-1" k3="1"/>
<feColorMatrix type="matrix" values="0 0 0 0 0 0 0 0 0 0 0 0 0 0 0 0 0 0 0.08 0"/>
<feBlend mode="normal" in2="effect2_innerShadow_1488_136" result="effect3_innerShadow_1488_136"/>
</filter>
<filter id="filter1_dd_1488_136" x="18.8491" y="3.87646" width="34.457" height="43.0541" filterUnits="userSpaceOnUse" color-interpolation-filters="sRGB">
<feFlood flood-opacity="0" result="BackgroundImageFix"/>
<feColorMatrix in="SourceAlpha" type="matrix" values="0 0 0 0 0 0 0 0 0 0 0 0 0 0 0 0 0 0 127 0" result="hardAlpha"/>
<feOffset dy="4"/>
<feGaussianBlur stdDeviation="6"/>
<feComposite in2="hardAlpha" operator="out"/>
<feColorMatrix type="matrix" values="0 0 0 0 0 0 0 0 0 0 0 0 0 0 0 0 0 0 0.2 0"/>
<feBlend mode="multiply" in2="BackgroundImageFix" result="effect1_dropShadow_1488_136"/>
<feColorMatrix in="SourceAlpha" type="matrix" values="0 0 0 0 0 0 0 0 0 0 0 0 0 0 0 0 0 0 127 0" result="hardAlpha"/>
<feOffset/>
<feGaussianBlur stdDeviation="2"/>
<feComposite in2="hardAlpha" operator="out"/>
<feColorMatrix type="matrix" values="0 0 0 0 0.670588 0 0 0 0 0.945098 0 0 0 0 0.227451 0 0 0 1 0"/>
<feBlend mode="normal" in2="effect1_dropShadow_1488_136" result="effect2_dropShadow_1488_136"/>
<feBlend mode="normal" in="SourceGraphic" in2="effect2_dropShadow_1488_136" result="shape"/>
</filter>
</defs>
</svg>
