<svg width="103" height="22" viewBox="0 0 103 22" fill="none" xmlns="http://www.w3.org/2000/svg">
<path fill-rule="evenodd" clip-rule="evenodd" d="M33.0354 16.0547C32.1037 16.0547 31.0318 15.7872 30.3262 14.7277C29.8184 13.9811 29.6777 12.8239 29.6777 11.0888C29.6777 9.36706 29.8184 8.19653 30.3262 7.4341C31.0027 6.41803 32.0617 6.12292 33.0354 6.12292C34.0223 6.12292 34.8272 6.32032 35.447 6.84193C35.6444 7.01168 35.828 7.16663 35.828 7.36403C35.828 7.60386 35.5467 7.91475 35.2925 7.91475C35.179 7.91475 35.0522 7.82888 34.9545 7.75881C34.3194 7.29346 33.895 7.16663 33.1054 7.16663C32.4141 7.16663 31.6517 7.29346 31.2292 8.11214C30.8759 8.78821 30.8344 9.83241 30.8344 11.0888C30.8344 12.359 30.8621 13.3884 31.2292 14.0793C31.6378 14.855 32.3435 15.011 33.0778 15.011C33.7119 15.011 34.4739 14.8842 35.1795 14.2767C35.2925 14.1647 35.3769 14.0926 35.5038 14.0926C35.7717 14.0926 36.0821 14.4035 36.0821 14.6438C36.0821 14.7707 36.0115 14.8842 35.8985 15.011C35.5876 15.3495 34.7709 16.0547 33.0354 16.0547ZM40.2846 14.0793C40.6364 14.7573 41.3283 15.011 42.2585 15.011C43.2045 15.011 43.9102 14.7573 44.2482 14.0793C44.6297 13.3322 44.643 12.2732 44.643 11.0888C44.643 9.90446 44.6297 8.84496 44.2482 8.11214C43.8964 7.40647 43.2045 7.16663 42.2585 7.16663C41.3283 7.16663 40.6517 7.40647 40.2846 8.11214C39.9174 8.84496 39.8898 9.90446 39.8898 11.0888C39.8898 12.2732 39.9036 13.346 40.2846 14.0793ZM45.1513 14.743C44.5453 15.6461 43.5721 16.0547 42.2585 16.0547C40.9607 16.0547 40.0033 15.6599 39.3815 14.743C38.8032 13.8952 38.7326 12.5836 38.7326 11.0888C38.7326 9.59357 38.8032 8.28091 39.382 7.4341C40.0033 6.51771 40.9611 6.12292 42.259 6.12292C43.5717 6.12292 44.5453 6.53153 45.1508 7.4341C45.7296 8.29572 45.7997 9.59357 45.7997 11.0888C45.7997 12.5841 45.7296 13.8819 45.1513 14.743ZM49.2388 6.6169C49.2388 6.22063 49.5344 6.12292 49.8018 6.12292C50.0851 6.12292 50.3669 6.22063 50.3669 6.6169V15.5607C50.3669 15.9555 50.0851 16.0547 49.8018 16.0547C49.5344 16.0547 49.2388 15.955 49.2388 15.5607V6.6169ZM59.9177 13.5572C59.9315 13.5863 59.9729 13.6569 60.045 13.6569C60.1151 13.6569 60.1151 13.5572 60.1151 13.5004V6.6169C60.1151 6.22063 60.3964 6.12292 60.6781 6.12292C60.9476 6.12292 61.2432 6.22063 61.2432 6.6169V15.1946C61.2432 15.7305 61.0028 16.0547 60.5666 16.0547C60.2133 16.0547 59.9729 15.9708 59.6487 15.4196L55.6417 8.62043C55.6279 8.59082 55.5849 8.52074 55.5149 8.52074C55.4448 8.52074 55.4448 8.62043 55.4448 8.6752V15.5602C55.4448 15.955 55.163 16.0547 54.8797 16.0547C54.6123 16.0547 54.3167 15.955 54.3167 15.5602V6.98306C54.3167 6.44714 54.555 6.12292 54.9928 6.12292C55.3466 6.12292 55.5849 6.20682 55.9096 6.75754L59.9177 13.5572ZM71.1858 6.77185L73.1597 14.0225C73.2026 14.1494 73.2165 14.3897 73.3008 14.3897C73.3729 14.3897 73.3862 14.1785 73.4282 14.0225L75.4174 6.47428C75.4875 6.20682 75.6577 6.12292 75.8413 6.12292C76.1522 6.12292 76.504 6.27738 76.504 6.6016C76.504 6.64453 76.4902 6.70079 76.4764 6.75803L74.1195 15.4058C73.9784 15.9417 73.6256 16.0547 73.3161 16.0547C73.0053 16.0547 72.6672 15.9417 72.5113 15.4058L70.4939 7.98532C70.4668 7.88563 70.451 7.75832 70.3804 7.75832C70.3104 7.75832 70.2965 7.88563 70.2674 7.98532L68.2506 15.4058C68.0956 15.9417 67.7581 16.0547 67.4472 16.0547C67.1363 16.0547 66.783 15.9417 66.6423 15.4058L64.2869 6.75803C64.2711 6.70723 64.2613 6.65471 64.2578 6.6016C64.2578 6.27738 64.6112 6.12292 64.9221 6.12292C65.1041 6.12292 65.2739 6.20682 65.3445 6.47428L67.3337 14.0225C67.3766 14.1785 67.3904 14.3897 67.461 14.3897C67.5449 14.3897 67.5587 14.1494 67.6017 14.0225L69.5775 6.77136C69.7182 6.23593 70.07 6.12292 70.3809 6.12292C70.6918 6.12292 71.0437 6.23593 71.1858 6.77136M80.6483 14.8274C80.6483 14.9256 80.6769 14.9542 80.7751 14.9542H85.2618C85.6003 14.9542 85.7277 15.2084 85.7277 15.4763C85.7277 15.7443 85.6003 15.9979 85.2618 15.9979H80.0423C79.7743 15.9979 79.5202 15.8849 79.5202 15.5464V6.63072C79.5202 6.29268 79.7743 6.17918 80.0423 6.17918H85.1212C85.4597 6.17918 85.5865 6.44714 85.5865 6.70128C85.5865 6.96875 85.4597 7.22289 85.1212 7.22289H80.7751C80.6769 7.22289 80.6483 7.25053 80.6483 7.35021V10.2563C80.6483 10.3545 80.6769 10.3831 80.7751 10.3831H84.5275C84.867 10.3831 84.9943 10.6511 84.9943 10.9052C84.9943 11.1732 84.867 11.4268 84.5275 11.4268H80.7751C80.6769 11.4268 80.6483 11.4565 80.6483 11.5537V14.8274ZM90.3659 11.5828C90.2677 11.5828 90.239 11.6104 90.239 11.7101V14.8274C90.239 14.9251 90.2677 14.9542 90.3659 14.9542H93.3149C94.2604 14.9542 95.0214 14.3759 95.0214 13.2616C95.0214 12.1463 94.331 11.5828 93.2858 11.5828H90.3659ZM93.0884 10.5376C94.0773 10.5376 94.7672 9.95924 94.7672 8.87457C94.7672 7.78793 94.0068 7.22289 93.0884 7.22289H90.3659C90.2677 7.22289 90.239 7.25053 90.239 7.35021V10.4108C90.239 10.5105 90.2677 10.5376 90.3659 10.5376H93.0884ZM94.9646 10.962C94.9646 11.0044 94.9799 11.0459 95.0367 11.0888C95.7265 11.5537 96.1781 12.246 96.1781 13.2621C96.1781 15.0816 94.824 15.9984 93.3149 15.9984H89.6331C89.3651 15.9984 89.1109 15.8849 89.1109 15.5464V6.63072C89.1109 6.29268 89.3651 6.17918 89.6331 6.17918H93.0884C94.5851 6.17918 95.9239 7.03932 95.9239 8.87457C95.9239 9.84771 95.543 10.4108 95.0367 10.8485C94.9937 10.8909 94.9646 10.9324 94.9646 10.962ZM100.439 6.26061C100.472 6.32624 100.514 6.41013 100.563 6.51179C100.612 6.61394 100.66 6.71806 100.713 6.82367C100.764 6.93075 100.812 7.03191 100.857 7.12666C100.901 7.22289 100.935 7.29938 100.96 7.35465L101.084 7.10396C101.131 7.01168 101.175 6.91841 101.221 6.82663C101.267 6.73287 101.31 6.64601 101.351 6.56015C101.39 6.47626 101.426 6.40569 101.453 6.34943C101.507 6.23593 101.593 6.17918 101.712 6.17918C101.792 6.178 101.871 6.19938 101.939 6.24087L102.041 8.15063H101.68C101.675 8.07414 101.672 7.98828 101.668 7.88909L101.654 7.58264C101.644 7.372 101.632 7.16144 101.619 6.95098C101.616 6.8967 101.612 6.85722 101.611 6.83107C101.61 6.80541 101.606 6.77432 101.603 6.73977C101.573 6.80541 101.533 6.88782 101.487 6.98602C101.44 7.08521 101.392 7.18637 101.343 7.28852C101.294 7.39265 101.248 7.48937 101.207 7.5782L101.11 7.77855H100.8C100.761 7.69449 100.722 7.61092 100.682 7.52786C100.639 7.4341 100.595 7.34083 100.551 7.24411C100.509 7.1512 100.465 7.05906 100.419 6.96776L100.307 6.73484C100.293 6.95098 100.282 7.18489 100.271 7.43558C100.26 7.68676 100.249 7.92413 100.235 8.15063H99.8698C99.901 7.55929 99.9321 6.96794 99.9631 6.37657C99.969 6.30749 99.9946 6.25863 100.038 6.22705C100.081 6.19605 100.132 6.17931 100.185 6.17918C100.254 6.17918 100.308 6.19004 100.351 6.20879C100.383 6.22106 100.413 6.23857 100.439 6.26061ZM99.4883 6.19004C99.6048 6.19004 99.663 6.24185 99.663 6.34943C99.663 6.3832 99.6573 6.41672 99.6462 6.44862L99.6201 6.51919H98.91V8.15952H98.5384V6.51919H97.9842C97.8677 6.51919 97.8095 6.4654 97.8095 6.35831C97.8115 6.29907 97.8278 6.24117 97.8569 6.18954H99.4883V6.19004Z" fill="#050623"/>
<path fill-rule="evenodd" clip-rule="evenodd" d="M11.1609 0.143433C10.8649 0.143433 10.5811 0.26097 10.3717 0.470201C10.1624 0.679431 10.0448 0.963228 10.0446 1.25919C10.0446 1.64262 10.2376 1.98016 10.5322 2.18101L8.76898 5.99265C8.56316 5.92813 8.34302 5.92485 8.13537 5.98321C7.92772 6.04156 7.74152 6.15903 7.59943 6.32131L4.59513 4.30445C4.6272 4.22846 4.64447 4.14457 4.64447 4.05623C4.64447 4.03304 4.64349 4.00985 4.64102 3.98665L9.46873 1.98263C9.5044 1.96784 9.53273 1.93949 9.54749 1.90381C9.56225 1.86814 9.56223 1.82806 9.54744 1.7924C9.53265 1.75673 9.5043 1.7284 9.46863 1.71364C9.43295 1.69888 9.39287 1.6989 9.35721 1.71369L4.5438 3.71228C4.46911 3.59447 4.35822 3.50407 4.22777 3.45467C4.09732 3.40526 3.95437 3.39951 3.82037 3.43828C3.68638 3.47705 3.56858 3.55824 3.48467 3.66967C3.40075 3.7811 3.35526 3.91674 3.35501 4.05623C3.35501 4.30495 3.49565 4.5201 3.70193 4.62818L1.49114 10.0096C1.32672 9.96889 1.1552 9.96618 0.989573 10.0016C0.82395 10.0371 0.668574 10.1098 0.535225 10.2142C0.401876 10.3187 0.294053 10.4521 0.219931 10.6044C0.14581 10.7567 0.107334 10.9239 0.107422 11.0933C0.107422 11.2398 0.136286 11.3848 0.192364 11.5202C0.248442 11.6555 0.330636 11.7785 0.43425 11.882C0.537864 11.9856 0.660868 12.0677 0.796235 12.1238C0.931602 12.1798 1.07668 12.2086 1.22318 12.2085C1.50075 12.2088 1.76836 12.1051 1.97327 11.9179L4.79005 14.3063C4.80453 14.3188 4.82135 14.3283 4.83954 14.3342C4.85772 14.3401 4.8769 14.3424 4.89596 14.3408C4.91503 14.3393 4.93359 14.3339 4.95056 14.3251C4.96754 14.3163 4.98259 14.3042 4.99485 14.2895C5.00728 14.275 5.01671 14.2582 5.0226 14.24C5.02849 14.2218 5.03073 14.2027 5.02916 14.1836C5.0276 14.1646 5.02229 14.146 5.01351 14.1291C5.00474 14.1121 4.9927 14.097 4.97807 14.0847L2.1603 11.6963C2.24318 11.5679 2.29877 11.4238 2.3236 11.273C2.34842 11.1222 2.34196 10.9679 2.30461 10.8197C2.26725 10.6715 2.19981 10.5325 2.10648 10.4115C2.01314 10.2905 1.89591 10.1899 1.76206 10.1162L3.98765 4.70121L4.00098 4.7017C4.16383 4.7017 4.31187 4.64051 4.42537 4.54083L7.43806 6.56311C7.36404 6.71214 7.3216 6.88042 7.3216 7.05856C7.3216 7.1997 7.34776 7.33491 7.39661 7.45976L2.83735 10.0204C2.80946 10.0362 2.78756 10.0607 2.77508 10.0902C2.7626 10.1197 2.76023 10.1525 2.76834 10.1835C2.77645 10.2145 2.79459 10.2419 2.81993 10.2615C2.84527 10.2811 2.87638 10.2918 2.90841 10.2918C2.93309 10.2918 2.95727 10.2864 2.97997 10.2736L7.53577 7.71489C7.6547 7.87873 7.81755 8.0095 8.00803 8.08846L6.34994 14.2007C6.19515 14.1858 6.03895 14.2034 5.89137 14.2524C5.74379 14.3014 5.60809 14.3807 5.49298 14.4853C5.37787 14.5898 5.2859 14.7173 5.22298 14.8595C5.16005 15.0017 5.12756 15.1555 5.12759 15.311C5.12759 15.6091 5.24603 15.8795 5.43602 16.0794L4.62918 17.1892C4.61795 17.2046 4.60987 17.2221 4.60541 17.2407C4.60095 17.2592 4.60018 17.2784 4.60316 17.2973C4.60614 17.3161 4.61281 17.3342 4.62277 17.3504C4.63274 17.3667 4.64582 17.3808 4.66125 17.392C4.67669 17.4033 4.6942 17.4115 4.7128 17.416C4.73139 17.4205 4.75069 17.4213 4.76958 17.4183C4.78848 17.4153 4.8066 17.4086 4.8229 17.3986C4.8392 17.3886 4.85336 17.3755 4.86457 17.36L5.66252 16.2625C5.84406 16.3741 6.05389 16.4311 6.26696 16.4268C6.48003 16.4224 6.68735 16.3568 6.86415 16.2378L10.2193 20.1476C10.2318 20.1621 10.247 20.174 10.2641 20.1826C10.2812 20.1912 10.2998 20.1964 10.3189 20.1977C10.338 20.1991 10.3571 20.1967 10.3753 20.1906C10.3934 20.1846 10.4102 20.175 10.4246 20.1624C10.4535 20.1373 10.4714 20.1017 10.4743 20.0635C10.4773 20.0253 10.4651 19.9874 10.4404 19.9581L7.08226 16.0458C7.21846 15.8919 7.31124 15.6994 7.34529 15.4872L14.7657 16.0527C14.783 16.1652 14.8279 16.2674 14.895 16.3528L11.4417 20.6322C11.3262 20.576 11.1966 20.5558 11.0695 20.574C10.9424 20.5922 10.8236 20.648 10.7286 20.7344L4.64398 18.2147V18.2058C4.64398 17.8579 4.36763 17.5741 4.02318 17.5623L2.04729 12.7706C2.03071 12.7378 2.00237 12.7125 1.96794 12.6996C1.9335 12.6868 1.89549 12.6874 1.86149 12.7014C1.82749 12.7153 1.8 12.7416 1.7845 12.7749C1.769 12.8082 1.76662 12.8461 1.77785 12.8811L3.73203 17.62C3.5985 17.6813 3.48991 17.7863 3.42426 17.9178C3.3586 18.0492 3.33983 18.1991 3.37104 18.3427C3.40225 18.4863 3.48158 18.6149 3.59588 18.7072C3.71017 18.7995 3.85258 18.85 3.9995 18.8503C4.24969 18.8503 4.46633 18.7076 4.57341 18.4999L10.5593 20.9786C10.5215 21.0764 10.508 21.1819 10.5201 21.286C10.5322 21.3901 10.5695 21.4897 10.6287 21.5761C10.688 21.6626 10.7674 21.7333 10.8601 21.7822C10.9528 21.831 11.0561 21.8566 11.1609 21.8565C11.5162 21.8565 11.8049 21.5674 11.8049 21.2116C11.8049 21.0615 11.754 20.9239 11.6677 20.8143L15.121 16.5358C15.2193 16.5834 15.328 16.6052 15.437 16.5992C15.546 16.5933 15.6517 16.5597 15.7442 16.5018C15.8367 16.4439 15.913 16.3634 15.9659 16.2679C16.0188 16.1725 16.0467 16.0652 16.0468 15.956C16.0468 15.7438 15.9447 15.5573 15.7877 15.4393L18.1658 10.0194C18.1806 10.0204 18.1959 10.0219 18.2107 10.0219C18.2721 10.0221 18.3329 10.0098 18.3894 9.98579C18.4459 9.96179 18.4969 9.92656 18.5394 9.88226L19.9803 10.6827C19.9287 10.8132 19.9024 10.9524 19.9029 11.0928C19.9029 11.3346 19.9794 11.5571 20.1101 11.7402L16.4253 14.8896C16.4108 14.902 16.3989 14.9171 16.3902 14.9342C16.3816 14.9512 16.3764 14.9698 16.375 14.9888C16.3736 15.0078 16.3759 15.027 16.3819 15.0451C16.388 15.0632 16.3975 15.08 16.41 15.0944C16.4223 15.109 16.4374 15.121 16.4543 15.1297C16.4713 15.1384 16.4898 15.1437 16.5088 15.1452C16.5278 15.1467 16.5469 15.1444 16.565 15.1385C16.5831 15.1326 16.5999 15.1231 16.6143 15.1107L20.308 11.9529C20.3835 12.0151 20.4664 12.0674 20.5567 12.1083L18.4989 17.054C18.3709 17.0046 18.2349 16.9795 18.0977 16.98C17.8036 16.98 17.5352 17.0935 17.3368 17.28L16.3873 16.5398C16.3723 16.528 16.3551 16.5194 16.3367 16.5143C16.3183 16.5092 16.2991 16.5078 16.2802 16.5101C16.2613 16.5124 16.243 16.5185 16.2264 16.5279C16.2098 16.5373 16.1952 16.5499 16.1835 16.565C16.1598 16.5954 16.1491 16.6339 16.1538 16.6722C16.1584 16.7105 16.1779 16.7454 16.2082 16.7693L17.1517 17.5045C17.0633 17.6466 17.0078 17.8068 16.9895 17.9731C16.9711 18.1395 16.9903 18.3079 17.0456 18.4658L12.7662 20.2434C12.7352 20.2563 12.7097 20.2796 12.694 20.3093C12.6782 20.3389 12.6732 20.3731 12.6797 20.406C12.6863 20.439 12.704 20.4686 12.73 20.4899C12.7559 20.5113 12.7884 20.523 12.8219 20.5232C12.8409 20.5232 12.8598 20.5194 12.8772 20.5118L17.1774 18.7254C17.3119 18.9223 17.5059 19.0708 17.731 19.1493C17.9561 19.2278 18.2005 19.2321 18.4282 19.1616C18.6559 19.091 18.8551 18.9494 18.9964 18.7574C19.1377 18.5654 19.2138 18.3331 19.2135 18.0947C19.2135 17.7246 19.0334 17.3965 18.755 17.1941L20.8365 12.1932C20.9962 12.2197 21.1598 12.211 21.3158 12.1679C21.4718 12.1247 21.6166 12.0481 21.7401 11.9434C21.8635 11.8387 21.9627 11.7084 22.0307 11.5615C22.0987 11.4146 22.1339 11.2546 22.1339 11.0928C22.1339 10.7968 22.0163 10.513 21.8071 10.3038C21.5978 10.0946 21.314 9.977 21.0181 9.977C20.651 9.977 20.3248 10.1547 20.122 10.429L18.6637 9.61824C18.675 9.52129 18.6549 9.42327 18.6063 9.33862C18.5577 9.25396 18.4832 9.18713 18.3938 9.14796L18.3257 4.68197L18.3262 4.68098L20.2769 9.4554C20.288 9.48215 20.3067 9.50502 20.3308 9.5211C20.3549 9.53718 20.3832 9.54574 20.4121 9.5457C20.436 9.54568 20.4595 9.53979 20.4805 9.52858C20.5015 9.51736 20.5195 9.50114 20.5328 9.48136C20.5461 9.46157 20.5543 9.43882 20.5568 9.41511C20.5592 9.39139 20.5558 9.36744 20.5469 9.34535L18.5863 4.54873C18.6874 4.46355 18.7599 4.34931 18.7939 4.22152C18.828 4.09373 18.8218 3.95857 18.7764 3.83437C18.731 3.71018 18.6485 3.60296 18.54 3.52727C18.4316 3.45158 18.3025 3.41107 18.1703 3.41126C17.9669 3.41126 17.7853 3.5065 17.6669 3.65454L12.2638 1.42648C12.288 1.26768 12.2775 1.10553 12.2332 0.951123C12.1889 0.796721 12.1118 0.65371 12.0071 0.531875C11.9024 0.41004 11.7727 0.312256 11.6267 0.245214C11.4807 0.178171 11.3215 0.143452 11.1609 0.143433ZM11.0637 1.72504C10.9566 1.7028 10.8604 1.64433 10.7914 1.55947C10.7223 1.47462 10.6847 1.36858 10.6847 1.25919C10.6847 1.14143 10.7284 1.02786 10.8074 0.940475C10.8863 0.853087 10.9949 0.798085 11.112 0.786111C11.2292 0.774138 11.3466 0.806045 11.4416 0.875657C11.5366 0.94527 11.6024 1.04764 11.6262 1.16296C11.6464 1.261 11.6351 1.3629 11.594 1.45416C11.5529 1.54542 11.484 1.62138 11.3973 1.67125C11.3254 1.71287 11.2439 1.73532 11.1609 1.7354C11.1282 1.73534 11.0957 1.73204 11.0637 1.72553V1.72504ZM17.6205 8.75959C17.635 8.74719 17.6469 8.73205 17.6556 8.71504C17.6642 8.69804 17.6694 8.67949 17.6709 8.66047C17.6724 8.64144 17.6701 8.62232 17.6641 8.60419C17.6582 8.58605 17.6487 8.56927 17.6363 8.55479L12.0269 1.9624C12.0891 1.88492 12.1424 1.79955 12.1824 1.70678L17.5416 3.91757C17.5232 4.0005 17.5214 4.08624 17.5363 4.16987C17.5512 4.25349 17.5825 4.33335 17.6283 4.40484C17.6742 4.47634 17.7337 4.53806 17.8035 4.58647C17.8733 4.63488 17.952 4.66901 18.035 4.6869L18.1031 9.12328C17.9908 9.15075 17.8931 9.2199 17.8298 9.31673L10.1927 7.34083C10.1564 7.33406 10.1189 7.34131 10.0878 7.36112C10.0566 7.38094 10.0342 7.41184 10.025 7.44758C10.0157 7.48332 10.0204 7.52122 10.0381 7.55362C10.0558 7.58602 10.0851 7.61051 10.1201 7.62212L17.7572 9.5985C17.7656 9.71694 17.8194 9.82304 17.9003 9.89903L15.5213 15.3224C15.3894 15.2977 15.2532 15.3146 15.1314 15.3707L9.25506 7.81507C9.36644 7.6952 9.45002 7.55225 9.49984 7.39639C9.54966 7.24053 9.56449 7.07561 9.54329 6.91336C9.52208 6.75111 9.46536 6.59554 9.37715 6.45772C9.28895 6.3199 9.17144 6.20323 9.03299 6.11602L10.7922 2.31228C10.9072 2.35274 11.0316 2.37445 11.1609 2.37445C11.4056 2.37445 11.6312 2.29599 11.8147 2.16226L17.4152 8.74232C17.4289 8.75839 17.446 8.7713 17.4651 8.78016C17.4843 8.78902 17.5052 8.79362 17.5263 8.79364C17.5606 8.79342 17.5938 8.7812 17.62 8.7591L17.6205 8.75959ZM8.17828 7.45828C8.12298 7.42242 8.07571 7.3755 8.03944 7.32046C8.00317 7.26542 7.9787 7.20347 7.96757 7.13851C7.95559 7.06795 7.95964 6.99559 7.97941 6.92681C8.00722 6.83149 8.06395 6.74717 8.14177 6.68549C8.22562 6.61875 8.3297 6.58255 8.43687 6.58285C8.55644 6.58241 8.67169 6.62759 8.75911 6.70918C8.83849 6.7819 8.89074 6.87949 8.90724 6.98588C8.92375 7.09226 8.90353 7.20109 8.84991 7.29445C8.80049 7.38081 8.72525 7.44949 8.63475 7.49085C8.5794 7.51663 8.51957 7.53138 8.45858 7.53428H8.43687C8.34512 7.5346 8.25527 7.50819 8.17828 7.45828ZM9.032 8.0016L14.9019 15.5499C14.8505 15.6135 14.8114 15.6861 14.7865 15.764L7.35318 15.1965C7.33166 14.9898 7.25286 14.7932 7.12566 14.6289C6.99846 14.4646 6.8279 14.339 6.6332 14.2663L8.28784 8.16396C8.54731 8.20015 8.81118 8.14258 9.032 8.0016ZM20.6002 11.3212C20.5618 11.2514 20.5418 11.1729 20.5419 11.0933C20.5419 11.0281 20.5553 10.9636 20.5813 10.9038C20.6073 10.8441 20.6453 10.7903 20.6929 10.7458C20.7607 10.6826 20.8455 10.6406 20.9368 10.6249C21.0282 10.6091 21.1221 10.6204 21.2071 10.6573C21.2922 10.6942 21.3646 10.7551 21.4155 10.8325C21.4664 10.91 21.4937 11.0006 21.4938 11.0933C21.4937 11.2053 21.454 11.3138 21.3818 11.3995C21.3096 11.4852 21.2095 11.5428 21.0991 11.5621C21.0012 11.5787 20.9005 11.5645 20.8111 11.5214C20.7217 11.4782 20.648 11.4083 20.6002 11.3212ZM0.747465 11.0933C0.747465 10.8302 0.960155 10.617 1.22318 10.617L1.24193 10.6175C1.36482 10.6224 1.48106 10.6746 1.56625 10.7633C1.65145 10.852 1.69899 10.9703 1.69889 11.0933C1.69875 11.174 1.67812 11.2534 1.63894 11.324C1.59976 11.3946 1.5433 11.4541 1.47485 11.4969C1.4028 11.5417 1.32011 11.5663 1.23533 11.5684C1.15055 11.5705 1.06675 11.5499 0.992597 11.5087C0.918443 11.4676 0.856624 11.4074 0.813529 11.3343C0.770434 11.2613 0.747627 11.1781 0.747465 11.0933ZM5.76763 15.3115C5.76763 15.0717 5.94578 14.8728 6.17722 14.8407C6.27598 14.8267 6.37664 14.8442 6.46492 14.8906H6.46443C6.56756 14.9449 6.6485 15.0357 6.68995 15.1462C6.70919 15.1975 6.71956 15.2533 6.71956 15.3115C6.71925 15.395 6.69713 15.477 6.6554 15.5494C6.60552 15.6353 6.53016 15.7036 6.43975 15.7448C6.36727 15.7772 6.28783 15.7911 6.20864 15.7851C6.12945 15.779 6.05302 15.7533 5.98627 15.7103C5.91952 15.6673 5.86457 15.6083 5.82639 15.5386C5.78821 15.469 5.76802 15.3909 5.76763 15.3115ZM17.8011 18.4678C17.7219 18.4047 17.665 18.3179 17.6388 18.2201C17.6093 18.1151 17.6177 18.0032 17.6625 17.9038C17.6995 17.8193 17.7603 17.7474 17.8375 17.697C17.9147 17.6466 18.005 17.6199 18.0972 17.62C18.1748 17.6201 18.2517 17.6391 18.3203 17.6755C18.3889 17.7119 18.4475 17.7645 18.491 17.8288C18.5393 17.9003 18.5672 17.9837 18.5718 18.0699C18.5764 18.1561 18.5575 18.2419 18.5171 18.3182C18.4767 18.3945 18.4164 18.4584 18.3425 18.5031C18.2687 18.5478 18.184 18.5716 18.0977 18.5719C17.99 18.572 17.8851 18.5352 17.8011 18.4678Z" fill="#606060"/>
</svg>
