<svg width="17" height="16" viewBox="0 0 17 16" fill="none" xmlns="http://www.w3.org/2000/svg">
<path d="M14.06 6.21334L4.72671 1.54667C4.35837 1.36334 3.94245 1.29808 3.53567 1.35977C3.12888 1.42147 2.75102 1.60712 2.4536 1.89141C2.15618 2.17571 1.95368 2.54482 1.8737 2.94841C1.79373 3.352 1.84018 3.77044 2.00671 4.14667L3.60671 7.72667C3.64301 7.81323 3.66171 7.90615 3.66171 8C3.66171 8.09386 3.64301 8.18678 3.60671 8.27334L2.00671 11.8533C1.87118 12.1578 1.81388 12.4913 1.84003 12.8236C1.86618 13.1558 1.97494 13.4763 2.15643 13.7558C2.33792 14.0353 2.58639 14.2651 2.87926 14.4241C3.17212 14.5832 3.5001 14.6666 3.83338 14.6667C4.14553 14.6636 4.45304 14.5907 4.73338 14.4533L14.0667 9.78667C14.3978 9.62013 14.6761 9.36487 14.8705 9.04939C15.065 8.73391 15.1679 8.3706 15.1679 8C15.1679 7.62941 15.065 7.2661 14.8705 6.95062C14.6761 6.63513 14.3978 6.37988 14.0667 6.21334H14.06ZM13.4667 8.59334L4.13338 13.26C4.01082 13.3189 3.8732 13.3388 3.73897 13.3172C3.60474 13.2957 3.48032 13.2335 3.38238 13.1392C3.28445 13.0449 3.2177 12.9229 3.19106 12.7896C3.16443 12.6563 3.17919 12.518 3.23338 12.3933L4.82671 8.81334C4.84734 8.76553 4.86514 8.71656 4.88004 8.66667H9.47338C9.65019 8.66667 9.81976 8.59643 9.94478 8.47141C10.0698 8.34639 10.14 8.17682 10.14 8C10.14 7.82319 10.0698 7.65362 9.94478 7.5286C9.81976 7.40358 9.65019 7.33334 9.47338 7.33334H4.88004C4.86514 7.28345 4.84734 7.23448 4.82671 7.18667L3.23338 3.60667C3.17919 3.48198 3.16443 3.3437 3.19106 3.21038C3.2177 3.07706 3.28445 2.95507 3.38238 2.86077C3.48032 2.76647 3.60474 2.70436 3.73897 2.68277C3.8732 2.66119 4.01082 2.68116 4.13338 2.74L13.4667 7.40667C13.5759 7.46262 13.6676 7.54761 13.7315 7.6523C13.7955 7.75699 13.8294 7.87731 13.8294 8C13.8294 8.1227 13.7955 8.24302 13.7315 8.34771C13.6676 8.4524 13.5759 8.53739 13.4667 8.59334Z" fill="white"/>
</svg>
