<svg width="147" height="147" viewBox="0 0 147 147" fill="none" xmlns="http://www.w3.org/2000/svg">
<g filter="url(#filter0_dd_9_2469)">
<path d="M61.264 80.0727L80.4894 68.9125L80.4826 71.6713L61.2549 82.8315L61.264 80.0727Z" fill="#32BF73"/>
<path d="M61.3028 66.2695L80.5282 55.1093L80.5214 57.8704L61.2937 69.0306L61.3028 66.2695Z" fill="#32BF73"/>
<path d="M61.2937 69.0306L80.5214 57.8704L85.3317 60.6451L66.104 71.8053L61.2937 69.0306Z" fill="#43FF99"/>
<path d="M42.0774 49.6552L61.3051 38.495L70.9553 33L51.7299 44.1602L42.0774 49.6552Z" fill="#085A2D"/>
<path d="M85.3068 96.7028L104.534 85.5426L104.487 102.105L85.259 113.265L85.3068 96.7028Z" fill="#32BF73"/>
<path d="M61.2549 82.8315L80.4826 71.6713L104.534 85.5426L85.3066 96.7028L61.2549 82.8315Z" fill="#43FF99"/>
<path d="M85.3702 74.6186L104.596 63.4584L104.541 82.7815L85.3157 93.9417L85.3702 74.6186Z" fill="#32BF73"/>
<path d="M51.7297 44.1602L70.9552 33L95.0068 46.8691L75.7791 58.0293L51.7297 44.1602Z" fill="#43FF99"/>
<path d="M85.3157 93.9417L61.2641 80.0726L61.2572 82.8337L85.3089 96.7028L85.2612 113.265L51.5888 93.8463L42 77.257L42.0773 49.6528L51.7298 44.1602L75.7792 58.0292L85.3703 74.6185L85.3157 93.9417ZM61.3027 66.2694L61.2959 69.0305L66.1062 71.8052L66.113 69.0441L61.3027 66.2694Z" fill="#22804D"/>
<path d="M75.7793 58.0293L95.007 46.8691L104.596 63.4584L85.3704 74.6186L75.7793 58.0293Z" fill="#72FFB3"/>
</g>
<defs>
<filter id="filter0_dd_9_2469" x="30" y="25" width="86.5959" height="104.265" filterUnits="userSpaceOnUse" color-interpolation-filters="sRGB">
<feFlood flood-opacity="0" result="BackgroundImageFix"/>
<feColorMatrix in="SourceAlpha" type="matrix" values="0 0 0 0 0 0 0 0 0 0 0 0 0 0 0 0 0 0 127 0" result="hardAlpha"/>
<feOffset dy="4"/>
<feGaussianBlur stdDeviation="6"/>
<feComposite in2="hardAlpha" operator="out"/>
<feColorMatrix type="matrix" values="0 0 0 0 0 0 0 0 0 0 0 0 0 0 0 0 0 0 0.2 0"/>
<feBlend mode="multiply" in2="BackgroundImageFix" result="effect1_dropShadow_9_2469"/>
<feColorMatrix in="SourceAlpha" type="matrix" values="0 0 0 0 0 0 0 0 0 0 0 0 0 0 0 0 0 0 127 0" result="hardAlpha"/>
<feOffset/>
<feGaussianBlur stdDeviation="2"/>
<feComposite in2="hardAlpha" operator="out"/>
<feColorMatrix type="matrix" values="0 0 0 0 0.262745 0 0 0 0 1 0 0 0 0 0.6 0 0 0 1 0"/>
<feBlend mode="normal" in2="effect1_dropShadow_9_2469" result="effect2_dropShadow_9_2469"/>
<feBlend mode="normal" in="SourceGraphic" in2="effect2_dropShadow_9_2469" result="shape"/>
</filter>
</defs>
</svg>
