<svg width="147" height="147" viewBox="0 0 147 147" fill="none" xmlns="http://www.w3.org/2000/svg">
<g filter="url(#filter0_d_9_2506)">
<path d="M43.0378 87.503L61.8487 76.5847L85.3768 90.1531L66.5681 101.071L43.0378 87.503Z" fill="#FF72F9"/>
<path d="M61.9309 74.0499L80.7396 63.1316L85.4456 65.8462L66.637 76.7644L61.9309 74.0499Z" fill="#FF72F9"/>
<path d="M61.962 63.2493L80.7707 52.3311L80.7396 63.1316L61.9309 74.0499L61.962 63.2493Z" fill="#FF43F7"/>
<path d="M43.1602 44.2919L61.971 33.3736L71.4121 28L52.6034 38.9183L43.1602 44.2919Z" fill="#80227C"/>
<path d="M52.6034 38.9182L85.5458 57.9158L85.3856 114.626L75.9424 120L43 101.002L43.0378 87.5006L66.5659 101.069L66.5814 95.6666L52.4633 87.5251L43.0823 71.2954L43.1579 44.2896L52.6012 38.916L52.6034 38.9182ZM66.637 76.7645L66.6682 65.9618L61.9621 63.2472L61.931 74.05L66.637 76.7645Z" fill="#BF32BA"/>
<path d="M52.6033 38.9183L71.4119 28L104.354 46.9976L85.5457 57.9158L52.6033 38.9183Z" fill="#FF72F9"/>
<path d="M85.5457 57.9158L104.354 46.9976L104.194 103.708L85.3833 114.626L85.5457 57.9158Z" fill="#FF43F7"/>
</g>
<defs>
<filter id="filter0_d_9_2506" x="31" y="20" width="85.3542" height="116" filterUnits="userSpaceOnUse" color-interpolation-filters="sRGB">
<feFlood flood-opacity="0" result="BackgroundImageFix"/>
<feColorMatrix in="SourceAlpha" type="matrix" values="0 0 0 0 0 0 0 0 0 0 0 0 0 0 0 0 0 0 127 0" result="hardAlpha"/>
<feOffset dy="4"/>
<feGaussianBlur stdDeviation="6"/>
<feComposite in2="hardAlpha" operator="out"/>
<feColorMatrix type="matrix" values="0 0 0 0 0 0 0 0 0 0 0 0 0 0 0 0 0 0 0.2 0"/>
<feBlend mode="multiply" in2="BackgroundImageFix" result="effect1_dropShadow_9_2506"/>
<feBlend mode="normal" in="SourceGraphic" in2="effect1_dropShadow_9_2506" result="shape"/>
</filter>
</defs>
</svg>
