<svg width="24" height="24" viewBox="0 0 24 24" fill="none" xmlns="http://www.w3.org/2000/svg">
<path d="M21.6 7.43031C21.6007 7.30397 21.5765 7.17872 21.5287 7.06176C21.481 6.9448 21.4106 6.83841 21.3216 6.74871L17.2512 2.67832C17.1615 2.58934 17.0551 2.51895 16.9382 2.47118C16.8212 2.4234 16.696 2.39919 16.5696 2.39992C16.4433 2.39919 16.318 2.4234 16.2011 2.47118C16.0841 2.51895 15.9777 2.58934 15.888 2.67832L13.1712 5.39511L2.67844 15.8879C2.58947 15.9776 2.51907 16.084 2.4713 16.2009C2.42353 16.3179 2.39931 16.4432 2.40004 16.5695V20.6399C2.40004 20.8945 2.50118 21.1387 2.68122 21.3187C2.86125 21.4987 3.10543 21.5999 3.36004 21.5999H7.43043C7.56476 21.6072 7.69913 21.5862 7.82482 21.5382C7.95051 21.4903 8.06471 21.4164 8.16003 21.3215L18.5952 10.8287L21.3216 8.15991C21.4092 8.06687 21.4806 7.95978 21.5328 7.84311C21.5421 7.76659 21.5421 7.68923 21.5328 7.61271C21.5373 7.56802 21.5373 7.523 21.5328 7.47831L21.6 7.43031ZM7.03683 19.6799H4.32004V16.9631L13.8528 7.43031L16.5696 10.1471L7.03683 19.6799ZM17.9232 8.79351L15.2064 6.07671L16.5696 4.72311L19.2768 7.43031L17.9232 8.79351Z" fill="white"/>
</svg>
