<svg width="24" height="24" viewBox="0 0 24 24" fill="none" xmlns="http://www.w3.org/2000/svg">
<g clip-path="url(#clip0_141_2268)">
<path fill-rule="evenodd" clip-rule="evenodd" d="M20.7773 10.209C19.998 6.81151 17.2541 4.16326 13.8068 3.52351L13.9433 2.78589C17.6861 3.48076 20.6625 6.35401 21.5081 10.041L20.7773 10.209ZM10.209 3.59776C6.93113 4.34964 4.34963 6.93114 3.59775 10.209L2.86688 10.041C3.68288 6.48301 6.483 3.68289 10.041 2.86726L10.209 3.59776ZM3.5235 13.8068C4.16326 17.2541 6.81188 19.998 10.209 20.7773L10.041 21.5081C6.354 20.6625 3.48075 17.6861 2.78625 13.9436L3.52388 13.8068H3.5235ZM13.8068 20.8515C17.3753 20.1893 20.1893 17.3753 20.8515 13.8068L21.5891 13.9433C20.8699 17.817 17.817 20.8699 13.9433 21.5891L13.8068 20.8515Z" fill="white"/>
<path fill-rule="evenodd" clip-rule="evenodd" d="M10.9393 1.93934C11.2206 1.65804 11.6022 1.5 12 1.5C12.3978 1.5 12.7794 1.65804 13.0607 1.93934C13.342 2.22064 13.5 2.60218 13.5 3C13.5 3.39782 13.342 3.77936 13.0607 4.06066C12.7794 4.34196 12.3978 4.5 12 4.5C11.6022 4.5 11.2206 4.34196 10.9393 4.06066C10.658 3.77936 10.5 3.39782 10.5 3C10.5 2.60218 10.658 2.22064 10.9393 1.93934ZM10.409 1.40901C9.98705 1.83097 9.75 2.40326 9.75 3C9.75 3.59674 9.98705 4.16903 10.409 4.59099C10.831 5.01295 11.4033 5.25 12 5.25C12.5967 5.25 13.169 5.01295 13.591 4.59099C14.0129 4.16903 14.25 3.59674 14.25 3C14.25 2.40326 14.0129 1.83097 13.591 1.40901C13.169 0.987053 12.5967 0.75 12 0.75C11.4033 0.75 10.831 0.987053 10.409 1.40901ZM10.9393 20.3143C11.2206 20.033 11.6022 19.875 12 19.875C12.3978 19.875 12.7794 20.033 13.0607 20.3143C13.342 20.5956 13.5 20.9772 13.5 21.375C13.5 21.7728 13.342 22.1544 13.0607 22.4357C12.7794 22.717 12.3978 22.875 12 22.875C11.6022 22.875 11.2206 22.717 10.9393 22.4357C10.658 22.1544 10.5 21.7728 10.5 21.375C10.5 20.9772 10.658 20.5956 10.9393 20.3143ZM10.409 19.784C9.98705 20.206 9.75 20.7783 9.75 21.375C9.75 21.9717 9.98705 22.544 10.409 22.966C10.831 23.3879 11.4033 23.625 12 23.625C12.5967 23.625 13.169 23.3879 13.591 22.966C14.0129 22.544 14.25 21.9717 14.25 21.375C14.25 20.7783 14.0129 20.206 13.591 19.784C13.169 19.3621 12.5967 19.125 12 19.125C11.4033 19.125 10.831 19.3621 10.409 19.784ZM1.93934 10.9393C2.22064 10.658 2.60218 10.5 3 10.5C3.39782 10.5 3.77936 10.658 4.06066 10.9393C4.34196 11.2206 4.5 11.6022 4.5 12C4.5 12.3978 4.34196 12.7794 4.06066 13.0607C3.77936 13.342 3.39782 13.5 3 13.5C2.60218 13.5 2.22064 13.342 1.93934 13.0607C1.65804 12.7794 1.5 12.3978 1.5 12C1.5 11.6022 1.65804 11.2206 1.93934 10.9393ZM0.921271 11.139C0.808198 11.4119 0.75 11.7045 0.75 12C0.75 12.5967 0.987053 13.169 1.40901 13.591C1.83097 14.0129 2.40326 14.25 3 14.25C3.59674 14.25 4.16903 14.0129 4.59099 13.591C5.01295 13.169 5.25 12.5967 5.25 12C5.25 11.7045 5.1918 11.4119 5.07873 11.139C4.96566 10.866 4.79992 10.6179 4.59099 10.409C4.38206 10.2001 4.13402 10.0343 3.86104 9.92127C3.58806 9.8082 3.29547 9.75 3 9.75C2.70453 9.75 2.41194 9.8082 2.13896 9.92127C1.86598 10.0343 1.61794 10.2001 1.40901 10.409C1.20008 10.6179 1.03434 10.866 0.921271 11.139ZM20.3143 10.9393C20.5956 10.658 20.9772 10.5 21.375 10.5C21.7728 10.5 22.1544 10.658 22.4357 10.9393C22.717 11.2206 22.875 11.6022 22.875 12C22.875 12.3978 22.717 12.7794 22.4357 13.0607C22.1544 13.342 21.7728 13.5 21.375 13.5C20.9772 13.5 20.5956 13.342 20.3143 13.0607C20.033 12.7794 19.875 12.3978 19.875 12C19.875 11.6022 20.033 11.2206 20.3143 10.9393ZM19.784 10.409C19.3621 10.831 19.125 11.4033 19.125 12C19.125 12.5967 19.3621 13.169 19.784 13.591C20.206 14.0129 20.7783 14.25 21.375 14.25C21.9717 14.25 22.544 14.0129 22.966 13.591C23.3879 13.169 23.625 12.5967 23.625 12C23.625 11.4033 23.3879 10.831 22.966 10.409C22.544 9.98705 21.9717 9.75 21.375 9.75C20.7783 9.75 20.206 9.98705 19.784 10.409Z" fill="white"/>
</g>
<defs>
<clipPath id="clip0_141_2268">
<rect width="24" height="24" fill="white"/>
</clipPath>
</defs>
</svg>
