<svg width="24" height="24" viewBox="0 0 24 24" fill="none" xmlns="http://www.w3.org/2000/svg">
<path d="M21.6 2.15991H17.76C17.6712 2.15991 17.5896 2.20791 17.5488 2.28711C17.508 2.36631 17.5128 2.45991 17.5608 2.53431L18.432 3.83991L17.5608 5.14791C17.5128 5.22231 17.508 5.31591 17.5488 5.39511C17.5896 5.47431 17.6712 5.51991 17.76 5.51991H21.36V7.43991H16.536C16.4256 6.89271 15.9408 6.47991 15.36 6.47991C14.7792 6.47991 14.2968 6.89271 14.184 7.43991H5.28003C3.55923 7.43991 2.16003 8.83911 2.16003 10.5599C2.16003 11.3951 2.48403 12.1775 3.07203 12.7679C3.66243 13.3559 4.44723 13.6799 5.28003 13.6799H7.46403C7.57443 14.2271 8.05923 14.6399 8.64003 14.6399C9.22083 14.6399 9.70323 14.2271 9.81603 13.6799H18.72C20.1768 13.6799 21.36 14.8631 21.36 16.3199C21.36 17.0255 21.0864 17.6903 20.5872 18.1871C20.0904 18.6863 19.4256 18.9599 18.72 18.9599H16.536C16.4256 18.4127 15.9408 17.9999 15.36 17.9999C14.7792 17.9999 14.2968 18.4127 14.184 18.9599H7.42803C7.30563 17.6159 6.17523 16.5599 4.80003 16.5599C3.34323 16.5599 2.16003 17.7431 2.16003 19.1999C2.16003 20.6567 3.34323 21.8399 4.80003 21.8399C6.17523 21.8399 7.30563 20.7839 7.42803 19.4399H14.184C14.2944 19.9871 14.7792 20.3999 15.36 20.3999C15.9408 20.3999 16.4232 19.9871 16.536 19.4399H18.72C19.5552 19.4399 20.34 19.1159 20.928 18.5279C21.516 17.9399 21.84 17.1551 21.84 16.3199C21.84 14.5991 20.4408 13.1999 18.72 13.1999H9.81603C9.70563 12.6527 9.22083 12.2399 8.64003 12.2399C8.05923 12.2399 7.57683 12.6527 7.46403 13.1999H5.28003C4.57683 13.1999 3.91203 12.9263 3.41283 12.4271C2.91363 11.9303 2.64003 11.2655 2.64003 10.5599C2.64003 9.10311 3.82323 7.91991 5.28003 7.91991H14.184C14.2944 8.46711 14.7792 8.87991 15.36 8.87991C15.9408 8.87991 16.4232 8.46711 16.536 7.91991H21.6C21.732 7.91991 21.84 7.81191 21.84 7.67991V5.27991V2.39991C21.84 2.26791 21.732 2.15991 21.6 2.15991ZM4.80003 21.3599C3.60963 21.3599 2.64003 20.3903 2.64003 19.1999C2.64003 18.0095 3.60963 17.0399 4.80003 17.0399C5.99043 17.0399 6.96003 18.0095 6.96003 19.1999C6.96003 20.3903 5.99043 21.3599 4.80003 21.3599ZM15.36 19.9199C14.964 19.9199 14.64 19.5959 14.64 19.1999C14.64 18.8039 14.964 18.4799 15.36 18.4799C15.756 18.4799 16.08 18.8039 16.08 19.1999C16.08 19.5959 15.756 19.9199 15.36 19.9199ZM8.64003 12.7199C9.03603 12.7199 9.36003 13.0439 9.36003 13.4399C9.36003 13.8359 9.03603 14.1599 8.64003 14.1599C8.24403 14.1599 7.92003 13.8359 7.92003 13.4399C7.92003 13.0439 8.24403 12.7199 8.64003 12.7199ZM18.2088 5.03991L18.9192 3.97191C18.972 3.89031 18.972 3.78711 18.9192 3.70551L18.2088 2.63991H21.36V5.03991H18.2088ZM15.36 8.39991C14.964 8.39991 14.64 8.07591 14.64 7.67991C14.64 7.28391 14.964 6.95991 15.36 6.95991C15.756 6.95991 16.08 7.28391 16.08 7.67991C16.08 8.07591 15.756 8.39991 15.36 8.39991Z" fill="white"/>
</svg>
