<svg width="24" height="24" viewBox="0 0 24 24" fill="none" xmlns="http://www.w3.org/2000/svg">
<path d="M14.2296 9.0521C14.2292 9.11745 14.2267 9.18277 14.2223 9.24797C14.2201 9.2802 14.2167 9.31233 14.2132 9.34446C14.2017 9.45343 14.2273 9.25465 14.2104 9.36242C14.1892 9.49753 14.1548 9.63031 14.1124 9.76022C14.1028 9.78987 14.092 9.81914 14.0813 9.84839C14.0749 9.86576 14.0348 9.96387 14.0763 9.86564C14.0523 9.92257 14.0251 9.97814 13.997 10.0332C13.9365 10.1517 13.8647 10.2642 13.7868 10.3719C13.7256 10.4564 13.8414 10.3043 13.7763 10.3858C13.7572 10.4097 13.7373 10.4329 13.7174 10.4561C13.6776 10.5025 13.6355 10.5467 13.5925 10.5901C13.5496 10.6336 13.5044 10.6747 13.4585 10.715C13.4355 10.7352 13.4119 10.7546 13.3882 10.7739C13.3528 10.802 13.3564 10.7994 13.3989 10.7662C13.3826 10.7784 13.3661 10.7905 13.3495 10.8023C13.25 10.8744 13.1442 10.9375 13.0355 10.9946C12.9808 11.0234 12.9247 11.0492 12.868 11.0739C12.9656 11.0313 12.8683 11.0722 12.8508 11.0789C12.8119 11.0937 12.7724 11.1068 12.7329 11.1197C12.6128 11.1589 12.4893 11.1869 12.3648 11.208C12.2573 11.2262 12.4557 11.1979 12.3469 11.2108C12.3148 11.2147 12.2826 11.2173 12.2504 11.2199C12.1743 11.226 12.0979 11.2275 12.0216 11.227C11.9565 11.2266 11.8914 11.2225 11.8264 11.2172C11.7943 11.2144 11.7622 11.211 11.7302 11.207C11.8394 11.22 11.732 11.2059 11.7128 11.2026C11.5782 11.1798 11.446 11.1439 11.3169 11.1C11.2874 11.09 11.2583 11.0789 11.2292 11.0678C11.1302 11.0301 11.3094 11.1038 11.2126 11.0615C11.156 11.0368 11.1009 11.009 11.0462 10.9803C10.9285 10.9183 10.8169 10.8453 10.7102 10.7661C10.7943 10.8286 10.7116 10.7663 10.6972 10.7545C10.6736 10.735 10.6504 10.7152 10.6276 10.6949C10.5817 10.6545 10.538 10.6118 10.4951 10.5684C10.4521 10.5249 10.4115 10.4792 10.3717 10.4329C10.3518 10.4097 10.3327 10.3858 10.3137 10.3619C10.3819 10.4473 10.2986 10.339 10.2866 10.3221C10.2157 10.2217 10.1539 10.1151 10.098 10.0057C10.0839 9.97819 10.0709 9.95018 10.0578 9.9222C10.0499 9.90521 10.01 9.80792 10.0502 9.90633C10.0227 9.83897 9.99927 9.77004 9.97756 9.70062C9.93981 9.57985 9.91328 9.45579 9.89368 9.33085C9.91074 9.43962 9.89445 9.33183 9.89239 9.31242C9.88917 9.2802 9.88655 9.24792 9.88454 9.2156C9.87931 9.13934 9.87885 9.06282 9.88027 8.98641C9.88149 8.92139 9.88632 8.85652 9.89239 8.79181C9.8942 8.77254 9.90943 8.66417 9.89368 8.77339C9.89823 8.74182 9.90395 8.71046 9.90967 8.6791C9.93411 8.54499 9.97166 8.41353 10.017 8.28509C10.0274 8.25577 10.0388 8.22682 10.0502 8.1979C10.0113 8.2966 10.0501 8.19928 10.0579 8.18203C10.0832 8.12581 10.1117 8.07099 10.141 8.01675C10.1703 7.96271 10.2024 7.91028 10.2354 7.85848C10.2519 7.83263 10.2693 7.80739 10.2867 7.78217C10.2983 7.76527 10.381 7.65598 10.3137 7.74232C10.3888 7.6459 10.4724 7.55628 10.5602 7.47146C10.6042 7.42901 10.6503 7.38893 10.6972 7.34972C10.7113 7.33791 10.7938 7.27453 10.7102 7.3381C10.7427 7.31339 10.7761 7.29003 10.8098 7.26687C10.9111 7.1971 11.0185 7.13649 11.1286 7.08188C11.1564 7.06832 11.1844 7.05526 11.2126 7.04271C11.309 6.99921 11.1307 7.07532 11.2292 7.03643C11.297 7.00967 11.3663 6.98707 11.4361 6.96619C11.4965 6.94812 11.5578 6.9334 11.6193 6.91981C11.6503 6.91296 11.6816 6.90727 11.7128 6.90157C11.7318 6.8981 11.8395 6.88285 11.7303 6.89719C11.8703 6.87879 12.0119 6.87448 12.1529 6.87889C12.2178 6.8809 12.2824 6.88655 12.3469 6.89339C12.4558 6.90497 12.2571 6.87933 12.3648 6.89623C12.3963 6.90115 12.4275 6.90725 12.4588 6.91334C12.5923 6.9394 12.7232 6.9785 12.8508 7.02535C12.8682 7.03172 12.9663 7.07185 12.8681 7.03029C12.8966 7.04234 12.9246 7.05542 12.9527 7.0685C13.0085 7.09453 13.0629 7.1236 13.1168 7.15357C13.1705 7.18346 13.2225 7.21617 13.2738 7.24978C13.2995 7.26657 13.3245 7.28424 13.3495 7.30191C13.3645 7.3125 13.4473 7.3759 13.3643 7.31128C13.4607 7.38642 13.5504 7.46996 13.6352 7.55782C13.6777 7.60177 13.7177 7.64794 13.757 7.69477C13.7688 7.70888 13.8321 7.79138 13.7686 7.70778C13.7871 7.73215 13.8047 7.75716 13.8224 7.78217C13.8933 7.8826 13.9552 7.98914 14.011 8.09855C14.0251 8.12607 14.0382 8.15405 14.0512 8.18206C14.0591 8.19905 14.099 8.29634 14.0588 8.19792C14.0824 8.2556 14.1028 8.31455 14.1221 8.37378C14.1613 8.49389 14.1893 8.61739 14.2104 8.74186C14.2286 8.84939 14.2003 8.651 14.2132 8.75982C14.217 8.7919 14.2197 8.8241 14.2223 8.85628C14.2276 8.92139 14.2292 8.98678 14.2296 9.0521C14.231 9.27568 14.4151 9.46226 14.6398 9.46226C14.8623 9.46226 15.0513 9.2757 15.0499 9.0521C15.0427 7.90168 14.3659 6.8111 13.3105 6.33436C12.2071 5.83596 10.9238 6.04114 10.0249 6.84973C9.16025 7.6275 8.84333 8.91176 9.21563 10.0078C9.39606 10.5389 9.72566 11.0225 10.1647 11.373C10.6404 11.7528 11.1898 11.9703 11.7942 12.0345C12.6279 12.1231 13.4676 11.8092 14.0842 11.2545C14.7012 10.6994 15.0447 9.87666 15.0499 9.0521C15.0513 8.82851 14.8623 8.64195 14.6397 8.64195C14.4151 8.64195 14.231 8.82856 14.2296 9.0521Z" fill="white" fill-opacity="0.8"/>
<path d="M15.0158 11.9445C15.0732 11.9811 15.1296 12.0192 15.185 12.0589C15.1959 12.0667 15.2859 12.1358 15.2103 12.0767C15.2371 12.0977 15.2631 12.1194 15.2892 12.1412C15.4021 12.2354 15.5068 12.3391 15.6056 12.4479C15.6512 12.4982 15.6945 12.5506 15.7368 12.6037C15.6771 12.5288 15.7467 12.6182 15.7546 12.6291C15.7746 12.6567 15.794 12.6845 15.8131 12.7127C15.8966 12.835 15.9695 12.9642 16.0351 13.0968C16.0502 13.1277 16.0647 13.1588 16.0788 13.1901C16.1264 13.2947 16.048 13.1122 16.0911 13.219C16.1169 13.2832 16.1397 13.3486 16.1613 13.4143C16.2088 13.5586 16.2434 13.7069 16.2696 13.8565C16.2721 13.8704 16.2886 13.9878 16.2757 13.8881C16.2803 13.9236 16.2837 13.9592 16.2871 13.9949C16.294 14.0668 16.2973 14.1391 16.2993 14.2114C16.3003 14.2487 16.3001 14.2861 16.3001 14.3234V16.4145C16.3001 16.441 16.2993 16.4542 16.298 16.4805C16.2927 16.5897 16.3151 16.3932 16.296 16.4994C16.2904 16.5307 16.2818 16.5612 16.2733 16.5917C16.2682 16.6098 16.2302 16.7085 16.2714 16.6112C16.2472 16.6682 16.2152 16.7216 16.1811 16.773C16.1237 16.8594 16.2369 16.7083 16.1695 16.7869C16.1429 16.818 16.113 16.8461 16.0828 16.8736C16.0063 16.9434 16.1535 16.8252 16.0689 16.8852C16.0438 16.903 16.017 16.9185 15.9903 16.934C15.9635 16.9495 15.9352 16.9625 15.9071 16.9755C16.0019 16.9318 15.9066 16.9714 15.8876 16.9774C15.8574 16.9869 15.8263 16.9935 15.7953 17.0001C15.6898 17.0226 15.8854 16.9932 15.7765 17.0021C15.7539 17.0039 15.7309 17.0042 15.7083 17.0042H8.39856C8.36959 17.0042 8.3616 17.0035 8.33275 17.0021C8.22362 16.9968 8.42007 17.0192 8.31388 17.0001C8.28266 16.9945 8.25207 16.9859 8.22158 16.9774C8.20152 16.9714 8.18165 16.9648 8.162 16.9575C8.21153 16.9798 8.21549 16.9815 8.17391 16.9625C8.11775 16.9366 8.06549 16.903 8.01519 16.8673C8.09879 16.9267 8.01861 16.8665 8.00378 16.8529C7.98109 16.8322 7.96035 16.8095 7.93968 16.7869C7.86988 16.7104 7.98814 16.8576 7.92814 16.773C7.91029 16.7478 7.89479 16.7211 7.87935 16.6944C7.86379 16.6675 7.8508 16.6393 7.83784 16.6111C7.88314 16.7095 7.83355 16.5832 7.82741 16.5613C7.81881 16.5306 7.81316 16.4992 7.80754 16.4679C7.82657 16.5738 7.81068 16.469 7.80964 16.4478C7.80899 16.4341 7.80911 16.4203 7.80911 16.4065V14.3959C7.80911 14.2859 7.80964 14.1762 7.81647 14.0662C7.81869 14.0303 7.82214 13.9944 7.82558 13.9586C7.82692 13.9447 7.84267 13.8262 7.82856 13.9258C7.83847 13.8557 7.85193 13.7861 7.8665 13.7169C7.8977 13.5688 7.94193 13.4238 7.99396 13.2818C8.00584 13.2493 8.01882 13.2173 8.03176 13.1852C7.99543 13.2751 8.03987 13.1693 8.04552 13.1569C8.074 13.0945 8.1055 13.0334 8.13796 12.9729C8.20794 12.8426 8.28904 12.7185 8.37641 12.5992C8.44358 12.5074 8.32461 12.6633 8.39556 12.5746C8.41679 12.548 8.43887 12.5222 8.46095 12.4963C8.50508 12.4446 8.55165 12.395 8.59895 12.3463C8.64627 12.2975 8.69589 12.251 8.74621 12.2054C8.77149 12.1826 8.79715 12.1603 8.82315 12.1385C8.83614 12.1274 8.95039 12.0376 8.8731 12.0966C8.93631 12.0483 9.00203 12.0035 9.06866 11.9601C9.25564 11.8384 9.33292 11.5989 9.2158 11.399C9.10696 11.2132 8.84218 11.1297 8.65464 11.2518C7.62859 11.9199 6.98877 13.06 6.98877 14.2897V16.1036C6.98877 16.4469 6.99714 16.762 7.15632 17.0812C7.38671 17.5432 7.90384 17.8246 8.41035 17.8246H15.7059C16.3017 17.8246 16.8207 17.4484 17.0332 16.8986C17.14 16.6222 17.1205 16.323 17.1205 16.0326V14.2844C17.1205 13.6493 16.9479 13.021 16.6303 12.4718C16.3396 11.969 15.918 11.5476 15.4299 11.2361C15.2412 11.1158 14.9783 11.1961 14.8687 11.3833C14.7523 11.5818 14.8277 11.8244 15.0158 11.9445ZM20.6774 11.3328C20.6768 11.3977 20.6731 11.4624 20.6663 11.5269C20.6777 11.418 20.6653 11.5237 20.6617 11.5437C20.656 11.5747 20.6486 11.6054 20.6412 11.636C20.6265 11.6966 20.6068 11.7559 20.5855 11.8145C20.5494 11.9135 20.6223 11.7348 20.5792 11.8305C20.5624 11.8679 20.5432 11.9041 20.5237 11.9401C20.4946 11.9939 20.4611 12.0451 20.4263 12.0954C20.3672 12.1808 20.4817 12.0285 20.4167 12.1094C20.3976 12.1331 20.3772 12.1557 20.3569 12.1784C20.3163 12.2237 20.272 12.2656 20.2268 12.3062C20.2041 12.3265 20.1804 12.3456 20.1567 12.3647C20.2418 12.2962 20.1336 12.3778 20.1159 12.3896C20.0649 12.4235 20.0113 12.4532 19.9569 12.4814C19.9296 12.4955 19.9015 12.5082 19.8734 12.5209C19.9704 12.4772 19.8745 12.5184 19.8564 12.525C19.7976 12.5464 19.7372 12.5629 19.6765 12.5775C19.6457 12.5849 19.6146 12.5906 19.5836 12.5963C19.537 12.6036 19.5418 12.6033 19.5979 12.5953C19.5766 12.5977 19.5553 12.5997 19.5339 12.6014C19.4689 12.607 19.4036 12.6069 19.3385 12.6051C19.3061 12.6041 19.2739 12.6014 19.2417 12.5986C19.1329 12.5893 19.3311 12.6138 19.2241 12.5963C19.1619 12.5862 19.1008 12.5708 19.0402 12.5537C19.0102 12.5453 18.9807 12.5352 18.9513 12.525C18.9318 12.5182 18.9125 12.5109 18.8932 12.5033C18.9435 12.5251 18.9478 12.5268 18.9061 12.5082C18.8501 12.483 18.7963 12.4532 18.7435 12.422C18.7172 12.4065 18.6917 12.3896 18.6663 12.3727C18.6508 12.3624 18.5677 12.3002 18.651 12.3647C18.5467 12.2839 18.4545 12.1883 18.3719 12.0856C18.4377 12.1674 18.3748 12.0859 18.364 12.0703C18.3466 12.0452 18.3306 12.0192 18.3146 11.9932C18.2824 11.9409 18.2546 11.886 18.2284 11.8305C18.1836 11.7356 18.2601 11.9128 18.2222 11.8145C18.211 11.7855 18.2014 11.7559 18.1919 11.7263C18.1694 11.6565 18.1535 11.5847 18.1403 11.5126C18.1208 11.406 18.1494 11.6035 18.138 11.495C18.1346 11.4628 18.1331 11.4305 18.1315 11.3982C18.1284 11.3331 18.1309 11.2678 18.1352 11.2028C18.1366 11.1832 18.1509 11.0752 18.1352 11.1845C18.1397 11.1531 18.146 11.1221 18.1523 11.091C18.1667 11.0194 18.1879 10.9494 18.2116 10.8803C18.2177 10.8625 18.2578 10.7651 18.2158 10.8633C18.2279 10.835 18.2416 10.8074 18.2552 10.7798C18.2824 10.7249 18.3141 10.6724 18.3471 10.6208C18.3635 10.5951 18.3813 10.5703 18.3992 10.5456C18.3382 10.6303 18.3981 10.5479 18.4105 10.533C18.456 10.4785 18.5063 10.4282 18.5583 10.3799C18.5806 10.3591 18.6039 10.3396 18.6273 10.3201C18.6625 10.2919 18.6589 10.2946 18.6165 10.3282C18.6329 10.3162 18.6495 10.3045 18.6663 10.2931C18.7251 10.2524 18.7874 10.2172 18.8507 10.1843C18.8781 10.1702 18.9062 10.1575 18.9342 10.1449C18.8333 10.1903 18.9602 10.1376 18.9807 10.1306C19.0599 10.1034 19.1418 10.0845 19.2241 10.0694C19.3307 10.0499 19.1331 10.0785 19.2417 10.0671C19.2847 10.0626 19.3279 10.0609 19.3711 10.0597C19.4468 10.0575 19.5226 10.0625 19.5979 10.0705C19.489 10.059 19.5948 10.0714 19.6148 10.0751C19.6561 10.0826 19.6968 10.0929 19.7374 10.1035C19.7776 10.114 19.8171 10.1272 19.8564 10.1407C19.8759 10.1475 19.8952 10.1548 19.9144 10.1624C19.8641 10.1406 19.8598 10.1389 19.9015 10.1575C19.9668 10.1869 20.0293 10.2222 20.0902 10.2597C20.1162 10.2757 20.1414 10.2931 20.1664 10.3105C20.2028 10.3372 20.1996 10.334 20.1567 10.301C20.1726 10.3136 20.1883 10.3265 20.2038 10.3396C20.2583 10.3851 20.3086 10.4354 20.3569 10.4874C20.3846 10.5171 20.4103 10.5485 20.4357 10.5801C20.3672 10.495 20.4488 10.6031 20.4606 10.6208C20.5002 10.6804 20.5344 10.7434 20.5661 10.8074C20.5746 10.8246 20.6144 10.9208 20.5744 10.8223C20.59 10.8607 20.6031 10.9 20.6158 10.9394C20.6383 11.0092 20.6542 11.081 20.6674 11.1532C20.6747 11.1998 20.6743 11.195 20.6663 11.1388C20.6688 11.1601 20.6708 11.1815 20.6725 11.2029C20.6762 11.246 20.677 11.2895 20.6774 11.3328C20.6795 11.5564 20.8623 11.743 21.0875 11.743C21.3095 11.743 21.4998 11.5564 21.4977 11.3328C21.492 10.7354 21.2377 10.1525 20.7838 9.75951C20.2932 9.3348 19.6729 9.18192 19.0374 9.27323C18.453 9.35721 17.9354 9.74318 17.6223 10.2325C17.2976 10.7398 17.2266 11.4041 17.4105 11.974C17.5637 12.449 17.885 12.8465 18.3035 13.1143C18.742 13.3949 19.2636 13.4652 19.7703 13.3924C20.7654 13.2494 21.4884 12.3116 21.4977 11.3328C21.4998 11.1092 21.3095 10.9227 21.0875 10.9227C20.8623 10.9227 20.6795 11.1093 20.6774 11.3328Z" fill="white" fill-opacity="0.8"/>
<path d="M21.2603 13.3399C21.2888 13.3582 21.3169 13.3769 21.3448 13.3961C21.3563 13.4041 21.4454 13.4727 21.3697 13.413C21.4226 13.4548 21.4724 13.5003 21.521 13.547C21.5696 13.5937 21.6148 13.6438 21.6586 13.695C21.6678 13.7057 21.7358 13.7948 21.678 13.7178C21.705 13.7539 21.73 13.7914 21.7547 13.8291C21.7918 13.8859 21.8247 13.9453 21.856 14.0054C21.8718 14.0356 21.886 14.0666 21.9002 14.0975C21.8595 14.009 21.9057 14.1125 21.9109 14.1262C21.9355 14.1907 21.9553 14.2569 21.9733 14.3235C21.9824 14.3572 21.9898 14.3912 21.9971 14.4253C22.001 14.4433 22.0241 14.592 22.0109 14.4899C22.0494 14.7873 22.0259 15.1003 22.0259 15.3991V16.128C22.0259 16.1495 22.0249 16.1711 22.0228 16.1925C22.031 16.1361 22.0304 16.1309 22.0213 16.1769C22.0168 16.1972 21.9793 16.2919 22.0214 16.1954C22.0092 16.2233 21.9931 16.2495 21.977 16.2754C21.9239 16.3615 22.0339 16.2128 21.966 16.2874C21.9521 16.3025 21.8747 16.3652 21.9576 16.3027C21.9333 16.3211 21.9065 16.3359 21.88 16.3507C21.7908 16.4001 21.9618 16.3238 21.8641 16.3558C21.8433 16.3627 21.742 16.3789 21.8497 16.3656C21.8301 16.368 21.804 16.3687 21.7843 16.3687H18.1363C17.9127 16.3687 17.7261 16.5553 17.7261 16.7789C17.7261 17.0025 17.9127 17.1891 18.1363 17.1891H21.5764C21.8655 17.1891 22.1518 17.1769 22.3959 16.9927C22.6722 16.7842 22.8463 16.4782 22.8463 16.1259V14.8093C22.8463 14.2932 22.717 13.7893 22.4256 13.3588C22.227 13.0655 21.9722 12.8229 21.6744 12.6317C21.4861 12.5108 21.2226 12.5921 21.1133 12.7788C20.9966 12.9778 21.0726 13.2194 21.2603 13.3399ZM5.97882 11.3328C5.97823 11.3977 5.97454 11.4624 5.96776 11.5269C5.97922 11.418 5.96678 11.5237 5.96312 11.5437C5.95747 11.5747 5.95004 11.6054 5.94266 11.636C5.92801 11.6966 5.90828 11.7559 5.88695 11.8145C5.85088 11.9135 5.92382 11.7348 5.88069 11.8305C5.86386 11.8679 5.84467 11.9041 5.82517 11.9401C5.79603 11.9939 5.76257 12.0451 5.72778 12.0954C5.6687 12.1808 5.78314 12.0285 5.71813 12.1094C5.69905 12.1331 5.67871 12.1557 5.65839 12.1784C5.61774 12.2237 5.57349 12.2656 5.52824 12.3062C5.50557 12.3265 5.48185 12.3456 5.45814 12.3647C5.54326 12.2962 5.43507 12.3778 5.4174 12.3896C5.3664 12.4235 5.31273 12.4532 5.25838 12.4814C5.23105 12.4955 5.20297 12.5082 5.17492 12.5209C5.27181 12.4772 5.17602 12.5184 5.15783 12.525C5.0991 12.5464 5.03867 12.5629 4.97795 12.5775C4.94722 12.5849 4.91612 12.5906 4.88504 12.5963C4.83845 12.6036 4.84323 12.6033 4.89939 12.5953C4.87808 12.5977 4.85673 12.5997 4.83535 12.6014C4.77039 12.607 4.70507 12.6069 4.63998 12.6051C4.60764 12.6041 4.57539 12.6014 4.54316 12.5986C4.43441 12.5893 4.63253 12.6138 4.52558 12.5963C4.46342 12.5862 4.40225 12.5708 4.34169 12.5537C4.31171 12.5453 4.28223 12.5352 4.25279 12.525C4.23331 12.5182 4.21395 12.5109 4.19474 12.5033C4.24503 12.5251 4.24935 12.5268 4.2076 12.5082C4.15161 12.483 4.09782 12.4532 4.04499 12.422C4.01867 12.4065 3.99322 12.3896 3.96782 12.3727C3.95235 12.3624 3.86924 12.3002 3.95249 12.3647C3.84819 12.2839 3.75601 12.1883 3.67342 12.0856C3.73918 12.1674 3.6763 12.0859 3.66549 12.0703C3.6481 12.0452 3.6321 12.0192 3.61611 11.9932C3.58396 11.9409 3.55616 11.886 3.52996 11.8305C3.48507 11.7356 3.5616 11.9128 3.5237 11.8145C3.51252 11.7855 3.50298 11.7559 3.49344 11.7263C3.47092 11.6565 3.455 11.5847 3.44183 11.5126C3.42235 11.406 3.45095 11.6035 3.43951 11.495C3.43614 11.4628 3.43459 11.4305 3.43307 11.3982C3.42995 11.3331 3.43243 11.2678 3.43677 11.2028C3.43808 11.1832 3.45242 11.0752 3.43672 11.1845C3.44122 11.1531 3.4475 11.1221 3.45381 11.091C3.46827 11.0194 3.48943 10.9494 3.5131 10.8803C3.51924 10.8625 3.55935 10.7651 3.5173 10.8633C3.52942 10.835 3.5431 10.8074 3.55674 10.7798C3.58396 10.7249 3.6156 10.6724 3.64857 10.6208C3.66503 10.5951 3.68286 10.5703 3.70067 10.5456C3.63971 10.6303 3.69962 10.5479 3.71204 10.533C3.75753 10.4785 3.80785 10.4282 3.85979 10.3799C3.88208 10.3591 3.90545 10.3396 3.92882 10.3201C3.96402 10.2919 3.96041 10.2946 3.91801 10.3282C3.9344 10.3162 3.95102 10.3045 3.96784 10.2931C4.0266 10.2524 4.08889 10.2172 4.15227 10.1843C4.1796 10.1702 4.20767 10.1575 4.23573 10.1449C4.13481 10.1903 4.26172 10.1376 4.28218 10.1306C4.36142 10.1034 4.44327 10.0845 4.5256 10.0694C4.6322 10.0499 4.43464 10.0785 4.54318 10.0671C4.58617 10.0626 4.62941 10.0609 4.67258 10.0597C4.74833 10.0575 4.8241 10.0625 4.89941 10.0705C4.79054 10.059 4.89627 10.0714 4.91624 10.0751C4.95753 10.0826 4.99827 10.0929 5.03886 10.1035C5.07908 10.114 5.11857 10.1272 5.15788 10.1407C5.17736 10.1475 5.19672 10.1548 5.21593 10.1624C5.16564 10.1406 5.16132 10.1389 5.20307 10.1575C5.26836 10.1869 5.3308 10.2222 5.39171 10.2597C5.41773 10.2757 5.44285 10.2931 5.46796 10.3105C5.50433 10.3372 5.50107 10.334 5.45818 10.301C5.47411 10.3136 5.48981 10.3265 5.50527 10.3396C5.55978 10.3851 5.6101 10.4354 5.65843 10.4874C5.68609 10.5171 5.71182 10.5485 5.73728 10.5801C5.66879 10.495 5.75038 10.6031 5.76214 10.6208C5.80178 10.6804 5.8359 10.7434 5.86761 10.8074C5.87614 10.8246 5.91594 10.9208 5.87589 10.8223C5.89149 10.8607 5.90457 10.9 5.91728 10.9394C5.9398 11.0092 5.95571 11.081 5.96889 11.1532C5.9762 11.1998 5.97582 11.195 5.96783 11.1388C5.97027 11.1601 5.97231 11.1815 5.97395 11.2029C5.97758 11.246 5.9784 11.2895 5.97882 11.3328C5.98096 11.5564 6.16379 11.743 6.38898 11.743C6.61096 11.743 6.80127 11.5564 6.79914 11.3328C6.79344 10.7354 6.53919 10.1525 6.08528 9.75951C5.59468 9.3348 4.97436 9.18192 4.33888 9.27323C3.75444 9.35721 3.23689 9.74318 2.92379 10.2325C2.59911 10.7398 2.52814 11.4041 2.71199 11.974C2.86522 12.449 3.18643 12.8465 3.60496 13.1143C4.04347 13.3949 4.5651 13.4652 5.07174 13.3924C6.06683 13.2494 6.78983 12.3116 6.79916 11.3328C6.80129 11.1092 6.61098 10.9227 6.389 10.9227C6.16377 10.9227 5.98096 11.1093 5.97882 11.3328ZM5.9732 16.3687H2.34003C2.30579 16.3687 2.20536 16.3535 2.30596 16.3709C2.27518 16.3656 2.24542 16.3558 2.21584 16.3461C2.31104 16.3773 2.22458 16.3479 2.20271 16.3358C2.18349 16.3251 2.10838 16.2637 2.1872 16.3291C2.16899 16.314 2.08471 16.2146 2.14949 16.3004C2.13111 16.2761 2.11628 16.2493 2.10153 16.2227C2.05206 16.1336 2.12837 16.3046 2.09635 16.2069C2.08953 16.1861 2.07334 16.0847 2.0866 16.1925C2.08435 16.1742 2.08344 16.1457 2.08344 16.1274V14.7404C2.08344 14.6679 2.08778 14.5957 2.09464 14.5236C2.10592 14.4052 2.0803 14.6081 2.09957 14.4916C2.10531 14.4568 2.11283 14.4224 2.12035 14.3879C2.13526 14.3197 2.15535 14.2527 2.17707 14.1865C2.18785 14.1536 2.2003 14.1213 2.21272 14.089C2.17754 14.1804 2.23323 14.0461 2.24108 14.0299C2.27087 13.9683 2.30523 13.9091 2.34095 13.8508C2.35876 13.8218 2.37798 13.7936 2.3972 13.7655C2.40484 13.7543 2.47337 13.6641 2.41428 13.7395C2.50508 13.6237 2.61067 13.5201 2.72359 13.4261C2.81052 13.3537 2.65691 13.4742 2.74846 13.4076C2.77597 13.3875 2.80447 13.3689 2.83292 13.3502C3.01953 13.2279 3.09742 12.9894 2.98007 12.789C2.87146 12.6037 2.6061 12.5192 2.4189 12.6419C1.87714 12.9969 1.47908 13.5363 1.32932 14.1699C1.24646 14.5203 1.26308 14.8809 1.26308 15.2378V16.1233C1.26308 16.7117 1.75161 17.189 2.33671 17.189H5.97313C6.19672 17.189 6.38328 17.0025 6.38328 16.7789C6.38328 16.5553 6.19677 16.3687 5.9732 16.3687Z" fill="white" fill-opacity="0.8"/>
</svg>
