<svg width="60" height="60" viewBox="0 0 60 60" fill="none" xmlns="http://www.w3.org/2000/svg">
<g clip-path="url(#clip0_1818_24495)">
<path d="M56.7037 45.4537L45.4537 56.7037C44.4096 57.7488 43.1696 58.5778 41.8049 59.1434C40.4402 59.7091 38.9773 60.0002 37.5 60.0002C36.0227 60.0002 34.5598 59.7091 33.1951 59.1434C31.8304 58.5778 30.5904 57.7488 29.5462 56.7037L10.7963 37.9538C9.74974 36.9106 8.91978 35.6709 8.35408 34.3059C7.78839 32.9409 7.49813 31.4776 7.5 30V7.5H18.75C18.75 5.42625 17.0738 3.75 15 3.75H7.5C5.42625 3.75 3.75 5.42625 3.75 7.5V13.125C3.75 13.6223 3.55246 14.0992 3.20083 14.4508C2.84919 14.8025 2.37228 15 1.875 15C1.37772 15 0.900805 14.8025 0.549175 14.4508C0.197544 14.0992 0 13.6223 0 13.125L0 7.5C0 3.36 3.36 0 7.5 0H15C19.14 0 22.5 3.36 22.5 7.5V20.625C22.5 21.1223 22.3025 21.5992 21.9508 21.9508C21.5992 22.3025 21.1223 22.5 20.625 22.5C20.1277 22.5 19.6508 22.3025 19.2992 21.9508C18.9475 21.5992 18.75 21.1223 18.75 20.625V15.3788C16.575 16.1588 15 18.1838 15 20.625C15 23.73 17.52 26.25 20.625 26.25C23.73 26.25 26.25 23.73 26.25 20.625V7.5H30C32.88 7.5 35.7563 8.59875 37.9538 10.7963L56.7037 29.5462C57.7488 30.5904 58.5778 31.8304 59.1434 33.1951C59.7091 34.5598 60.0002 36.0227 60.0002 37.5C60.0002 38.9773 59.7091 40.4402 59.1434 41.8049C58.5778 43.1696 57.7488 44.4096 56.7037 45.4537Z" fill="#6A6969"/>
<path d="M25.18 36.33V37.408H19.594V36.33H25.18ZM27.2069 40.978C28.3922 40.026 29.3209 39.2467 29.9929 38.64C30.6649 38.024 31.2296 37.3847 31.6869 36.722C32.1536 36.05 32.3869 35.392 32.3869 34.748C32.3869 34.1413 32.2376 33.6653 31.9389 33.32C31.6496 32.9653 31.1782 32.788 30.5249 32.788C29.8902 32.788 29.3956 32.9887 29.0409 33.39C28.6956 33.782 28.5089 34.3093 28.4809 34.972H27.2489C27.2862 33.9267 27.6036 33.1193 28.2009 32.55C28.7982 31.9807 29.5682 31.696 30.5109 31.696C31.4722 31.696 32.2329 31.962 32.7929 32.494C33.3622 33.026 33.6469 33.7587 33.6469 34.692C33.6469 35.4667 33.4136 36.2227 32.9469 36.96C32.4896 37.688 31.9669 38.332 31.3789 38.892C30.7909 39.4427 30.0396 40.0867 29.1249 40.824H33.9409V41.888H27.2069V40.978ZM41.8676 32.984H36.9536V36.176C37.1683 35.8773 37.4856 35.6347 37.9056 35.448C38.3256 35.252 38.7783 35.154 39.2636 35.154C40.0383 35.154 40.6683 35.3173 41.1536 35.644C41.639 35.9613 41.9843 36.3767 42.1896 36.89C42.4043 37.394 42.5116 37.9307 42.5116 38.5C42.5116 39.172 42.3856 39.774 42.1336 40.306C41.8816 40.838 41.4943 41.258 40.9716 41.566C40.4583 41.874 39.819 42.028 39.0536 42.028C38.0736 42.028 37.2803 41.776 36.6736 41.272C36.067 40.768 35.6983 40.096 35.5676 39.256H36.8136C36.935 39.788 37.1916 40.2033 37.5836 40.502C37.9756 40.8007 38.4703 40.95 39.0676 40.95C39.805 40.95 40.3603 40.7307 40.7336 40.292C41.107 39.844 41.2936 39.256 41.2936 38.528C41.2936 37.8 41.107 37.24 40.7336 36.848C40.3603 36.4467 39.8096 36.246 39.0816 36.246C38.587 36.246 38.153 36.3673 37.7796 36.61C37.4156 36.8433 37.1496 37.1653 36.9816 37.576H35.7776V31.864H41.8676V32.984ZM43.9247 34.16C43.9247 33.5253 44.116 33.0213 44.4987 32.648C44.8813 32.2653 45.3713 32.074 45.9687 32.074C46.566 32.074 47.056 32.2653 47.4387 32.648C47.8213 33.0213 48.0127 33.5253 48.0127 34.16C48.0127 34.804 47.8213 35.3173 47.4387 35.7C47.056 36.0733 46.566 36.26 45.9687 36.26C45.3713 36.26 44.8813 36.0733 44.4987 35.7C44.116 35.3173 43.9247 34.804 43.9247 34.16ZM52.1007 32.228L46.4307 42H45.1707L50.8407 32.228H52.1007ZM45.9687 32.858C45.6513 32.858 45.3993 32.97 45.2127 33.194C45.0353 33.4087 44.9467 33.7307 44.9467 34.16C44.9467 34.5893 45.0353 34.916 45.2127 35.14C45.3993 35.364 45.6513 35.476 45.9687 35.476C46.286 35.476 46.538 35.364 46.7247 35.14C46.9113 34.9067 47.0047 34.58 47.0047 34.16C47.0047 33.7307 46.9113 33.4087 46.7247 33.194C46.538 32.97 46.286 32.858 45.9687 32.858ZM49.2867 40.068C49.2867 39.424 49.478 38.9153 49.8607 38.542C50.2433 38.1593 50.7333 37.968 51.3307 37.968C51.928 37.968 52.4133 38.1593 52.7867 38.542C53.1693 38.9153 53.3607 39.424 53.3607 40.068C53.3607 40.7027 53.1693 41.2113 52.7867 41.594C52.4133 41.9767 51.928 42.168 51.3307 42.168C50.7333 42.168 50.2433 41.9813 49.8607 41.608C49.478 41.2253 49.2867 40.712 49.2867 40.068ZM51.3167 38.766C50.9993 38.766 50.7473 38.878 50.5607 39.102C50.374 39.3167 50.2807 39.6387 50.2807 40.068C50.2807 40.488 50.374 40.81 50.5607 41.034C50.7473 41.2487 50.9993 41.356 51.3167 41.356C51.634 41.356 51.886 41.2487 52.0727 41.034C52.2593 40.81 52.3527 40.488 52.3527 40.068C52.3527 39.6387 52.2593 39.3167 52.0727 39.102C51.886 38.878 51.634 38.766 51.3167 38.766Z" fill="white"/>
</g>
<defs>
<clipPath id="clip0_1818_24495">
<rect width="60" height="60" fill="white"/>
</clipPath>
</defs>
</svg>
