<svg width="395" height="438" viewBox="0 0 395 438" fill="none" xmlns="http://www.w3.org/2000/svg">
<path d="M394.818 283.823L296.682 346.192L195.71 283.823L296.682 234.201L394.818 283.823Z" fill="#A7A9AC"/>
<path d="M257.414 242.025L277.384 253.381L278.306 229.868L257.414 242.025Z" fill="#414042"/>
<path d="M334.587 241.751L314.085 230.278V253.433L334.587 241.751Z" fill="#414042"/>
<path d="M334.796 214.823V231.404L315.597 242.239V252.459L334.691 241.751L334.796 259.188L295.891 281.371V237.005L334.796 214.823Z" fill="#58595B"/>
<path d="M295.891 237.005V281.371L257.414 259.188V241.958L277.115 253.227L276.769 242.778L257.414 231.506V214.823L295.891 237.005Z" fill="#414042"/>
<path d="M276.717 242.778L295.938 253.637V263.984L276.68 252.973L276.717 242.778Z" fill="#565556"/>
<path d="M315.52 242.318L295.955 253.58L295.933 263.984L315.52 252.536V242.318Z" fill="url(#paint0_linear_151_1883)"/>
<path d="M302.316 266.612L322.286 277.971L323.209 254.458L302.316 266.612Z" fill="#414042"/>
<path style="mix-blend-mode:multiply" d="M379.696 105.981V283.86L295.363 332.529L295.276 153.984L379.696 105.981Z" fill="url(#paint1_linear_151_1883)"/>
<path d="M379.49 266.341L340.726 244.827L311.047 271.594L340.652 288.573L379.49 266.341Z" fill="#58595B"/>
<path d="M340.794 261.595V277.819L318.789 265.933L319.814 276.792L340.794 288.471V305.961L302.316 283.78V266.545L322.018 277.819L321.67 267.367L302.316 256.096V239.412L340.794 261.595Z" fill="#414042"/>
<path style="mix-blend-mode:multiply" d="M213.048 105.981V283.86L295.174 332.529L295.261 153.984L213.048 105.981Z" fill="url(#paint2_linear_151_1883)"/>
<path d="M290.301 266.612L270.331 277.971L269.408 254.458L290.301 266.612Z" fill="#414042"/>
<path d="M213.125 266.341L251.888 244.827L281.567 271.594L251.966 288.573L213.125 266.341Z" fill="#6D6E71"/>
<path d="M251.821 261.595V277.819L273.829 265.933L272.801 276.792L251.821 288.471V305.961L290.301 283.78V266.545L270.6 277.819L270.946 267.367L290.301 256.096V239.412L251.821 261.595Z" fill="#58595B"/>
<path d="M256.799 292.432L276.769 303.79L277.692 280.272L256.799 292.432Z" fill="#6D6E71"/>
<path d="M333.973 292.161L313.47 280.688V303.84L333.973 292.161Z" fill="#58595B"/>
<path d="M379.592 266.341L379.696 283.778L340.794 305.958L340.726 288.471L379.592 266.341ZM340.791 261.592L340.801 278.045L379.694 255.991V239.409L340.791 261.592ZM295.276 332.392L334.179 309.884L334.072 292.161L314.975 302.866V292.646L334.177 281.809V265.227L295.274 287.407V332.387L295.276 332.392Z" fill="#F9861E"/>
<path d="M213.026 266.341L251.891 288.471L251.824 305.958L212.919 283.778L213.026 266.341ZM251.824 261.592L212.919 239.409V255.991L251.812 278.045L251.822 261.592H251.824ZM256.799 265.229V281.913L276.155 293.183L276.501 303.634L256.799 292.362V309.598L295.279 332.39V287.41L256.799 265.229Z" fill="#F15A29"/>
<path style="mix-blend-mode:multiply" d="M379.592 310.794L379.696 328.228L340.794 350.411L340.726 332.924L379.592 310.794ZM333.97 310.03L333.876 327.788L379.696 300.442V283.86L333.973 310.03H333.97ZM295.197 376.93L334.179 354.043L334.072 336.609L314.975 347.314V337.091L334.177 326.257V309.961L295.281 332.447L295.194 376.927L295.197 376.93Z" fill="url(#paint3_linear_151_1883)"/>
<path style="mix-blend-mode:multiply" d="M213.026 311.781L251.891 333.909L251.824 351.398L212.919 329.215L213.026 311.781ZM256.754 309.088L212.921 283.862V301.434L256.754 327.224V309.088ZM256.802 309.682V327.356L276.157 338.625L276.503 349.074L256.802 337.804V355.038L295.282 377.832L295.369 332.534L256.804 309.685L256.802 309.682Z" fill="url(#paint4_linear_151_1883)"/>
<path d="M257.414 197.574L277.384 208.931L278.306 185.418L257.414 197.574Z" fill="#414042"/>
<path d="M334.587 197.303L314.085 185.828V208.983L334.587 197.303Z" fill="#414042"/>
<path d="M334.796 170.372V186.954L315.597 197.791V208.008L334.691 197.303L334.796 214.74L295.891 236.923V192.558L334.796 170.372Z" fill="#58595B"/>
<path d="M295.891 192.558V236.923L257.414 214.74V197.507L277.115 208.776L276.769 198.328L257.414 187.058V170.372L295.891 192.558Z" fill="#414042"/>
<path d="M276.717 198.328L295.938 209.187V219.536L276.68 208.523L276.717 198.328Z" fill="#565556"/>
<path d="M315.52 197.865L295.955 209.129L295.933 219.536L315.52 208.085V197.865Z" fill="url(#paint5_linear_151_1883)"/>
<path d="M302.316 222.164L322.286 233.52L323.209 210.007L302.316 222.164Z" fill="#414042"/>
<path d="M379.49 221.893L340.726 200.379L311.047 227.143L340.652 244.126L379.49 221.893Z" fill="#58595B"/>
<path d="M340.794 217.144V233.366L318.789 221.483L319.814 232.344L340.794 244.021V261.51L302.316 239.33V222.097L322.018 233.366L321.67 222.917L302.316 211.645V194.964L340.794 217.144Z" fill="#414042"/>
<path d="M290.301 222.164L270.331 233.52L269.408 210.007L290.301 222.164Z" fill="#414042"/>
<path d="M213.125 221.893L251.888 200.379L281.567 227.143L251.966 244.126L213.125 221.893Z" fill="#6D6E71"/>
<path d="M251.821 217.144V233.366L273.829 221.483L272.801 232.344L251.821 244.021V261.51L290.301 239.33V222.097L270.6 233.366L270.946 222.917L290.301 211.645V194.964L251.821 217.144Z" fill="#58595B"/>
<path d="M256.799 247.981L276.769 259.34L277.692 235.827L256.799 247.981Z" fill="#6D6E71"/>
<path d="M333.973 247.71L313.47 236.235V259.39L333.973 247.71Z" fill="#58595B"/>
<path d="M379.592 221.893L379.696 239.33L340.794 261.51L340.726 244.024L379.592 221.893ZM340.791 217.147L340.801 233.6L379.694 211.546V194.964L340.791 217.147ZM295.276 287.947L334.179 265.15L334.072 247.713L314.975 258.418V248.198L334.177 237.363V220.782L295.274 242.964V287.944L295.276 287.947Z" fill="#F9861E"/>
<path d="M213.026 221.893L251.891 244.024L251.824 261.51L212.919 239.33L213.026 221.893ZM251.824 217.147L212.919 194.964V211.546L251.812 233.6L251.822 217.147H251.824ZM256.799 220.782V237.465L276.155 248.735L276.501 259.186L256.799 247.917V265.147L295.279 287.944V242.964L256.799 220.782Z" fill="#F15A29"/>
<path d="M257.414 153.084L277.384 164.44L278.306 140.927L257.414 153.084Z" fill="#414042"/>
<path d="M334.587 152.813L314.085 141.338V164.493L334.587 152.813Z" fill="#414042"/>
<path d="M334.796 125.884V142.464L315.597 153.298V163.518L334.691 152.813L334.796 170.25L295.891 192.431V148.067L334.796 125.884Z" fill="#58595B"/>
<path d="M295.891 148.067V192.431L257.414 170.25V153.017L277.115 164.286L276.769 153.837L257.414 142.568V125.884L295.891 148.067Z" fill="#414042"/>
<path d="M276.717 153.837L295.938 164.696V175.046L276.68 164.033L276.717 153.837Z" fill="#565556"/>
<path d="M315.52 153.375L295.955 164.639L295.933 175.046L315.52 163.595V153.375Z" fill="url(#paint6_linear_151_1883)"/>
<path d="M302.316 177.674L322.286 189.03L323.209 165.517L302.316 177.674Z" fill="#414042"/>
<path d="M379.49 177.403L340.726 155.888L311.047 182.653L340.652 199.635L379.49 177.403Z" fill="#58595B"/>
<path d="M340.794 172.654V188.876L318.789 176.992L319.814 187.854L340.794 199.533V217.02L302.316 194.84V177.606L322.018 188.876L321.67 178.427L302.316 167.155V150.471L340.794 172.654Z" fill="#414042"/>
<path d="M290.301 177.674L270.331 189.03L269.408 165.517L290.301 177.674Z" fill="#414042"/>
<path d="M213.125 177.403L251.888 155.888L281.567 182.653L251.966 199.635L213.125 177.403Z" fill="#6D6E71"/>
<path d="M251.821 172.654V188.876L273.829 176.992L272.801 187.854L251.821 199.533V217.02L290.301 194.84V177.606L270.6 188.876L270.946 178.427L290.301 167.155V150.471L251.821 172.654Z" fill="#58595B"/>
<path d="M256.799 203.491L276.769 214.847L277.692 191.334L256.799 203.491Z" fill="#6D6E71"/>
<path d="M333.973 203.22L313.47 191.745V214.9L333.973 203.22Z" fill="#58595B"/>
<path d="M379.592 177.403L379.696 194.84L340.794 217.02L340.726 199.533L379.592 177.403ZM340.791 172.657L340.801 189.109L379.694 167.056V150.474L340.791 172.657ZM295.276 243.454L334.179 220.66L334.072 203.223L314.975 213.927V203.707L334.177 192.873V176.291L295.274 198.474V243.454H295.276Z" fill="#F9861E"/>
<path d="M213.026 177.403L251.891 199.533L251.824 217.02L212.919 194.84L213.026 177.403ZM251.824 172.657L212.919 150.474V167.056L251.812 189.109L251.822 172.657H251.824ZM256.799 176.294V192.978L276.155 204.247L276.501 214.698L256.799 203.429V220.66L295.279 243.454V198.474L256.799 176.291V176.294Z" fill="#F15A29"/>
<path d="M257.414 108.594L277.384 119.95L278.306 96.4373L257.414 108.594Z" fill="#414042"/>
<path d="M334.587 108.323L314.085 96.8474V120.002L334.587 108.323Z" fill="#414042"/>
<path d="M334.796 81.3942V97.9736L315.597 108.808V119.03L334.691 108.323L334.796 125.76L295.891 147.941V103.577L334.796 81.3942Z" fill="#58595B"/>
<path d="M295.891 103.577V147.941L257.414 125.76V108.527L277.115 119.799L276.769 109.347L257.414 98.078V81.3942L295.891 103.577Z" fill="#414042"/>
<path d="M276.717 109.347L295.938 120.206V130.556L276.68 119.542L276.717 109.347Z" fill="#565556"/>
<path d="M315.52 108.885L295.955 120.149L295.933 130.556L315.52 119.105V108.885Z" fill="url(#paint7_linear_151_1883)"/>
<path d="M302.316 133.183L322.286 144.54L323.209 121.027L302.316 133.183Z" fill="#414042"/>
<path d="M379.49 132.91L340.726 111.398L311.047 138.163L340.652 155.145L379.49 132.91Z" fill="#58595B"/>
<path d="M340.794 128.164V144.385L318.789 132.502L319.814 143.361L340.794 155.041V172.53L302.316 150.349V133.116L322.018 144.385L321.67 133.937L302.316 122.665V105.981L340.794 128.164Z" fill="#414042"/>
<path d="M290.301 133.183L270.331 144.54L269.408 121.027L290.301 133.183Z" fill="#414042"/>
<path d="M213.125 132.91L251.888 111.398L281.567 138.163L251.966 155.145L213.125 132.91Z" fill="#6D6E71"/>
<path d="M251.821 128.164V144.385L273.829 132.502L272.801 143.361L251.821 155.041V172.53L290.301 150.349V133.116L270.6 144.385L270.946 133.937L290.301 122.665V105.981L251.821 128.164Z" fill="#58595B"/>
<path d="M256.799 159.001L276.769 170.357L277.692 146.844L256.799 159.001Z" fill="#6D6E71"/>
<path d="M295.891 103.577L257.414 81.3942L295.891 59.8004L334.796 81.3942L295.891 103.577ZM340.791 83.7758L302.314 105.984L340.791 128.167L379.694 105.984L340.791 83.7758ZM251.822 83.7758L212.917 105.984L251.822 128.167L290.299 105.984L251.822 83.7758ZM256.797 131.801L295.277 153.984L334.179 131.801L295.277 109.593L256.797 131.801Z" fill="#FFA143"/>
<path d="M333.973 158.73L313.47 147.254V170.409L333.973 158.73Z" fill="#58595B"/>
<path d="M379.592 132.91L379.696 150.347L340.794 172.527L340.726 155.041L379.592 132.91ZM340.791 128.164L340.801 144.617L379.694 122.563V105.981L340.791 128.164ZM295.276 198.962L334.179 176.167L334.072 158.73L314.975 169.435V159.215L334.177 148.381V131.799L295.274 153.982V198.962H295.276Z" fill="#F9861E"/>
<path d="M213.026 132.91L251.891 155.041L251.824 172.527L212.919 150.347L213.026 132.91ZM251.824 128.164L212.919 105.981V122.563L251.812 144.617L251.822 128.164H251.824ZM256.799 131.799V148.482L276.155 159.752L276.501 170.203L256.799 158.934V176.165L295.279 198.959V153.979L256.799 131.796V131.799Z" fill="#F15A29"/>
<path d="M276.102 293.185L295.324 304.044V314.393L276.062 303.38L276.102 293.185Z" fill="#A7A9AC"/>
<path d="M276.102 248.735L295.324 259.596V269.943L276.062 258.93L276.102 248.735Z" fill="#A7A9AC"/>
<path d="M276.102 204.244L295.324 215.106V225.453L276.062 214.44L276.102 204.244Z" fill="#A7A9AC"/>
<path d="M276.102 159.754L295.324 170.616V180.963L276.062 169.949L276.102 159.754Z" fill="#A7A9AC"/>
<path d="M314.906 292.725L295.339 303.987L295.319 314.393L314.906 302.943V292.725Z" fill="#6D6E71"/>
<path d="M314.906 248.275L295.339 259.536L295.319 269.943L314.906 258.495V248.275Z" fill="#6D6E71"/>
<path d="M314.906 203.784L295.339 215.046L295.319 225.453L314.906 214.005V203.784Z" fill="#6D6E71"/>
<path d="M314.906 159.294L295.339 170.556L295.319 180.963L314.906 169.514V159.294Z" fill="#6D6E71"/>
<path d="M303.677 341.882L154 437.073L0 341.882L154 266.159L303.677 341.882Z" fill="#A7A9AC"/>
<path d="M94.1108 278.099L124.568 295.428L125.975 259.541L94.1108 278.099Z" fill="#414042"/>
<path d="M211.816 277.678L180.543 260.166V295.509L211.816 277.678Z" fill="#414042"/>
<path d="M212.135 236.585V261.885L182.853 278.425V294.021L211.972 277.678L212.135 304.289L152.797 338.144V270.434L212.135 236.585Z" fill="#58595B"/>
<path d="M152.797 270.434V338.144L94.1108 304.289V277.997L124.161 295.19L123.63 279.247L94.1108 262.048V236.585L152.797 270.434Z" fill="#414042"/>
<path d="M123.549 279.247L152.872 295.822V311.608L123.495 294.802L123.549 279.247Z" fill="#565556"/>
<path d="M182.731 278.541L152.892 295.727L152.865 311.608L182.731 294.136V278.541Z" fill="url(#paint8_linear_151_1883)"/>
<path d="M162.596 315.624L193.053 332.952L194.46 297.072L162.596 315.624Z" fill="#414042"/>
<path style="mix-blend-mode:multiply" d="M280.613 70.4761V341.943L151.988 416.217L151.859 143.732L280.613 70.4761Z" fill="url(#paint9_linear_151_1883)"/>
<path d="M280.301 315.209L221.18 282.373L175.915 323.221L221.064 349.139L280.301 315.209Z" fill="#58595B"/>
<path d="M221.282 307.965V332.721L187.719 314.584L189.282 331.151L221.282 348.983V375.669L162.596 341.82V315.515L192.645 332.721L192.115 316.772L162.596 299.573V274.11L221.282 307.965Z" fill="#414042"/>
<path style="mix-blend-mode:multiply" d="M26.4482 70.4761V341.943L155.073 416.217L155.203 143.732L26.4482 70.4761Z" fill="url(#paint10_linear_151_1883)"/>
<path d="M144.268 315.624L113.811 332.952L112.404 297.072L144.268 315.624Z" fill="#414042"/>
<path d="M26.5635 315.209L85.6843 282.373L130.949 323.221L85.7998 349.139L26.5635 315.209Z" fill="#6D6E71"/>
<path d="M85.5825 307.965V332.721L119.145 314.584L117.583 331.151L85.5825 348.983V375.669L144.268 341.82V315.515L114.219 332.721L114.749 316.772L144.268 299.573V274.11L85.5825 307.965Z" fill="#58595B"/>
<path d="M93.1729 355.024L123.63 372.359L125.037 336.472L93.1729 355.024Z" fill="#6D6E71"/>
<path d="M210.878 354.61L179.605 337.098V372.434L210.878 354.61Z" fill="#58595B"/>
<path d="M280.457 315.209L280.613 341.82L221.275 375.676L221.173 348.983L280.45 315.209H280.457ZM221.282 307.965L221.302 333.075L280.62 299.416V274.11L221.282 307.965ZM151.859 416.014L211.197 381.662L211.034 354.616L181.909 370.953V355.357L211.19 338.824V313.517L151.852 347.365V416.014H151.859Z" fill="#008385"/>
<path d="M26.4072 315.209L85.6844 348.983L85.5824 375.676L26.2441 341.82L26.4072 315.209ZM85.5824 307.965L26.2441 274.11V299.416L85.562 333.075L85.5756 307.965H85.5824ZM93.173 313.517V338.98L122.693 356.179L123.223 372.128L93.173 354.929V381.234L151.859 416.02V347.372L93.173 313.524V313.517Z" fill="#50D0D2"/>
<path d="M94.1108 210.259L124.568 227.595L125.975 191.708L94.1108 210.259Z" fill="#414042"/>
<path d="M211.816 209.845L180.543 192.333V227.67L211.816 209.845Z" fill="#414042"/>
<path d="M212.135 168.746V194.052L182.853 210.586V226.188L211.972 209.845L212.135 236.456L152.797 270.311V202.601L212.135 168.746Z" fill="#58595B"/>
<path d="M152.797 202.601V270.311L94.1108 236.456V210.158L124.161 227.357L123.63 211.408L94.1108 194.209V168.746L152.797 202.601Z" fill="#414042"/>
<path d="M123.549 211.408L152.872 227.982V243.775L123.495 226.97L123.549 211.408Z" fill="#565556"/>
<path d="M182.731 210.708L152.892 227.894L152.865 243.775L182.731 226.304V210.708Z" fill="url(#paint11_linear_151_1883)"/>
<path d="M162.596 247.784L193.053 265.12L194.46 229.233L162.596 247.784Z" fill="#414042"/>
<path d="M280.301 247.37L221.18 214.541L175.915 255.388L221.064 281.3L280.301 247.37Z" fill="#58595B"/>
<path d="M221.282 240.126V264.882L187.719 246.744L189.282 263.319L221.282 281.143V307.836L162.596 273.981V247.682L192.645 264.882L192.115 248.939L162.596 231.733V206.271L221.282 240.126Z" fill="#414042"/>
<path d="M144.268 247.784L113.811 265.12L112.404 229.233L144.268 247.784Z" fill="#414042"/>
<path d="M26.5635 247.37L85.6843 214.541L130.949 255.388L85.7998 281.3L26.5635 247.37Z" fill="#6D6E71"/>
<path d="M85.5825 240.126V264.882L119.145 246.744L117.583 263.319L85.5825 281.143V307.836L144.268 273.981V247.682L114.219 264.882L114.749 248.939L144.268 231.733V206.271L85.5825 240.126Z" fill="#58595B"/>
<path d="M93.1729 287.185L123.63 304.52L125.037 268.633L93.1729 287.185Z" fill="#6D6E71"/>
<path d="M210.878 286.777L179.605 269.258V304.595L210.878 286.777Z" fill="#58595B"/>
<path d="M280.457 247.37L280.613 273.981L221.275 307.829L221.173 281.143L280.45 247.37H280.457ZM221.282 240.126L221.302 265.235L280.62 231.577V206.271L221.282 240.126ZM151.859 348.174L211.197 313.381L211.034 286.77L181.909 303.106V287.511L211.19 270.977V245.671L151.852 279.526V348.174H151.859Z" fill="#008385"/>
<path d="M26.4072 247.37L85.6844 281.143L85.5824 307.829L26.2441 273.981L26.4072 247.37ZM85.5824 240.126L26.2441 206.271V231.577L85.562 265.235L85.5756 240.126H85.5824ZM93.173 245.671V271.134L122.693 288.333L123.223 304.282L93.173 287.083V313.381L151.859 348.174V279.526L93.173 245.671Z" fill="#50D0D2"/>
<path d="M94.1108 142.366L124.568 159.694L125.975 123.807L94.1108 142.366Z" fill="#414042"/>
<path d="M211.816 141.951L180.543 124.439V159.776L211.816 141.951Z" fill="#414042"/>
<path d="M212.135 100.852V126.158L182.853 142.692V158.288L211.972 141.951L212.135 168.556L152.797 202.411V134.707L212.135 100.852Z" fill="#58595B"/>
<path d="M152.797 134.707V202.411L94.1108 168.556V142.264L124.161 159.463L123.63 143.514L94.1108 126.315V100.852L152.797 134.707Z" fill="#414042"/>
<path d="M123.549 143.514L152.872 160.088V175.881L123.495 159.069L123.549 143.514Z" fill="#565556"/>
<path d="M182.731 142.807L152.892 159.993L152.865 175.881L182.731 158.403V142.807Z" fill="url(#paint12_linear_151_1883)"/>
<path d="M162.596 179.89L193.053 197.219L194.46 161.339L162.596 179.89Z" fill="#414042"/>
<path d="M280.301 179.476L221.18 146.64L175.915 187.488L221.064 213.406L280.301 179.476Z" fill="#58595B"/>
<path d="M221.282 172.232V196.988L187.719 178.851L189.282 195.425L221.282 213.25V239.935L162.596 206.087V179.788L192.645 196.988L192.115 181.039L162.596 163.839V138.377L221.282 172.232Z" fill="#414042"/>
<path d="M144.268 179.89L113.811 197.219L112.404 161.339L144.268 179.89Z" fill="#414042"/>
<path d="M26.5635 179.476L85.6843 146.64L130.949 187.488L85.7998 213.406L26.5635 179.476Z" fill="#6D6E71"/>
<path d="M85.5825 172.232V196.988L119.145 178.851L117.583 195.425L85.5825 213.25V239.935L144.268 206.087V179.788L114.219 196.988L114.749 181.039L144.268 163.839V138.377L85.5825 172.232Z" fill="#58595B"/>
<path d="M93.1729 219.291L123.63 236.619L125.037 200.739L93.1729 219.291Z" fill="#6D6E71"/>
<path d="M210.878 218.876L179.605 201.364V236.701L210.878 218.876Z" fill="#58595B"/>
<path d="M280.457 179.476L280.613 206.087L221.275 239.935L221.173 213.25L280.45 179.476H280.457ZM221.282 172.232L221.302 197.341L280.62 163.683V138.377L221.282 172.232ZM151.859 280.28L211.197 245.494L211.034 218.883L181.909 235.219V219.624L211.19 203.09V177.784L151.852 211.639V280.28H151.859Z" fill="#008385"/>
<path d="M26.4072 179.476L85.6844 213.25L85.5824 239.935L26.2441 206.087L26.4072 179.476ZM85.5824 172.232L26.2441 138.377V163.683L85.562 197.341L85.5756 172.232H85.5824ZM93.173 177.777V203.24L122.693 220.439L123.223 236.388L93.173 219.189V245.487L151.859 280.274V211.632L93.173 177.777Z" fill="#50D0D2"/>
<path d="M94.1108 74.465L124.568 91.7936L125.975 55.9133L94.1108 74.465Z" fill="#414042"/>
<path d="M211.816 74.0506L180.543 56.5386V91.8752L211.816 74.0506Z" fill="#414042"/>
<path d="M212.135 32.9514V58.2579L182.853 74.7913V90.387L211.972 74.0506L212.135 100.662L152.797 134.517V66.8066L212.135 32.9514Z" fill="#58595B"/>
<path d="M152.797 66.8066V134.517L94.1108 100.662V74.3632L124.161 91.5626L123.63 75.6135L94.1108 58.4141V32.9514L152.797 66.8066Z" fill="#414042"/>
<path d="M123.549 75.6135L152.872 92.1878V107.98L123.495 91.1752L123.549 75.6135Z" fill="#565556"/>
<path d="M182.731 74.9136L152.892 92.0994L152.865 107.98L182.731 90.5092V74.9136Z" fill="url(#paint13_linear_151_1883)"/>
<path d="M162.596 111.99L193.053 129.325L194.46 93.4381L162.596 111.99Z" fill="#414042"/>
<path d="M280.301 111.575L221.18 78.7395L175.915 119.587L221.064 145.505L280.301 111.575Z" fill="#58595B"/>
<path d="M221.282 104.331V129.087L187.719 110.95L189.282 127.524L221.282 145.349V172.035L162.596 138.186V111.888L192.645 129.087L192.115 113.138L162.596 95.9388V70.4761L221.282 104.331Z" fill="#414042"/>
<path d="M144.268 111.99L113.811 129.325L112.404 93.4381L144.268 111.99Z" fill="#414042"/>
<path d="M26.5635 111.575L85.6843 78.7395L130.949 119.587L85.7998 145.505L26.5635 111.575Z" fill="#6D6E71"/>
<path d="M85.5825 104.331V129.087L119.145 110.95L117.583 127.524L85.5825 145.349V172.035L144.268 138.186V111.888L114.219 129.087L114.749 113.138L144.268 95.9388V70.4761L85.5825 104.331Z" fill="#58595B"/>
<path d="M93.1729 151.39L123.63 168.725L125.037 132.838L93.1729 151.39Z" fill="#6D6E71"/>
<path d="M152.797 66.8065L94.1108 32.9514L152.797 0L212.135 32.9514L152.797 66.8065ZM221.282 36.587L162.596 70.4761L221.282 104.331L280.62 70.4761L221.282 36.587ZM85.5824 36.587L26.2441 70.4761L85.5824 104.331L144.268 70.4761L85.5824 36.587ZM93.173 109.876L151.859 143.732L211.197 109.876L151.859 75.9873L93.173 109.876Z" fill="#00B3B5"/>
<path d="M210.878 150.982L179.605 133.464V168.8L210.878 150.982Z" fill="#58595B"/>
<path d="M280.457 111.575L280.613 138.186L221.275 172.035L221.173 145.349L280.45 111.575H280.457ZM221.282 104.331L221.302 129.441L280.62 95.7825V70.4761L221.282 104.331ZM151.859 212.38L211.197 177.594L211.034 150.982L181.909 167.319V151.723L211.19 135.19V109.883L151.852 143.738V212.38H151.859Z" fill="#008385"/>
<path d="M26.4072 111.575L85.6844 145.349L85.5824 172.035L26.2441 138.186L26.4072 111.575ZM85.5824 104.331L26.2441 70.4761V95.7825L85.562 129.441L85.5756 104.331H85.5824ZM93.173 109.876V135.339L122.693 152.539L123.223 168.488L93.173 151.288V177.587L151.859 212.373V143.732L93.173 109.876Z" fill="#50D0D2"/>
<path d="M122.611 356.172L151.934 372.747V388.539L122.557 371.734L122.611 356.172Z" fill="#A7A9AC"/>
<path d="M122.611 288.34L151.934 304.914V320.7L122.557 303.895L122.611 288.34Z" fill="#A7A9AC"/>
<path d="M122.611 220.439L151.934 237.013V252.806L122.557 236.001L122.611 220.439Z" fill="#A7A9AC"/>
<path d="M122.611 152.545L151.934 169.113V184.906L122.557 168.1L122.611 152.545Z" fill="#A7A9AC"/>
<path d="M181.793 355.473L151.954 372.658L151.92 388.54L181.793 371.068V355.473Z" fill="#6D6E71"/>
<path d="M181.793 287.633L151.954 304.819L151.92 320.7L181.793 303.229V287.633Z" fill="#6D6E71"/>
<path d="M181.793 219.739L151.954 236.925L151.92 252.806L181.793 235.335V219.739Z" fill="#6D6E71"/>
<path d="M181.793 151.839L151.954 169.024L151.92 184.906L181.793 167.434V151.839Z" fill="#6D6E71"/>
<defs>
<linearGradient id="paint0_linear_151_1883" x1="295.933" y1="253.15" x2="315.52" y2="253.15" gradientUnits="userSpaceOnUse">
<stop stop-color="#C92E36"/>
<stop offset="1" stop-color="#E14932"/>
</linearGradient>
<linearGradient id="paint1_linear_151_1883" x1="337.488" y1="332.529" x2="337.488" y2="105.981" gradientUnits="userSpaceOnUse">
<stop/>
<stop offset="1" stop-color="white"/>
</linearGradient>
<linearGradient id="paint2_linear_151_1883" x1="254.155" y1="59.8004" x2="254.155" y2="105.981" gradientUnits="userSpaceOnUse">
<stop/>
<stop offset="1" stop-color="white"/>
</linearGradient>
<linearGradient id="paint3_linear_151_1883" x1="347.072" y1="347.053" x2="327.774" y2="313.608" gradientUnits="userSpaceOnUse">
<stop offset="0.49" stop-color="white"/>
<stop offset="0.64" stop-color="#FCFCFC"/>
<stop offset="0.73" stop-color="#F4F4F4"/>
<stop offset="0.8" stop-color="#E6E6E7"/>
<stop offset="0.86" stop-color="#D2D3D4"/>
<stop offset="0.91" stop-color="#B8B9BB"/>
<stop offset="0.97" stop-color="#999A9D"/>
<stop offset="1" stop-color="#808285"/>
</linearGradient>
<linearGradient id="paint4_linear_151_1883" x1="244.036" y1="348.263" x2="264.171" y2="313.366" gradientUnits="userSpaceOnUse">
<stop offset="0.49" stop-color="white"/>
<stop offset="0.64" stop-color="#FCFCFC"/>
<stop offset="0.73" stop-color="#F4F4F4"/>
<stop offset="0.8" stop-color="#E6E6E7"/>
<stop offset="0.86" stop-color="#D2D3D4"/>
<stop offset="0.91" stop-color="#B8B9BB"/>
<stop offset="0.97" stop-color="#999A9D"/>
<stop offset="1" stop-color="#808285"/>
</linearGradient>
<linearGradient id="paint5_linear_151_1883" x1="195.71" y1="208.702" x2="195.959" y2="208.702" gradientUnits="userSpaceOnUse">
<stop stop-color="#C92E36"/>
<stop offset="1" stop-color="#E14932"/>
</linearGradient>
<linearGradient id="paint6_linear_151_1883" x1="195.71" y1="164.212" x2="195.959" y2="164.212" gradientUnits="userSpaceOnUse">
<stop stop-color="#C92E36"/>
<stop offset="1" stop-color="#E14932"/>
</linearGradient>
<linearGradient id="paint7_linear_151_1883" x1="195.71" y1="119.721" x2="195.959" y2="119.721" gradientUnits="userSpaceOnUse">
<stop stop-color="#C92E36"/>
<stop offset="1" stop-color="#E14932"/>
</linearGradient>
<linearGradient id="paint8_linear_151_1883" x1="152.865" y1="295.074" x2="182.731" y2="295.074" gradientUnits="userSpaceOnUse">
<stop stop-color="#C92E36"/>
<stop offset="1" stop-color="#E14932"/>
</linearGradient>
<linearGradient id="paint9_linear_151_1883" x1="216.239" y1="416.217" x2="216.239" y2="70.4761" gradientUnits="userSpaceOnUse">
<stop/>
<stop offset="1" stop-color="white"/>
</linearGradient>
<linearGradient id="paint10_linear_151_1883" x1="90.822" y1="-3.67802e-05" x2="90.822" y2="-3.67802e-05" gradientUnits="userSpaceOnUse">
<stop/>
<stop offset="1" stop-color="white"/>
</linearGradient>
<linearGradient id="paint11_linear_151_1883" x1="3.75017e-05" y1="227.241" x2="0.679587" y2="227.241" gradientUnits="userSpaceOnUse">
<stop stop-color="#C92E36"/>
<stop offset="1" stop-color="#E14932"/>
</linearGradient>
<linearGradient id="paint12_linear_151_1883" x1="3.75017e-05" y1="159.341" x2="0.679587" y2="159.341" gradientUnits="userSpaceOnUse">
<stop stop-color="#C92E36"/>
<stop offset="1" stop-color="#E14932"/>
</linearGradient>
<linearGradient id="paint13_linear_151_1883" x1="3.75017e-05" y1="91.447" x2="0.679587" y2="91.447" gradientUnits="userSpaceOnUse">
<stop stop-color="#C92E36"/>
<stop offset="1" stop-color="#E14932"/>
</linearGradient>
</defs>
</svg>
