<svg width="80" height="80" viewBox="0 0 80 80" fill="none" xmlns="http://www.w3.org/2000/svg">
<circle cx="40" cy="40" r="40" fill="white"/>
<g clip-path="url(#clip0_1560_966)">
<path d="M42.0904 36.869C49.2046 35.7146 54.036 29.0115 52.8816 21.8973C51.7272 14.783 45.0241 9.95159 37.9098 11.106C30.7956 12.2604 25.9642 18.9635 27.1186 26.0778C28.273 33.1921 34.9761 38.0235 42.0904 36.869Z" fill="#00B3B5"/>
<path d="M11.4812 55.0938C11.4812 62.8 17.7437 69.0625 25.45 69.0625H54.55C62.2562 69.0625 68.5188 62.8 68.5188 55.0938C68.5188 47.3876 62.2562 41.125 54.55 41.125H25.45C17.7437 41.125 11.4812 47.3875 11.4812 55.0938Z" fill="#00B3B5"/>
</g>
<defs>
<clipPath id="clip0_1560_966">
<rect width="60" height="60" fill="white" transform="translate(10 10)"/>
</clipPath>
</defs>
</svg>
