<svg xmlns="http://www.w3.org/2000/svg" width="19" height="18" viewBox="0 0 19 18" fill="none">
  <path d="M9.5 0C4.52938 0 0.5 4.02938 0.5 9C0.5 13.9706 4.52938 18 9.5 18C14.4706 18 18.5 13.9706 18.5 9C18.5 4.02938 14.4706 0 9.5 0ZM7.29687 12.7303H5.47437V6.86531H7.29687V12.7303ZM6.37437 6.14531C5.79875 6.14531 5.42656 5.7375 5.42656 5.23312C5.42656 4.71844 5.81 4.32281 6.39781 4.32281C6.98562 4.32281 7.34562 4.71844 7.35687 5.23312C7.35687 5.7375 6.98562 6.14531 6.37437 6.14531ZM13.9531 12.7303H12.1306V9.48C12.1306 8.72344 11.8663 8.20969 11.2072 8.20969C10.7037 8.20969 10.4047 8.5575 10.2725 8.89219C10.2238 9.01125 10.2116 9.18 10.2116 9.34781V12.7294H8.38812V8.73563C8.38812 8.00344 8.36469 7.39125 8.34031 6.86437H9.92375L10.0072 7.67906H10.0437C10.2837 7.29656 10.8716 6.73219 11.855 6.73219C13.0541 6.73219 13.9531 7.53562 13.9531 9.2625V12.7303Z" fill="white"/>
</svg>