<svg width="239" height="501" viewBox="0 0 239 501" fill="none" xmlns="http://www.w3.org/2000/svg">
<path d="M239 426.041L121.204 500.988L0 426.041L121.204 366.42L239 426.041Z" fill="#A7A9AC"/>
<path d="M74.0649 375.818L98.0393 389.463L99.146 361.208L74.0649 375.818Z" fill="#414042"/>
<path d="M166.703 375.487L142.09 361.699V389.524L166.703 375.487Z" fill="#414042"/>
<path d="M166.956 343.129V363.054L143.907 376.077V388.356L166.824 375.487L166.956 396.443L120.252 423.094V369.786L166.956 343.129Z" fill="#58595B"/>
<path d="M120.252 369.786V423.094L74.0649 396.443V375.735L97.7144 389.276L97.3014 376.721L74.0649 363.181V343.129L120.252 369.786Z" fill="#414042"/>
<path d="M97.2355 376.721L120.312 389.771V402.205L97.1914 388.973L97.2355 376.721Z" fill="#565556"/>
<path d="M143.813 376.165L120.329 389.7L120.307 402.205L143.813 388.449V376.165Z" fill="url(#paint0_linear_151_2524)"/>
<path d="M127.966 405.361L151.94 419.012L153.047 390.757L127.966 405.361Z" fill="#414042"/>
<path style="mix-blend-mode:multiply" d="M220.851 212.345V426.085L119.618 484.566L119.514 270.022L220.851 212.345Z" fill="url(#paint1_linear_151_2524)"/>
<path d="M220.598 405.036L174.07 379.184L138.444 411.344L173.982 431.754L220.598 405.036Z" fill="#3B3C3D"/>
<path d="M174.152 399.335V418.825L147.739 404.546L148.967 417.591L174.152 431.627V452.643L127.966 425.992V405.284L151.615 418.825L151.197 406.265L127.966 392.724V372.678L174.152 399.335Z" fill="#333333"/>
<path style="mix-blend-mode:multiply" d="M20.8135 212.345V426.085L122.041 484.566L122.146 270.022L20.8135 212.345Z" fill="url(#paint2_linear_151_2524)"/>
<path d="M113.545 405.361L89.5706 419.012L88.4639 390.757L113.545 405.361Z" fill="#414042"/>
<path d="M20.9072 405.036L67.4353 379.184L103.061 411.344L67.5289 431.754L20.9072 405.036Z" fill="#6D6E71"/>
<path d="M67.3525 399.335V418.825L93.7717 404.546L92.5383 417.591L67.3525 431.627V452.643L113.545 425.992V405.284L89.8952 418.825L90.3082 406.265L113.545 392.724V372.678L67.3525 399.335Z" fill="#58595B"/>
<path d="M73.3271 436.387L97.3015 450.037L98.4082 421.777L73.3271 436.387Z" fill="#6D6E71"/>
<path d="M165.965 436.061L141.352 422.273V450.098L165.965 436.061Z" fill="#58595B"/>
<path d="M220.725 405.036L220.852 425.991L174.153 452.643L174.076 431.627L220.73 405.036H220.725ZM174.153 399.329L174.164 419.1L220.852 392.597V372.672L174.153 399.329ZM119.52 484.401L166.218 457.353L166.092 436.056L143.169 448.919V436.64L166.218 423.623V403.698L119.52 430.349V484.401Z" fill="#606060"/>
<path d="M20.7864 405.036L67.4356 431.627L67.353 452.643L20.6543 425.991L20.7809 405.036H20.7864ZM67.3586 399.329L20.6598 372.672V392.597L67.3475 419.1L67.3586 399.329ZM73.3329 403.698V423.744L96.5639 437.284L96.9768 449.844L73.3274 436.298V457.011L119.514 484.401V430.349L73.3274 403.698H73.3329Z" fill="#D1D3D4"/>
<path d="M74.0649 322.405L98.0393 336.05L99.146 307.795L74.0649 322.405Z" fill="#414042"/>
<path d="M166.703 322.08L142.09 308.291V336.116L166.703 322.08Z" fill="#414042"/>
<path d="M166.956 289.721V309.641L143.907 322.664V334.943L166.824 322.08L166.956 343.03L120.252 369.687V316.378L166.956 289.721Z" fill="#58595B"/>
<path d="M120.252 316.378V369.687L74.0649 343.03V322.322L97.7144 335.868L97.3014 323.308L74.0649 309.768V289.721L120.252 316.378Z" fill="#414042"/>
<path d="M97.2355 323.308L120.312 336.358V348.792L97.1914 335.56L97.2355 323.308Z" fill="#565556"/>
<path d="M143.813 322.757L120.329 336.287L120.307 348.792L143.813 335.036V322.757Z" fill="url(#paint3_linear_151_2524)"/>
<path d="M127.966 351.954L151.94 365.599L153.047 337.344L127.966 351.954Z" fill="#414042"/>
<path d="M220.598 351.623L174.07 325.771L138.444 357.936L173.982 378.341L220.598 351.623Z" fill="#3B3C3D"/>
<path d="M174.152 345.922V365.412L147.739 351.133L148.967 364.183L174.152 378.22V399.23L127.966 372.579V351.871L151.615 365.412L151.197 352.857L127.966 339.311V319.265L174.152 345.922Z" fill="#333333"/>
<path d="M113.545 351.954L89.5706 365.599L88.4639 337.344L113.545 351.954Z" fill="#414042"/>
<path d="M20.9072 351.623L67.4353 325.771L103.061 357.936L67.5289 378.341L20.9072 351.623Z" fill="#6D6E71"/>
<path d="M67.3525 345.922V365.412L93.7717 351.133L92.5383 364.183L67.3525 378.22V399.23L113.545 372.579V351.871L89.8952 365.412L90.3082 352.857L113.545 339.311V319.265L67.3525 345.922Z" fill="#58595B"/>
<path d="M73.3271 382.974L97.3015 396.624L98.4082 368.37L73.3271 382.974Z" fill="#6D6E71"/>
<path d="M165.965 382.649L141.352 368.86V396.685L165.965 382.649Z" fill="#58595B"/>
<path d="M220.725 351.623L220.852 372.579L174.153 399.23L174.076 378.22L220.73 351.629L220.725 351.623ZM174.153 345.922L174.164 365.693L220.852 339.19V319.265L174.153 345.922ZM119.52 430.994L166.218 403.604L166.092 382.654L143.169 395.517V383.238L166.218 370.221V350.296L119.52 376.952V430.999V430.994Z" fill="#606060"/>
<path d="M20.7864 351.623L67.4356 378.214L67.353 399.224L20.6543 372.573L20.7809 351.618L20.7864 351.623ZM67.3586 345.922L20.6598 319.265V339.19L67.3475 365.693L67.3586 345.922ZM73.3329 350.29V370.336L96.5639 383.877L96.9768 396.431L73.3274 382.891V403.598L119.514 430.988V376.941L73.3274 350.285L73.3329 350.29Z" fill="#D1D3D4"/>
<path d="M74.0649 268.942L98.0393 282.593L99.146 254.338L74.0649 268.942Z" fill="#414042"/>
<path d="M166.703 268.617L142.09 254.829V282.653L166.703 268.617Z" fill="#414042"/>
<path d="M166.956 236.259V256.184L143.907 269.201V281.48L166.824 268.617L166.956 289.572L120.252 316.224V262.915L166.956 236.259Z" fill="#58595B"/>
<path d="M120.252 262.915V316.224L74.0649 289.572V268.865L97.7144 282.406L97.3014 269.851L74.0649 256.305V236.259L120.252 262.915Z" fill="#414042"/>
<path d="M97.2355 269.851L120.312 282.901V295.335L97.1914 282.097L97.2355 269.851Z" fill="#565556"/>
<path d="M143.813 269.295L120.329 282.83L120.307 295.335L143.813 281.574V269.295Z" fill="url(#paint4_linear_151_2524)"/>
<path d="M127.966 298.491L151.94 312.136L153.047 283.882L127.966 298.491Z" fill="#414042"/>
<path d="M220.598 298.166L174.07 272.313L138.444 304.474L173.982 324.878L220.598 298.166Z" fill="#3B3C3D"/>
<path d="M174.152 292.459V311.955L147.739 297.67L148.967 310.721L174.152 324.757V345.773L127.966 319.116V298.409L151.615 311.955L151.197 299.395L127.966 285.854V265.808L174.152 292.459Z" fill="#333333"/>
<path d="M113.545 298.491L89.5706 312.136L88.4639 283.882L113.545 298.491Z" fill="#414042"/>
<path d="M20.9072 298.166L67.4353 272.313L103.061 304.474L67.5289 324.878L20.9072 298.166Z" fill="#6D6E71"/>
<path d="M67.3525 292.459V311.955L93.7717 297.67L92.5383 310.721L67.3525 324.757V345.773L113.545 319.116V298.409L89.8952 311.955L90.3082 299.395L113.545 285.854V265.808L67.3525 292.459Z" fill="#58595B"/>
<path d="M73.3271 329.516L97.3015 343.162L98.4082 314.907L73.3271 329.516Z" fill="#6D6E71"/>
<path d="M165.965 329.191L141.352 315.397V343.222L165.965 329.191Z" fill="#58595B"/>
<path d="M220.725 298.166L220.852 319.121L174.153 345.773L174.076 324.757L220.73 298.166H220.725ZM174.153 292.465L174.164 312.236L220.852 285.733V265.808L174.153 292.465ZM119.52 377.536L166.218 350.147L166.092 329.197L143.169 342.06V329.781L166.218 316.764V296.839L119.52 323.495V377.542V377.536Z" fill="#606060"/>
<path d="M20.7864 298.166L67.4356 324.757L67.353 345.773L20.6543 319.121L20.7809 298.166H20.7864ZM67.3586 292.465L20.6598 265.808V285.733L67.3475 312.236L67.3586 292.465ZM73.3329 296.833V316.879L96.5639 330.42L96.9768 342.98L73.3274 329.439V350.147L119.514 377.536V323.49L73.3274 296.833H73.3329Z" fill="#D1D3D4"/>
<path d="M74.0649 215.485L98.0393 229.13L99.146 200.876L74.0649 215.485Z" fill="#414042"/>
<path d="M166.703 215.155L142.09 201.372V229.191L166.703 215.155Z" fill="#414042"/>
<path d="M166.956 182.796V202.721L143.907 215.744V228.023L166.824 215.154L166.956 236.11L120.252 262.761V209.453L166.956 182.796Z" fill="#58595B"/>
<path d="M120.252 209.453V262.761L74.0649 236.11V215.402L97.7144 228.943L97.3014 216.388L74.0649 202.848V182.796L120.252 209.453Z" fill="#414042"/>
<path d="M97.2355 216.388L120.312 229.439V241.872L97.1914 228.64L97.2355 216.388Z" fill="#565556"/>
<path d="M143.813 215.832L120.329 229.367L120.307 241.872L143.813 228.111V215.832Z" fill="url(#paint5_linear_151_2524)"/>
<path d="M127.966 245.028L151.94 258.674L153.047 230.419L127.966 245.028Z" fill="#414042"/>
<path d="M220.598 244.703L174.07 218.851L138.444 251.011L173.982 271.421L220.598 244.703Z" fill="#3B3C3D"/>
<path d="M174.152 239.002V258.492L147.739 244.213L148.967 257.263L174.152 271.294V292.31L127.966 265.659V244.951L151.615 258.492L151.197 245.937L127.966 232.391V212.345L174.152 239.002Z" fill="#333333"/>
<path d="M113.545 245.028L89.5706 258.674L88.4639 230.419L113.545 245.028Z" fill="#414042"/>
<path d="M20.9072 244.703L67.4353 218.851L103.061 251.011L67.5289 271.421L20.9072 244.703Z" fill="#6D6E71"/>
<path d="M67.3525 239.002V258.492L93.7717 244.213L92.5383 257.263L67.3525 271.294V292.31L113.545 265.659V244.951L89.8952 258.492L90.3082 245.937L113.545 232.391V212.345L67.3525 239.002Z" fill="#58595B"/>
<path d="M73.3271 276.054L97.3015 289.699L98.4082 261.445L73.3271 276.054Z" fill="#6D6E71"/>
<path d="M120.252 209.453L74.0652 182.796L120.252 156.85L166.951 182.796L120.252 209.453ZM174.147 185.655L127.961 212.339L174.147 238.996L220.846 212.339L174.147 185.655ZM67.353 185.655L20.6543 212.339L67.353 238.996L113.54 212.339L67.353 185.655ZM73.3274 243.365L119.514 270.022L166.213 243.365L119.514 216.68L73.3274 243.365Z" fill="#E6E7E8"/>
<path d="M165.965 275.729L141.352 261.94V289.76L165.965 275.729Z" fill="#58595B"/>
<path d="M220.725 244.703L220.852 265.659L174.153 292.31L174.076 271.294L220.73 244.703H220.725ZM174.153 239.002L174.164 258.773L220.852 232.27V212.345L174.153 239.002ZM119.52 324.074L166.218 296.684L166.092 275.734L143.169 288.597V276.318L166.218 263.301V243.376L119.52 270.033V324.079V324.074Z" fill="#606060"/>
<path d="M20.7864 244.703L67.4356 271.294L67.353 292.31L20.6543 265.659L20.7809 244.703H20.7864ZM67.3586 239.002L20.6598 212.345V232.27L67.3475 258.773L67.3586 239.002ZM73.3329 243.37V263.417L96.5639 276.957L96.9768 289.512L73.3274 275.971V296.679L119.514 324.068V270.022L73.3274 243.365L73.3329 243.37Z" fill="#D1D3D4"/>
<path d="M96.4972 437.29L119.568 450.34V462.779L96.4531 449.542L96.4972 437.29Z" fill="#A7A9AC"/>
<path d="M96.4972 383.877L119.568 396.933V409.366L96.4531 396.128L96.4972 383.877Z" fill="#A7A9AC"/>
<path d="M96.4972 330.42L119.568 343.47V355.903L96.4531 342.671L96.4972 330.42Z" fill="#A7A9AC"/>
<path d="M96.4972 276.957L119.568 290.008V302.441L96.4531 289.209L96.4972 276.957Z" fill="#A7A9AC"/>
<path d="M143.075 436.739L119.591 450.274L119.563 462.779L143.075 449.018V436.739Z" fill="#474747"/>
<path d="M143.075 383.326L119.591 396.861L119.563 409.366L143.075 395.605V383.326Z" fill="#474747"/>
<path d="M143.075 329.864L119.591 343.399L119.563 355.903L143.075 342.148V329.864Z" fill="#474747"/>
<path d="M143.075 276.406L119.591 289.936L119.563 302.441L143.075 288.686V276.406Z" fill="#474747"/>
<path d="M125.504 49.1036C123.963 51.8911 120.692 52.5356 116.915 50.3541C111.667 47.3243 107.427 39.9756 107.444 33.9435C107.444 31.6849 108.05 29.9331 109.068 28.7873L109.09 28.7652C109.338 28.5339 109.619 28.3301 109.927 28.1483C109.927 28.1483 110.445 27.8453 111.15 27.4376C111.722 27.2558 112.339 27.1842 113.005 27.2173C110.847 31.0459 113.126 37.5132 114.982 40.7138C116.259 42.9173 118.776 46.0352 121.645 47.787C122.883 48.5472 124.194 49.054 125.499 49.1091L125.504 49.1036Z" fill="#C88300"/>
<path d="M131.016 210.064L136.082 207.123L136.06 214.912L130.994 217.859L131.016 210.064Z" fill="#E89C00"/>
<path d="M125.345 200.237L130.411 197.29L136.082 207.123L131.016 210.064L125.345 200.237Z" fill="#C88300"/>
<path d="M125.378 189.081L130.444 186.861L130.411 197.289L125.345 200.237L125.378 189.081Z" fill="#E89C00"/>
<path d="M131.352 181.948L136.418 179L136.407 183.529L131.341 186.476L131.352 181.948Z" fill="#E89C00"/>
<path d="M122.487 166.584L127.553 163.636L136.418 179L131.352 181.948L122.487 166.584Z" fill="#C88300"/>
<path d="M131.429 155.252L136.495 152.305L136.479 158.552L131.407 161.499L131.429 155.252Z" fill="#E89C00"/>
<path d="M122.256 139.354L127.322 136.407L136.495 152.305L131.429 155.252L122.256 139.354Z" fill="#C88300"/>
<path d="M122.272 133.636L127.338 130.694L127.322 136.406L122.256 139.354L122.272 133.636Z" fill="#E89C00"/>
<path d="M130.994 217.859L136.06 214.912L121.474 224.999L116.408 227.946L130.994 217.859Z" fill="#C88300"/>
<path d="M131.54 115.407L136.605 112.465L136.572 125.433L131.501 128.375L131.54 115.407Z" fill="#E89C00"/>
<path d="M117.014 16.6791C96.5252 4.84629 79.8026 14.3765 79.7365 37.9265C79.6704 61.4764 96.2829 90.2653 116.772 102.098C137.255 113.931 153.978 104.401 154.044 80.8453C154.11 57.2953 137.497 28.5065 117.009 16.6736L117.014 16.6791ZM116.777 99.3658C97.6044 88.2876 82.0492 61.3497 82.1152 39.3036C82.1758 17.2575 97.8302 8.33885 117.003 19.4115C136.176 30.4896 151.726 57.433 151.665 79.4736C151.604 101.52 135.956 110.438 116.777 99.3658Z" fill="#E89C00"/>
<path d="M117.003 19.4113C97.8303 8.33318 82.176 17.2574 82.1154 39.298C82.0548 61.3441 97.6046 88.2875 116.777 99.3601C135.956 110.433 151.605 101.514 151.665 79.4734C151.726 57.4273 136.182 30.4839 117.003 19.4113ZM109.096 28.7597C109.669 28.1262 110.363 27.68 111.156 27.4321C111.728 27.2503 112.345 27.1787 113.011 27.2117C114.217 27.2668 115.566 27.6855 116.981 28.5008C122.229 31.5361 126.468 38.8848 126.457 44.9169C126.457 46.6081 126.111 48.0184 125.51 49.1036C123.969 51.891 120.698 52.5355 116.921 50.3541C111.673 47.3242 107.433 39.9755 107.45 33.9434C107.45 31.6849 108.055 29.9331 109.074 28.7872L109.096 28.7652V28.7597Z" fill="#FFC3D4"/>
<path d="M117.03 8.9666C92.8081 -5.02567 73.1066 6.20671 73.0295 34.0535C72.969 55.9344 85.0442 81.5667 101.971 98.3299L101.767 169.393L101.706 190.497L101.624 219.413L106.403 222.172L106.744 102.66L111.656 105.497L111.32 225.01L116.408 227.946L130.994 217.859L131.016 210.07L125.345 200.242L125.378 189.087L131.341 186.476L131.352 181.947L122.487 166.584L131.413 161.493L131.429 155.246L122.256 139.348L122.272 133.63L131.506 128.369L131.545 115.402C148.51 118.211 160.689 106.593 160.75 84.7122C160.827 56.8654 141.258 22.9534 117.03 8.96109V8.9666ZM116.771 102.098C96.2825 90.265 79.6701 61.4762 79.7362 37.9262C79.8022 14.3762 96.5248 4.84053 117.014 16.6789C137.497 28.5117 154.115 57.3005 154.049 80.8505C153.983 104.406 137.26 113.936 116.771 102.103V102.098Z" fill="#FFC408"/>
<path d="M111.662 105.497L111.321 225.01L106.409 222.173L106.745 102.66L111.662 105.497Z" fill="#FAB800"/>
<path d="M107.879 221.429V103.167L106.745 102.66L106.409 222.173L107.879 221.429Z" fill="#E89C00"/>
<path d="M107.879 221.429L111.321 223.307V225.01L106.409 222.173L107.879 221.429Z" fill="#C88300"/>
<path d="M164.109 66.6326C161.174 53.2132 154.644 39.4799 145.977 27.961C139.116 18.844 130.917 11.1152 122.102 6.01962C109.911 -1.02059 98.8706 -1.67613 90.892 2.96225L85.8262 5.90944C93.7993 1.27106 104.845 1.9266 117.036 8.96681C125.851 14.0569 134.05 21.7912 140.911 30.9082C149.578 42.4271 156.108 56.1604 159.043 69.5798C160.166 74.7195 160.761 79.8151 160.75 84.7179C160.712 98.5504 155.827 108.284 147.959 112.857L153.025 109.909C160.899 105.332 165.777 95.6032 165.816 81.7707C165.832 76.8624 165.232 71.7723 164.109 66.6326Z" fill="#E89C00"/>
<path d="M117.003 19.4113C97.8303 8.33318 82.176 17.2574 82.1154 39.298C82.0548 61.3441 97.6046 88.2875 116.777 99.3601C135.956 110.433 151.605 101.514 151.665 79.4734C151.726 57.4273 136.182 30.4839 117.003 19.4113ZM109.096 28.7597C109.669 28.1262 110.363 27.68 111.156 27.4321C111.728 27.2503 112.345 27.1787 113.011 27.2117C114.217 27.2668 115.566 27.6855 116.981 28.5008C122.229 31.5361 126.468 38.8848 126.457 44.9169C126.457 46.6081 126.111 48.0184 125.51 49.1036C123.969 51.891 120.698 52.5355 116.921 50.3541C111.673 47.3242 107.433 39.9755 107.45 33.9434C107.45 31.6849 108.055 29.9331 109.074 28.7872L109.096 28.7652V28.7597Z" fill="#FFC408"/>
<defs>
<linearGradient id="paint0_linear_151_2524" x1="120.307" y1="389.188" x2="143.813" y2="389.188" gradientUnits="userSpaceOnUse">
<stop stop-color="#C92E36"/>
<stop offset="1" stop-color="#E14932"/>
</linearGradient>
<linearGradient id="paint1_linear_151_2524" x1="170.182" y1="484.566" x2="170.182" y2="212.345" gradientUnits="userSpaceOnUse">
<stop/>
<stop offset="1" stop-color="white"/>
</linearGradient>
<linearGradient id="paint2_linear_151_2524" x1="71.4767" y1="0.00394151" x2="71.4767" y2="0.00394151" gradientUnits="userSpaceOnUse">
<stop/>
<stop offset="1" stop-color="white"/>
</linearGradient>
<linearGradient id="paint3_linear_151_2524" x1="-8.63151e-07" y1="335.775" x2="0.550627" y2="335.775" gradientUnits="userSpaceOnUse">
<stop stop-color="#C92E36"/>
<stop offset="1" stop-color="#E14932"/>
</linearGradient>
<linearGradient id="paint4_linear_151_2524" x1="-8.63151e-07" y1="282.312" x2="0.550627" y2="282.312" gradientUnits="userSpaceOnUse">
<stop stop-color="#C92E36"/>
<stop offset="1" stop-color="#E14932"/>
</linearGradient>
<linearGradient id="paint5_linear_151_2524" x1="-8.63151e-07" y1="228.855" x2="0.550627" y2="228.855" gradientUnits="userSpaceOnUse">
<stop stop-color="#C92E36"/>
<stop offset="1" stop-color="#E14932"/>
</linearGradient>
</defs>
</svg>
