<svg width="80" height="80" viewBox="0 0 80 80" fill="none" xmlns="http://www.w3.org/2000/svg">
<circle cx="40" cy="40" r="40" fill="#2C374B"/>
<mask id="mask0_21_32" style="mask-type:luminance" maskUnits="userSpaceOnUse" x="13" y="10" width="55" height="60">
<path d="M67.375 10H13V70H67.375V10Z" fill="white"/>
</mask>
<g mask="url(#mask0_21_32)">
<path d="M44.7442 44.56L41.7693 52.5248C41.6816 52.7456 41.6816 52.9911 41.7693 53.2119L46.878 66.9204L52.79 63.5822L45.6982 44.56C45.5349 44.1182 44.9073 44.1182 44.7442 44.56Z" fill="#27A0EF"/>
<path d="M50.6932 31.1574C50.53 30.7156 49.9025 30.7156 49.7393 31.1574L46.7645 39.1222C46.6765 39.3432 46.6765 39.5887 46.7645 39.8096L55.1365 62.2559L61.0486 58.9177L50.6932 31.1574Z" fill="#2D9FE9"/>
<path d="M40.1875 13.7186C40.3381 13.7186 40.4763 13.7554 40.6143 13.829L63.1576 26.5555C63.4212 26.7028 63.5843 26.9728 63.5843 27.2673V52.7204C63.5843 53.0149 63.4212 53.2849 63.1576 53.4321L40.6143 66.1711C40.4888 66.2446 40.3381 66.2815 40.1875 66.2815C40.0369 66.2815 39.8988 66.2446 39.7608 66.1711L17.23 53.4445C16.9664 53.2971 16.8032 53.0271 16.8032 52.7327V27.2673C16.8032 26.9728 16.9664 26.7028 17.23 26.5555L39.7733 13.829C39.8988 13.7554 40.0495 13.7186 40.1875 13.7186ZM40.1875 10C39.3843 10 38.5808 10.2086 37.8653 10.6136L15.3221 23.3402C13.8912 24.1501 13 25.6474 13 27.2673V52.7204C13 54.3404 13.8912 55.8499 15.3221 56.6599L37.8653 69.3863C38.5808 69.7913 39.3843 70 40.1875 70C40.9908 70 41.7942 69.7913 42.5097 69.3863L65.0528 56.6599C66.4964 55.8499 67.375 54.3526 67.375 52.7204V27.2673C67.375 25.6474 66.4838 24.1379 65.0528 23.3279L42.5223 10.6136C41.7942 10.2086 40.9908 10 40.1875 10Z" fill="#96BEDC"/>
<path d="M25.2901 62.2808L27.3612 56.7338L31.5284 60.121L27.6373 63.6063L25.2901 62.2808Z" fill="white"/>
<path d="M38.2914 25.4514H32.5803C32.1536 25.4514 31.7643 25.7091 31.6263 26.1019L19.3756 58.9429L25.2876 62.281L38.7809 26.1141C38.8938 25.795 38.6553 25.4514 38.2914 25.4514Z" fill="white"/>
<path d="M48.2941 25.4514H42.583C42.1563 25.4514 41.767 25.7091 41.629 26.1019L27.6336 63.6064L33.5455 66.9446L48.7711 26.1264C48.8965 25.795 48.6457 25.4514 48.2941 25.4514Z" fill="white"/>
</g>
</svg>
