<svg width="80" height="80" viewBox="0 0 80 80" fill="none" xmlns="http://www.w3.org/2000/svg">
<path fill-rule="evenodd" clip-rule="evenodd" d="M80.0001 40C80.0001 62.0914 62.0914 80 40 80C17.9087 80 0 62.0914 0 40C0 17.9086 17.9087 0 40 0C62.0914 0 80.0001 17.9086 80.0001 40ZM28.6653 55.9171H20.9024C19.2713 55.9171 18.4655 55.9171 17.9741 55.6027C17.4435 55.2587 17.1192 54.6888 17.0799 54.06C17.0504 53.4802 17.4533 52.7727 18.2591 51.3576L37.4266 17.5723C38.2422 16.1376 38.6549 15.4203 39.1757 15.155C39.7358 14.8701 40.404 14.8701 40.9641 15.155C41.4849 15.4203 41.8977 16.1376 42.7132 17.5723L46.6537 24.4508L46.6738 24.4859C47.5547 26.0251 48.0014 26.8055 48.1964 27.6247C48.4125 28.5189 48.4125 29.4622 48.1964 30.3565C47.9999 31.1819 47.5576 31.9681 46.6634 33.5305L36.5953 51.3282L36.5692 51.3738C35.6824 52.9256 35.2331 53.712 34.6102 54.3056C33.9323 54.9542 33.1167 55.4258 32.2225 55.6911C31.4069 55.9171 30.493 55.9171 28.6653 55.9171ZM48.2691 55.918H59.3927C61.0337 55.918 61.8591 55.918 62.3505 55.5938C62.881 55.2498 63.2151 54.67 63.2447 54.0412C63.2731 53.4805 62.8789 52.8004 62.1065 51.4677C62.0802 51.4222 62.0533 51.3761 62.0261 51.3291L56.4546 41.7975L56.3912 41.6903C55.6082 40.3661 55.2128 39.6975 54.7055 39.4391C54.1453 39.1541 53.487 39.1541 52.9269 39.4391C52.4159 39.7043 52.0031 40.4021 51.1876 41.8072L45.6357 51.3388L45.6166 51.3717C44.8039 52.7746 44.3977 53.4757 44.427 54.0511C44.4663 54.6799 44.7905 55.2597 45.3212 55.6036C45.8027 55.918 46.6281 55.918 48.2691 55.918Z" fill="#E84142"/>
</svg>
