<svg width="80" height="80" viewBox="0 0 80 80" fill="none" xmlns="http://www.w3.org/2000/svg">
<circle cx="40" cy="40" r="40" fill="#F0B90B"/>
<g clip-path="url(#clip0_21_12)">
<path d="M29.8188 35.1111L40.4997 24.4307L51.1863 35.1167L57.4012 28.9018L40.4997 12L23.6039 28.8962L29.8188 35.1111ZM25.4299 39.4986L19.2151 33.2839L13 39.499L19.2148 45.7137L25.4299 39.4986ZM29.8188 43.8881L40.4997 54.5685L51.1858 43.8828L57.4041 50.0943L57.4012 50.0977L40.4997 66.9992L23.6035 50.1034L23.5948 50.0947L29.8188 43.8881ZM61.7849 45.7166L68 39.5015L61.7852 33.2867L55.5701 39.5018L61.7849 45.7166Z" fill="white"/>
<path d="M46.8037 39.4963H46.8062L40.4997 33.1898L35.8391 37.8505L35.3034 38.386L34.1988 39.4907L34.1901 39.4994L34.1988 39.5085L40.4997 45.8094L46.8062 39.5029L46.8093 39.4994L46.8037 39.4963Z" fill="white"/>
</g>
<defs>
<clipPath id="clip0_21_12">
<rect width="55" height="55" fill="white" transform="translate(13 12)"/>
</clipPath>
</defs>
</svg>
