<svg width="80" height="80" viewBox="0 0 80 80" fill="none" xmlns="http://www.w3.org/2000/svg">
<circle cx="40" cy="40" r="40" fill="#1969FF"/>
<path fill-rule="evenodd" clip-rule="evenodd" d="M37.2552 8.60724L21.5399 16.8691C20.5928 17.367 20.1065 18.0751 20.0367 18.8334H20.0297V18.9392C20.0273 18.9969 20.0273 19.0549 20.0297 19.1131V60.1507C20.027 60.2078 20.0272 60.2772 20.0297 60.3615C20.0536 61.1763 20.5356 61.9949 21.5399 62.5228L37.2552 70.7848C38.7954 71.5943 41.1387 71.5943 42.6788 70.7848L58.3941 62.5228C59.4026 61.9925 59.9169 61.1799 59.9366 60.3615L59.9372 60.3123V18.8334H59.9224C59.8311 18.0833 59.3217 17.3567 58.3941 16.8691L42.6788 8.60724C41.1387 7.79759 38.7954 7.79759 37.2552 8.60724ZM22.5033 60.28L37.2552 67.9942C38.1437 68.4666 39.0681 68.9268 39.967 68.9297C40.7947 68.9325 41.5997 68.5396 42.4131 68.1426L42.5704 68.0661L57.4637 60.2135V42.0018L42.6788 49.7744C41.1387 50.5842 38.7954 50.5842 37.2552 49.7744L22.5033 42.0191V60.28ZM22.5033 36.585L36.5681 29.1908L22.5033 21.7967V36.585ZM57.4637 21.7793V36.6023L43.3657 29.1908L57.4637 21.7793ZM41.5235 10.7844L57.2387 19.0462L57.2746 19.0656L57.2993 19.0796L57.286 19.0873C57.271 19.0958 57.2553 19.1044 57.2387 19.1131L41.5235 27.3749C40.7063 27.8046 39.2276 27.8046 38.4104 27.3749L22.6951 19.1131L22.6593 19.0937L22.6346 19.0796L22.6479 19.072C22.6629 19.0635 22.6786 19.0549 22.6951 19.0462L38.4104 10.7844C39.2276 10.3547 40.7063 10.3547 41.5235 10.7844ZM41.5235 31.0067L57.2387 39.2687L57.2746 39.288L57.2993 39.3019L57.286 39.3096L57.2533 39.3277L57.2387 39.3354L41.5235 47.5972C41.4257 47.6488 41.3184 47.694 41.2039 47.7332V30.8709C41.3184 30.9101 41.4257 30.9553 41.5235 31.0067ZM38.7302 30.8709C38.6157 30.9101 38.5082 30.9553 38.4104 31.0067L22.6951 39.2687C22.6786 39.2773 22.6629 39.2858 22.6479 39.2943L22.6346 39.3019L22.6593 39.3161L22.6951 39.3354L38.4104 47.5972C38.5082 47.6488 38.6157 47.694 38.7302 47.7332V30.8709ZM59.7858 11.6904L58.5055 13.7971L59.3983 14.3333L59.689 14.5105C59.9354 14.6623 60.1379 14.7916 60.3217 14.9149L60.3696 14.9472C61.2072 15.515 61.6658 15.9817 61.9717 16.5924C62.3405 17.3291 62.5263 18.3749 62.5263 19.966H65L64.9996 19.8553C64.9821 16.222 64.0917 14.4754 61.7044 12.8734C61.4812 12.7236 61.2417 12.5711 60.9528 12.3936L60.7849 12.291L59.7858 11.6904ZM21.4943 65.6276L20.2141 67.7344L19.215 67.1337L19.0471 67.0312C18.7582 66.8536 18.5188 66.7013 18.2954 66.5513C15.9082 64.9494 15.0178 63.2028 15.0003 59.5695L15 59.4587H17.4736C17.4736 61.05 17.6594 62.0957 18.0283 62.8324C18.334 63.4431 18.7928 63.9098 19.6304 64.4776L19.6782 64.5099C19.862 64.6331 20.0645 64.7624 20.311 64.9144L20.6017 65.0915L21.4943 65.6276Z" fill="white"/>
</svg>
