<svg width="80" height="80" viewBox="0 0 80 80" fill="none" xmlns="http://www.w3.org/2000/svg">
<circle cx="40" cy="40" r="40" fill="#FF0420"/>
<path d="M21.984 55.6449C18.4628 55.6449 15.5778 54.8245 13.3289 53.1835C11.1096 51.5135 10 49.1401 10 46.0634C10 45.4188 10.074 44.6277 10.2219 43.6901C10.6066 41.5805 11.154 39.046 11.8642 36.0866C13.8763 28.0289 19.0694 24 27.4435 24C29.7219 24 31.7636 24.3809 33.5686 25.1427C35.3737 25.8753 36.7939 26.9887 37.8296 28.483C38.8652 29.9481 39.3831 31.7061 39.3831 33.7572C39.3831 34.3725 39.3092 35.149 39.1612 36.0866C38.7173 38.6944 38.1847 41.2289 37.5633 43.6901C36.5276 47.7044 34.7374 50.7077 32.1927 52.7002C29.6478 54.6633 26.2451 55.6449 21.984 55.6449ZM22.6054 49.3159C24.2625 49.3159 25.668 48.8324 26.8221 47.8655C28.0056 46.8986 28.849 45.4188 29.352 43.4265C30.0326 40.6721 30.5503 38.2695 30.9056 36.2184C31.0239 35.6031 31.0831 34.9731 31.0831 34.3285C31.0831 31.6622 29.6774 30.329 26.8664 30.329C25.2094 30.329 23.789 30.8124 22.6054 31.7794C21.4514 32.7463 20.6229 34.226 20.1199 36.2184C19.5872 38.1816 19.0546 40.5843 18.522 43.4265C18.4036 44.0124 18.3444 44.6277 18.3444 45.2723C18.3444 47.968 19.7648 49.3159 22.6054 49.3159Z" fill="white"/>
<path d="M41.5052 54.3342C41.1884 54.3342 40.9439 54.2344 40.7712 54.035C40.6273 53.8069 40.584 53.5505 40.6416 53.2654L46.5996 25.4768C46.6572 25.1632 46.8156 24.9067 47.0746 24.7072C47.3336 24.5077 47.6071 24.408 47.8949 24.408H59.3791C62.574 24.408 65.1356 25.0635 67.0641 26.3745C69.0213 27.6856 70 29.5809 70 32.0605C70 32.7731 69.9137 33.5141 69.741 34.2836C69.0213 37.5613 67.5678 39.9838 65.3804 41.5515C63.2217 43.119 60.257 43.9027 56.4864 43.9027H50.658L48.672 53.2654C48.6144 53.579 48.456 53.8354 48.197 54.035C47.938 54.2344 47.6647 54.3342 47.3767 54.3342H41.5052ZM56.7887 38.003C57.9976 38.003 59.0482 37.6753 59.9404 37.0197C60.8615 36.3642 61.4659 35.4237 61.7537 34.1981C61.84 33.7136 61.8833 33.2861 61.8833 32.9156C61.8833 32.089 61.6386 31.462 61.1493 31.0345C60.66 30.5785 59.8253 30.3505 58.6453 30.3505H53.4643L51.8237 38.003H56.7887Z" fill="white"/>
</svg>
