<svg width="80" height="80" viewBox="0 0 80 80" fill="none" xmlns="http://www.w3.org/2000/svg">
<circle cx="40" cy="40" r="40" fill="url(#paint0_linear_21_17)"/>
<path d="M39.8699 26.7264L35.845 49.6087C35.7691 50.0285 35.5849 50.4213 35.3106 50.7481C35.0364 51.0749 34.6816 51.3245 34.2813 51.4722L27.2988 54.0223C26.8983 54.163 26.468 54.1965 26.0505 54.1195C25.6331 54.0424 25.2431 53.8574 24.9193 53.583L19.2356 48.8138C18.9089 48.5393 18.6601 48.1836 18.5143 47.7826C18.3685 47.3815 18.3307 46.9491 18.4048 46.5289L19.6916 39.2239C19.7676 38.8041 19.9518 38.4113 20.226 38.0845C20.5002 37.7577 20.855 37.5081 21.2553 37.3604L28.2258 34.8246C28.6269 34.6787 29.0592 34.6408 29.4795 34.7147C29.8998 34.7887 30.2932 34.9719 30.6203 35.246L33.3475 37.5344C33.429 37.6026 33.5269 37.6482 33.6315 37.6668C33.7361 37.6854 33.8437 37.6763 33.9437 37.6403C34.0436 37.6044 34.1324 37.5429 34.2012 37.4619C34.27 37.381 34.3164 37.2834 34.3358 37.179L35.0058 33.3747C35.0423 33.1649 35.0229 32.9491 34.9494 32.7491C34.876 32.5492 34.7511 32.3721 34.5874 32.2358L31.5914 29.722C31.2648 29.4482 30.872 29.2649 30.4524 29.1903C30.0328 29.1157 29.6009 29.1525 29.2 29.2969L16.9435 33.7729C16.5419 33.9185 16.1859 34.1675 15.9114 34.4946C15.6369 34.8218 15.4535 35.2157 15.3798 35.6364L13.1152 48.466C13.0411 48.8862 13.0789 49.3186 13.2247 49.7197C13.3706 50.1207 13.6193 50.4764 13.9461 50.7509L23.9302 59.1286C24.2572 59.4027 24.6507 59.5859 25.071 59.6599C25.4913 59.7338 25.9236 59.6959 26.3246 59.55L38.5661 55.092C38.9676 54.9464 39.3236 54.6974 39.5982 54.3702C39.8727 54.043 40.0561 53.6492 40.1298 53.2285L44.1547 30.3462C44.2306 29.9264 44.4148 29.5336 44.6891 29.2068C44.9633 28.88 45.3181 28.6304 45.7184 28.4827L52.6889 25.9469C53.0899 25.8009 53.5223 25.763 53.9426 25.837C54.3628 25.911 54.7563 26.0942 55.0834 26.3683L60.7671 31.1375C61.0938 31.412 61.3426 31.7677 61.4884 32.1687C61.6342 32.5698 61.672 33.0022 61.5979 33.4224L60.3231 40.7131C60.2471 41.1329 60.063 41.5256 59.7887 41.8525C59.5145 42.1793 59.1597 42.4289 58.7594 42.5766L51.7889 45.1124C51.3879 45.2583 50.9555 45.2962 50.5352 45.2222C50.1149 45.1483 49.7215 44.965 49.3944 44.6909L46.6636 42.3996C46.5824 42.3308 46.4845 42.2848 46.3798 42.266C46.2751 42.2473 46.1672 42.2567 46.0673 42.293C45.9673 42.3294 45.8787 42.3916 45.8105 42.4733C45.7423 42.5549 45.6969 42.6531 45.6789 42.758L45.0053 46.5592C44.9693 46.7691 44.989 46.9847 45.0624 47.1846C45.1358 47.3844 45.2604 47.5615 45.4237 47.6981L48.4233 50.215C48.7499 50.4888 49.1427 50.6721 49.5623 50.7466C49.9819 50.8212 50.4138 50.7845 50.8147 50.64L63.0562 46.182C63.4577 46.0364 63.8137 45.7874 64.0883 45.4602C64.3628 45.133 64.5462 44.7392 64.6199 44.3185L66.8844 31.4889C66.9585 31.0686 66.9208 30.6363 66.775 30.2352C66.6291 29.8341 66.3804 29.4785 66.0536 29.204L56.0695 20.8263C55.7424 20.5522 55.349 20.369 54.9287 20.295C54.5084 20.2211 54.0761 20.259 53.675 20.4049L41.4336 24.8629C41.0321 25.0085 40.6761 25.2575 40.4015 25.5847C40.127 25.9119 39.9436 26.3057 39.8699 26.7264Z" fill="url(#paint1_linear_21_17)"/>
<defs>
<linearGradient id="paint0_linear_21_17" x1="40" y1="0" x2="40" y2="80" gradientUnits="userSpaceOnUse">
<stop stop-color="#9530CF"/>
<stop offset="1" stop-color="#7C3EE3"/>
</linearGradient>
<linearGradient id="paint1_linear_21_17" x1="23.1644" y1="25.8508" x2="56.8353" y2="54.104" gradientUnits="userSpaceOnUse">
<stop stop-color="white"/>
<stop offset="1" stop-color="white" stop-opacity="0.54"/>
</linearGradient>
</defs>
</svg>
