<svg width="24" height="24" viewBox="0 0 24 24" fill="none" xmlns="http://www.w3.org/2000/svg">
<mask id="path-1-outside-1_1_20880" maskUnits="userSpaceOnUse" x="0" y="0" width="24" height="24" fill="black">
<rect fill="white" width="24" height="24"/>
<path d="M21.4222 10.4222C20.6659 10.4222 20.0369 10.955 19.8822 11.6666H18.6138C18.5347 10.0888 17.9056 8.65875 16.9122 7.55875L17.8128 6.65812C18.1152 6.85298 18.4752 6.93844 18.8329 6.90029C19.1907 6.86214 19.5245 6.70268 19.7791 6.44844C20.0746 6.15242 20.2406 5.75124 20.2406 5.33297C20.2406 4.91469 20.0746 4.51351 19.7791 4.2175C19.483 3.92199 19.0819 3.75601 18.6636 3.75601C18.2453 3.75601 17.8441 3.92199 17.5481 4.2175C17.2946 4.47241 17.1356 4.80622 17.0974 5.16374C17.0593 5.52127 17.1443 5.8811 17.3384 6.18375L16.4378 7.08438C15.3378 6.09094 13.9078 5.46188 12.33 5.38281V4.11781C13.0381 3.96312 13.5744 3.33406 13.5744 2.57781C13.5748 2.37079 13.5344 2.16571 13.4554 1.97432C13.3765 1.78293 13.2606 1.60899 13.1144 1.46244C12.9681 1.31589 12.7944 1.19961 12.6032 1.12026C12.412 1.04091 12.207 1.00004 12 1C11.1303 1 10.4222 1.70813 10.4222 2.57781C10.4222 3.33406 10.955 3.96312 11.6666 4.11781V5.38625C10.0888 5.46531 8.65875 6.09437 7.55875 7.08781L6.65812 6.18719C6.85285 5.88474 6.93824 5.52477 6.90009 5.16708C6.86195 4.80939 6.70257 4.47552 6.44844 4.22094C6.30253 4.07425 6.12895 3.958 5.93776 3.87893C5.74657 3.79986 5.54158 3.75954 5.33469 3.76031C4.91531 3.76031 4.51656 3.92531 4.22094 4.22094C3.92188 4.52 3.76031 4.91531 3.76031 5.33469C3.76031 5.7575 3.92531 6.15281 4.22094 6.44844C4.52 6.7475 4.91531 6.90906 5.33469 6.90906C5.64062 6.90906 5.93625 6.81969 6.18719 6.65812L7.08781 7.55875C6.09437 8.65875 5.46531 10.0888 5.38625 11.6666H4.11781C3.96312 10.9584 3.33406 10.4222 2.57781 10.4222C1.70813 10.4222 1 11.1303 1 12C1 12.8697 1.70813 13.5778 2.57781 13.5778C3.33406 13.5778 3.96312 13.045 4.11781 12.3334H5.38625C5.46531 13.9113 6.09437 15.3412 7.08781 16.4412L6.18719 17.3419C5.88474 17.1471 5.52477 17.0618 5.16708 17.0999C4.80939 17.1381 4.47552 17.2974 4.22094 17.5516C3.92188 17.8506 3.76031 18.2459 3.76031 18.6653C3.76031 19.0847 3.92531 19.4834 4.22094 19.7791C4.52 20.0781 4.91531 20.2397 5.33469 20.2397C5.7575 20.2397 6.15281 20.0747 6.44844 19.7791C6.7475 19.48 6.90906 19.0847 6.90906 18.6653C6.90906 18.3594 6.81969 18.0637 6.65812 17.8128L7.55875 16.9122C8.65875 17.9056 10.0888 18.5347 11.6666 18.6138V19.8822C10.9584 20.0369 10.4222 20.6659 10.4222 21.4222C10.4222 22.2919 11.1303 23 12 23C12.8697 23 13.5778 22.2919 13.5778 21.4222C13.5778 20.6659 13.045 20.0369 12.3334 19.8822V18.6138C13.9113 18.5347 15.3412 17.9056 16.4412 16.9122L17.3419 17.8128C16.95 18.4247 17.0188 19.2463 17.5516 19.7791C17.8575 20.085 18.2631 20.2397 18.6653 20.2397C19.0675 20.2397 19.4731 20.085 19.7791 19.7791C20.0746 19.483 20.2406 19.0819 20.2406 18.6636C20.2406 18.2453 20.0746 17.8441 19.7791 17.5481C19.5242 17.2946 19.1903 17.1356 18.8328 17.0974C18.4753 17.0593 18.1155 17.1443 17.8128 17.3384L16.9122 16.4378C17.9056 15.3378 18.5347 13.9078 18.6138 12.33H19.8822C20.0369 13.0381 20.6659 13.5744 21.4222 13.5744C22.2919 13.5744 23 12.8663 23 11.9966C23 11.1269 22.2919 10.4222 21.4222 10.4222ZM18.0191 4.69188C18.1978 4.51313 18.4281 4.42719 18.6619 4.42719C18.8956 4.42719 19.1294 4.51656 19.3047 4.69188C19.4747 4.8626 19.5702 5.09374 19.5702 5.33469C19.5702 5.57564 19.4747 5.80677 19.3047 5.9775C19.134 6.14753 18.9028 6.24299 18.6619 6.24299C18.4209 6.24299 18.1898 6.14753 18.0191 5.9775C17.665 5.62687 17.665 5.04938 18.0191 4.69188ZM5.98094 5.98094C5.63719 6.32469 5.03906 6.32469 4.69531 5.98094C4.52344 5.80906 4.42719 5.58219 4.42719 5.33813C4.42719 5.09406 4.52344 4.86719 4.69531 4.69531C4.86719 4.52344 5.09406 4.42719 5.33813 4.42719C5.58219 4.42719 5.80906 4.52344 5.98094 4.69531C6.15281 4.86719 6.24906 5.09406 6.24906 5.33813C6.24563 5.57875 6.15281 5.80906 5.98094 5.98094ZM2.57781 12.9109C2.07594 12.9109 1.66688 12.5019 1.66688 12C1.66688 11.4981 2.07594 11.0891 2.57781 11.0891C3.07969 11.0891 3.48875 11.4981 3.48875 12C3.48775 12.2413 3.39146 12.4724 3.22084 12.643C3.05022 12.8136 2.8191 12.9099 2.57781 12.9109ZM5.98094 19.3081C5.63719 19.6519 5.03906 19.6519 4.69531 19.3081C4.52344 19.1363 4.42719 18.9094 4.42719 18.6653C4.42719 18.4213 4.52344 18.1944 4.69531 18.0225C4.86719 17.8506 5.09406 17.7544 5.33813 17.7544C5.58219 17.7544 5.80906 17.8506 5.98094 18.0225C6.15281 18.1944 6.24906 18.4213 6.24906 18.6653C6.24563 18.9059 6.15281 19.1363 5.98094 19.3081ZM18.0191 18.0191C18.1898 17.849 18.4209 17.7536 18.6619 17.7536C18.9028 17.7536 19.134 17.849 19.3047 18.0191C19.4747 18.1898 19.5702 18.4209 19.5702 18.6619C19.5702 18.9028 19.4747 19.134 19.3047 19.3047C19.134 19.4747 18.9028 19.5702 18.6619 19.5702C18.4209 19.5702 18.1898 19.4747 18.0191 19.3047C17.849 19.134 17.7536 18.9028 17.7536 18.6619C17.7536 18.4209 17.849 18.1898 18.0191 18.0191ZM11.0891 2.57781C11.0891 2.07594 11.4981 1.66688 12 1.66688C12.5019 1.66688 12.9109 2.07594 12.9109 2.57781C12.9109 3.07969 12.5019 3.48875 12 3.48875C11.7587 3.48775 11.5276 3.39146 11.357 3.22084C11.1864 3.05022 11.0901 2.8191 11.0891 2.57781ZM12.9109 21.4222C12.9109 21.9241 12.5019 22.3331 12 22.3331C11.4981 22.3331 11.0891 21.9241 11.0891 21.4222C11.0891 20.9203 11.4981 20.5113 12 20.5113C12.5019 20.5147 12.9109 20.9203 12.9109 21.4222ZM12 17.9641C8.71031 17.9641 6.03594 15.2897 6.03594 12C6.03594 8.71031 8.71031 6.03594 12 6.03594C15.2897 6.03594 17.9641 8.71031 17.9641 12C17.9641 15.2897 15.2897 17.9641 12 17.9641ZM21.4222 12.9109C20.9203 12.9109 20.5113 12.5019 20.5113 12C20.5113 11.4981 20.9203 11.0891 21.4222 11.0891C21.9241 11.0891 22.3331 11.4981 22.3331 12C22.3331 12.5019 21.9241 12.9109 21.4222 12.9109Z"/>
</mask>
<path d="M21.4222 10.4222C20.6659 10.4222 20.0369 10.955 19.8822 11.6666H18.6138C18.5347 10.0888 17.9056 8.65875 16.9122 7.55875L17.8128 6.65812C18.1152 6.85298 18.4752 6.93844 18.8329 6.90029C19.1907 6.86214 19.5245 6.70268 19.7791 6.44844C20.0746 6.15242 20.2406 5.75124 20.2406 5.33297C20.2406 4.91469 20.0746 4.51351 19.7791 4.2175C19.483 3.92199 19.0819 3.75601 18.6636 3.75601C18.2453 3.75601 17.8441 3.92199 17.5481 4.2175C17.2946 4.47241 17.1356 4.80622 17.0974 5.16374C17.0593 5.52127 17.1443 5.8811 17.3384 6.18375L16.4378 7.08438C15.3378 6.09094 13.9078 5.46188 12.33 5.38281V4.11781C13.0381 3.96312 13.5744 3.33406 13.5744 2.57781C13.5748 2.37079 13.5344 2.16571 13.4554 1.97432C13.3765 1.78293 13.2606 1.60899 13.1144 1.46244C12.9681 1.31589 12.7944 1.19961 12.6032 1.12026C12.412 1.04091 12.207 1.00004 12 1C11.1303 1 10.4222 1.70813 10.4222 2.57781C10.4222 3.33406 10.955 3.96312 11.6666 4.11781V5.38625C10.0888 5.46531 8.65875 6.09437 7.55875 7.08781L6.65812 6.18719C6.85285 5.88474 6.93824 5.52477 6.90009 5.16708C6.86195 4.80939 6.70257 4.47552 6.44844 4.22094C6.30253 4.07425 6.12895 3.958 5.93776 3.87893C5.74657 3.79986 5.54158 3.75954 5.33469 3.76031C4.91531 3.76031 4.51656 3.92531 4.22094 4.22094C3.92188 4.52 3.76031 4.91531 3.76031 5.33469C3.76031 5.7575 3.92531 6.15281 4.22094 6.44844C4.52 6.7475 4.91531 6.90906 5.33469 6.90906C5.64062 6.90906 5.93625 6.81969 6.18719 6.65812L7.08781 7.55875C6.09437 8.65875 5.46531 10.0888 5.38625 11.6666H4.11781C3.96312 10.9584 3.33406 10.4222 2.57781 10.4222C1.70813 10.4222 1 11.1303 1 12C1 12.8697 1.70813 13.5778 2.57781 13.5778C3.33406 13.5778 3.96312 13.045 4.11781 12.3334H5.38625C5.46531 13.9113 6.09437 15.3412 7.08781 16.4412L6.18719 17.3419C5.88474 17.1471 5.52477 17.0618 5.16708 17.0999C4.80939 17.1381 4.47552 17.2974 4.22094 17.5516C3.92188 17.8506 3.76031 18.2459 3.76031 18.6653C3.76031 19.0847 3.92531 19.4834 4.22094 19.7791C4.52 20.0781 4.91531 20.2397 5.33469 20.2397C5.7575 20.2397 6.15281 20.0747 6.44844 19.7791C6.7475 19.48 6.90906 19.0847 6.90906 18.6653C6.90906 18.3594 6.81969 18.0637 6.65812 17.8128L7.55875 16.9122C8.65875 17.9056 10.0888 18.5347 11.6666 18.6138V19.8822C10.9584 20.0369 10.4222 20.6659 10.4222 21.4222C10.4222 22.2919 11.1303 23 12 23C12.8697 23 13.5778 22.2919 13.5778 21.4222C13.5778 20.6659 13.045 20.0369 12.3334 19.8822V18.6138C13.9113 18.5347 15.3412 17.9056 16.4412 16.9122L17.3419 17.8128C16.95 18.4247 17.0188 19.2463 17.5516 19.7791C17.8575 20.085 18.2631 20.2397 18.6653 20.2397C19.0675 20.2397 19.4731 20.085 19.7791 19.7791C20.0746 19.483 20.2406 19.0819 20.2406 18.6636C20.2406 18.2453 20.0746 17.8441 19.7791 17.5481C19.5242 17.2946 19.1903 17.1356 18.8328 17.0974C18.4753 17.0593 18.1155 17.1443 17.8128 17.3384L16.9122 16.4378C17.9056 15.3378 18.5347 13.9078 18.6138 12.33H19.8822C20.0369 13.0381 20.6659 13.5744 21.4222 13.5744C22.2919 13.5744 23 12.8663 23 11.9966C23 11.1269 22.2919 10.4222 21.4222 10.4222ZM18.0191 4.69188C18.1978 4.51313 18.4281 4.42719 18.6619 4.42719C18.8956 4.42719 19.1294 4.51656 19.3047 4.69188C19.4747 4.8626 19.5702 5.09374 19.5702 5.33469C19.5702 5.57564 19.4747 5.80677 19.3047 5.9775C19.134 6.14753 18.9028 6.24299 18.6619 6.24299C18.4209 6.24299 18.1898 6.14753 18.0191 5.9775C17.665 5.62687 17.665 5.04938 18.0191 4.69188ZM5.98094 5.98094C5.63719 6.32469 5.03906 6.32469 4.69531 5.98094C4.52344 5.80906 4.42719 5.58219 4.42719 5.33813C4.42719 5.09406 4.52344 4.86719 4.69531 4.69531C4.86719 4.52344 5.09406 4.42719 5.33813 4.42719C5.58219 4.42719 5.80906 4.52344 5.98094 4.69531C6.15281 4.86719 6.24906 5.09406 6.24906 5.33813C6.24563 5.57875 6.15281 5.80906 5.98094 5.98094ZM2.57781 12.9109C2.07594 12.9109 1.66688 12.5019 1.66688 12C1.66688 11.4981 2.07594 11.0891 2.57781 11.0891C3.07969 11.0891 3.48875 11.4981 3.48875 12C3.48775 12.2413 3.39146 12.4724 3.22084 12.643C3.05022 12.8136 2.8191 12.9099 2.57781 12.9109ZM5.98094 19.3081C5.63719 19.6519 5.03906 19.6519 4.69531 19.3081C4.52344 19.1363 4.42719 18.9094 4.42719 18.6653C4.42719 18.4213 4.52344 18.1944 4.69531 18.0225C4.86719 17.8506 5.09406 17.7544 5.33813 17.7544C5.58219 17.7544 5.80906 17.8506 5.98094 18.0225C6.15281 18.1944 6.24906 18.4213 6.24906 18.6653C6.24563 18.9059 6.15281 19.1363 5.98094 19.3081ZM18.0191 18.0191C18.1898 17.849 18.4209 17.7536 18.6619 17.7536C18.9028 17.7536 19.134 17.849 19.3047 18.0191C19.4747 18.1898 19.5702 18.4209 19.5702 18.6619C19.5702 18.9028 19.4747 19.134 19.3047 19.3047C19.134 19.4747 18.9028 19.5702 18.6619 19.5702C18.4209 19.5702 18.1898 19.4747 18.0191 19.3047C17.849 19.134 17.7536 18.9028 17.7536 18.6619C17.7536 18.4209 17.849 18.1898 18.0191 18.0191ZM11.0891 2.57781C11.0891 2.07594 11.4981 1.66688 12 1.66688C12.5019 1.66688 12.9109 2.07594 12.9109 2.57781C12.9109 3.07969 12.5019 3.48875 12 3.48875C11.7587 3.48775 11.5276 3.39146 11.357 3.22084C11.1864 3.05022 11.0901 2.8191 11.0891 2.57781ZM12.9109 21.4222C12.9109 21.9241 12.5019 22.3331 12 22.3331C11.4981 22.3331 11.0891 21.9241 11.0891 21.4222C11.0891 20.9203 11.4981 20.5113 12 20.5113C12.5019 20.5147 12.9109 20.9203 12.9109 21.4222ZM12 17.9641C8.71031 17.9641 6.03594 15.2897 6.03594 12C6.03594 8.71031 8.71031 6.03594 12 6.03594C15.2897 6.03594 17.9641 8.71031 17.9641 12C17.9641 15.2897 15.2897 17.9641 12 17.9641ZM21.4222 12.9109C20.9203 12.9109 20.5113 12.5019 20.5113 12C20.5113 11.4981 20.9203 11.0891 21.4222 11.0891C21.9241 11.0891 22.3331 11.4981 22.3331 12C22.3331 12.5019 21.9241 12.9109 21.4222 12.9109Z" fill="white"/>
<path d="M21.4222 10.4222C20.6659 10.4222 20.0369 10.955 19.8822 11.6666H18.6138C18.5347 10.0888 17.9056 8.65875 16.9122 7.55875L17.8128 6.65812C18.1152 6.85298 18.4752 6.93844 18.8329 6.90029C19.1907 6.86214 19.5245 6.70268 19.7791 6.44844C20.0746 6.15242 20.2406 5.75124 20.2406 5.33297C20.2406 4.91469 20.0746 4.51351 19.7791 4.2175C19.483 3.92199 19.0819 3.75601 18.6636 3.75601C18.2453 3.75601 17.8441 3.92199 17.5481 4.2175C17.2946 4.47241 17.1356 4.80622 17.0974 5.16374C17.0593 5.52127 17.1443 5.8811 17.3384 6.18375L16.4378 7.08438C15.3378 6.09094 13.9078 5.46188 12.33 5.38281V4.11781C13.0381 3.96312 13.5744 3.33406 13.5744 2.57781C13.5748 2.37079 13.5344 2.16571 13.4554 1.97432C13.3765 1.78293 13.2606 1.60899 13.1144 1.46244C12.9681 1.31589 12.7944 1.19961 12.6032 1.12026C12.412 1.04091 12.207 1.00004 12 1C11.1303 1 10.4222 1.70813 10.4222 2.57781C10.4222 3.33406 10.955 3.96312 11.6666 4.11781V5.38625C10.0888 5.46531 8.65875 6.09437 7.55875 7.08781L6.65812 6.18719C6.85285 5.88474 6.93824 5.52477 6.90009 5.16708C6.86195 4.80939 6.70257 4.47552 6.44844 4.22094C6.30253 4.07425 6.12895 3.958 5.93776 3.87893C5.74657 3.79986 5.54158 3.75954 5.33469 3.76031C4.91531 3.76031 4.51656 3.92531 4.22094 4.22094C3.92188 4.52 3.76031 4.91531 3.76031 5.33469C3.76031 5.7575 3.92531 6.15281 4.22094 6.44844C4.52 6.7475 4.91531 6.90906 5.33469 6.90906C5.64062 6.90906 5.93625 6.81969 6.18719 6.65812L7.08781 7.55875C6.09437 8.65875 5.46531 10.0888 5.38625 11.6666H4.11781C3.96312 10.9584 3.33406 10.4222 2.57781 10.4222C1.70813 10.4222 1 11.1303 1 12C1 12.8697 1.70813 13.5778 2.57781 13.5778C3.33406 13.5778 3.96312 13.045 4.11781 12.3334H5.38625C5.46531 13.9113 6.09437 15.3412 7.08781 16.4412L6.18719 17.3419C5.88474 17.1471 5.52477 17.0618 5.16708 17.0999C4.80939 17.1381 4.47552 17.2974 4.22094 17.5516C3.92188 17.8506 3.76031 18.2459 3.76031 18.6653C3.76031 19.0847 3.92531 19.4834 4.22094 19.7791C4.52 20.0781 4.91531 20.2397 5.33469 20.2397C5.7575 20.2397 6.15281 20.0747 6.44844 19.7791C6.7475 19.48 6.90906 19.0847 6.90906 18.6653C6.90906 18.3594 6.81969 18.0637 6.65812 17.8128L7.55875 16.9122C8.65875 17.9056 10.0888 18.5347 11.6666 18.6138V19.8822C10.9584 20.0369 10.4222 20.6659 10.4222 21.4222C10.4222 22.2919 11.1303 23 12 23C12.8697 23 13.5778 22.2919 13.5778 21.4222C13.5778 20.6659 13.045 20.0369 12.3334 19.8822V18.6138C13.9113 18.5347 15.3412 17.9056 16.4412 16.9122L17.3419 17.8128C16.95 18.4247 17.0188 19.2463 17.5516 19.7791C17.8575 20.085 18.2631 20.2397 18.6653 20.2397C19.0675 20.2397 19.4731 20.085 19.7791 19.7791C20.0746 19.483 20.2406 19.0819 20.2406 18.6636C20.2406 18.2453 20.0746 17.8441 19.7791 17.5481C19.5242 17.2946 19.1903 17.1356 18.8328 17.0974C18.4753 17.0593 18.1155 17.1443 17.8128 17.3384L16.9122 16.4378C17.9056 15.3378 18.5347 13.9078 18.6138 12.33H19.8822C20.0369 13.0381 20.6659 13.5744 21.4222 13.5744C22.2919 13.5744 23 12.8663 23 11.9966C23 11.1269 22.2919 10.4222 21.4222 10.4222ZM18.0191 4.69188C18.1978 4.51313 18.4281 4.42719 18.6619 4.42719C18.8956 4.42719 19.1294 4.51656 19.3047 4.69188C19.4747 4.8626 19.5702 5.09374 19.5702 5.33469C19.5702 5.57564 19.4747 5.80677 19.3047 5.9775C19.134 6.14753 18.9028 6.24299 18.6619 6.24299C18.4209 6.24299 18.1898 6.14753 18.0191 5.9775C17.665 5.62687 17.665 5.04938 18.0191 4.69188ZM5.98094 5.98094C5.63719 6.32469 5.03906 6.32469 4.69531 5.98094C4.52344 5.80906 4.42719 5.58219 4.42719 5.33813C4.42719 5.09406 4.52344 4.86719 4.69531 4.69531C4.86719 4.52344 5.09406 4.42719 5.33813 4.42719C5.58219 4.42719 5.80906 4.52344 5.98094 4.69531C6.15281 4.86719 6.24906 5.09406 6.24906 5.33813C6.24563 5.57875 6.15281 5.80906 5.98094 5.98094ZM2.57781 12.9109C2.07594 12.9109 1.66688 12.5019 1.66688 12C1.66688 11.4981 2.07594 11.0891 2.57781 11.0891C3.07969 11.0891 3.48875 11.4981 3.48875 12C3.48775 12.2413 3.39146 12.4724 3.22084 12.643C3.05022 12.8136 2.8191 12.9099 2.57781 12.9109ZM5.98094 19.3081C5.63719 19.6519 5.03906 19.6519 4.69531 19.3081C4.52344 19.1363 4.42719 18.9094 4.42719 18.6653C4.42719 18.4213 4.52344 18.1944 4.69531 18.0225C4.86719 17.8506 5.09406 17.7544 5.33813 17.7544C5.58219 17.7544 5.80906 17.8506 5.98094 18.0225C6.15281 18.1944 6.24906 18.4213 6.24906 18.6653C6.24563 18.9059 6.15281 19.1363 5.98094 19.3081ZM18.0191 18.0191C18.1898 17.849 18.4209 17.7536 18.6619 17.7536C18.9028 17.7536 19.134 17.849 19.3047 18.0191C19.4747 18.1898 19.5702 18.4209 19.5702 18.6619C19.5702 18.9028 19.4747 19.134 19.3047 19.3047C19.134 19.4747 18.9028 19.5702 18.6619 19.5702C18.4209 19.5702 18.1898 19.4747 18.0191 19.3047C17.849 19.134 17.7536 18.9028 17.7536 18.6619C17.7536 18.4209 17.849 18.1898 18.0191 18.0191ZM11.0891 2.57781C11.0891 2.07594 11.4981 1.66688 12 1.66688C12.5019 1.66688 12.9109 2.07594 12.9109 2.57781C12.9109 3.07969 12.5019 3.48875 12 3.48875C11.7587 3.48775 11.5276 3.39146 11.357 3.22084C11.1864 3.05022 11.0901 2.8191 11.0891 2.57781ZM12.9109 21.4222C12.9109 21.9241 12.5019 22.3331 12 22.3331C11.4981 22.3331 11.0891 21.9241 11.0891 21.4222C11.0891 20.9203 11.4981 20.5113 12 20.5113C12.5019 20.5147 12.9109 20.9203 12.9109 21.4222ZM12 17.9641C8.71031 17.9641 6.03594 15.2897 6.03594 12C6.03594 8.71031 8.71031 6.03594 12 6.03594C15.2897 6.03594 17.9641 8.71031 17.9641 12C17.9641 15.2897 15.2897 17.9641 12 17.9641ZM21.4222 12.9109C20.9203 12.9109 20.5113 12.5019 20.5113 12C20.5113 11.4981 20.9203 11.0891 21.4222 11.0891C21.9241 11.0891 22.3331 11.4981 22.3331 12C22.3331 12.5019 21.9241 12.9109 21.4222 12.9109Z" stroke="white" stroke-width="0.4" mask="url(#path-1-outside-1_1_20880)"/>
<path d="M11.8 11.2C12.1165 11.2 12.4258 11.1062 12.6889 10.9304C12.952 10.7545 13.1571 10.5047 13.2782 10.2123C13.3993 9.91993 13.431 9.59823 13.3693 9.28786C13.3075 8.97749 13.1551 8.69239 12.9314 8.46863C12.7076 8.24487 12.4225 8.09248 12.1121 8.03074C11.8018 7.96901 11.4801 8.00069 11.1877 8.12179C10.8953 8.24289 10.6455 8.44797 10.4696 8.71109C10.2938 8.97421 10.2 9.28355 10.2 9.6C10.2 10.0243 10.3686 10.4313 10.6686 10.7314C10.9687 11.0314 11.3757 11.2 11.8 11.2ZM11.8 8.8C11.9582 8.8 12.1129 8.84692 12.2445 8.93483C12.376 9.02273 12.4786 9.14767 12.5391 9.29385C12.5997 9.44003 12.6155 9.60089 12.5846 9.75607C12.5538 9.91126 12.4776 10.0538 12.3657 10.1657C12.2538 10.2776 12.1113 10.3538 11.9561 10.3846C11.8009 10.4155 11.64 10.3997 11.4939 10.3391C11.3477 10.2786 11.2227 10.176 11.1348 10.0445C11.0469 9.9129 11 9.75823 11 9.6C11 9.38783 11.0843 9.18434 11.2343 9.03432C11.3843 8.88429 11.5878 8.8 11.8 8.8ZM11.8 12C11.0574 12 10.3452 12.295 9.8201 12.8201C9.295 13.3452 9 14.0574 9 14.8C9 14.9061 9.04214 15.0078 9.11716 15.0828C9.19217 15.1579 9.29391 15.2 9.4 15.2C9.50609 15.2 9.60783 15.1579 9.68284 15.0828C9.75786 15.0078 9.8 14.9061 9.8 14.8C9.8 14.2696 10.0107 13.7609 10.3858 13.3858C10.7609 13.0107 11.2696 12.8 11.8 12.8C12.3304 12.8 12.8391 13.0107 13.2142 13.3858C13.5893 13.7609 13.8 14.2696 13.8 14.8C13.8 14.9061 13.8421 15.0078 13.9172 15.0828C13.9922 15.1579 14.0939 15.2 14.2 15.2C14.3061 15.2 14.4078 15.1579 14.4828 15.0828C14.5579 15.0078 14.6 14.9061 14.6 14.8C14.6 14.0574 14.305 13.3452 13.7799 12.8201C13.2548 12.295 12.5426 12 11.8 12Z" fill="white"/>
</svg>
