<svg width="34" height="24" viewBox="0 0 34 24" fill="none" xmlns="http://www.w3.org/2000/svg">
<g clip-path="url(#clip0_1860_11146)">
<path d="M17 3.17617e-05C13.3324 -0.00681295 9.74794 1.09278 6.71507 3.15513C3.68219 5.21748 1.34191 8.14669 0 11.56C1.33571 14.9691 3.66806 17.8963 6.69265 19.9597C9.71725 22.0231 13.2936 23.1268 16.955 23.1268C20.6164 23.1268 24.1928 22.0231 27.2173 19.9597C30.2419 17.8963 32.5743 14.9691 33.91 11.56C32.5749 8.16017 30.2487 5.24009 27.2333 3.17872C24.2179 1.11736 20.6526 0.00989043 17 3.17617e-05ZM17 20C14.1632 20.0172 11.3797 19.2297 8.97248 17.7287C6.56526 16.2277 4.63303 14.0749 3.4 11.52C4.6464 8.97692 6.58112 6.8344 8.98433 5.3359C11.3875 3.83741 14.1629 3.04303 16.995 3.04303C19.8271 3.04303 22.6025 3.83741 25.0057 5.3359C27.4089 6.8344 29.3436 8.97692 30.59 11.52C29.3577 14.0733 27.427 16.2251 25.0217 17.726C22.6165 19.2269 19.8351 20.0153 17 20Z" fill="url(#paint0_linear_1860_11146)"/>
<path d="M16.9595 18.5011C20.7924 18.5011 23.8995 15.394 23.8995 11.5611C23.8995 7.72824 20.7924 4.62109 16.9595 4.62109C13.1267 4.62109 10.0195 7.72824 10.0195 11.5611C10.0195 15.394 13.1267 18.5011 16.9595 18.5011Z" fill="url(#paint1_linear_1860_11146)"/>
</g>
<defs>
<linearGradient id="paint0_linear_1860_11146" x1="16.955" y1="0" x2="16.955" y2="23.1268" gradientUnits="userSpaceOnUse">
<stop stop-color="#014F6A"/>
<stop offset="1" stop-color="#009ED4" stop-opacity="0.74"/>
</linearGradient>
<linearGradient id="paint1_linear_1860_11146" x1="16.9595" y1="4.62109" x2="16.9595" y2="18.5011" gradientUnits="userSpaceOnUse">
<stop stop-color="#009ED4"/>
<stop offset="1" stop-color="#F7931A" stop-opacity="0.57"/>
</linearGradient>
<clipPath id="clip0_1860_11146">
<rect width="33.91" height="23.12" fill="white"/>
</clipPath>
</defs>
</svg>
