<svg width="38" height="38" viewBox="0 0 38 38" fill="none" xmlns="http://www.w3.org/2000/svg">
<path d="M15.8412 5.10695C14.7891 3.59093 13.2287 2.50201 11.4427 2.03755C9.6568 1.5731 7.76356 1.76384 6.10617 2.57522C4.44877 3.38659 3.1369 4.7649 2.40833 6.46032C1.67975 8.15575 1.58269 10.0561 2.13474 11.8169C2.68678 13.5778 3.8514 15.0826 5.41751 16.0586C6.98361 17.0346 8.84756 17.4172 10.6715 17.1371C12.4955 16.8571 14.1588 15.9328 15.3599 14.5319C16.561 13.1309 17.2205 11.346 17.2187 9.5007C17.2238 7.92908 16.7427 6.39437 15.8412 5.10695ZM10.0937 12.4694V13.0632C10.0937 13.2207 10.0312 13.3717 9.91984 13.483C9.80849 13.5944 9.65747 13.6569 9.5 13.6569C9.34253 13.6569 9.1915 13.5944 9.08015 13.483C8.9688 13.3717 8.90625 13.2207 8.90625 13.0632V12.4694H8.3125C8.15503 12.4694 8.004 12.4069 7.89265 12.2955C7.7813 12.1842 7.71875 12.0332 7.71875 11.8757C7.71875 11.7182 7.7813 11.5672 7.89265 11.4559C8.004 11.3445 8.15503 11.2819 8.3125 11.2819H10.0937C10.2512 11.2819 10.4022 11.2194 10.5136 11.108C10.6249 10.9967 10.6875 10.8457 10.6875 10.6882C10.6875 10.5307 10.6249 10.3797 10.5136 10.2684C10.4022 10.157 10.2512 10.0944 10.0937 10.0944H8.90625C8.43383 10.0944 7.98076 9.90678 7.64671 9.57273C7.31267 9.23868 7.125 8.78561 7.125 8.3132C7.125 7.84078 7.31267 7.38771 7.64671 7.05366C7.98076 6.71961 8.43383 6.53195 8.90625 6.53195V5.9382C8.90625 5.78072 8.9688 5.6297 9.08015 5.51835C9.1915 5.407 9.34253 5.34445 9.5 5.34445C9.65747 5.34445 9.80849 5.407 9.91984 5.51835C10.0312 5.6297 10.0937 5.78072 10.0937 5.9382V6.53195H10.6875C10.845 6.53195 10.996 6.5945 11.1073 6.70585C11.2187 6.8172 11.2812 6.96822 11.2812 7.1257C11.2812 7.28317 11.2187 7.43419 11.1073 7.54554C10.996 7.65689 10.845 7.71945 10.6875 7.71945H8.90625C8.74878 7.71945 8.59775 7.782 8.4864 7.89335C8.37505 8.0047 8.3125 8.15572 8.3125 8.3132C8.3125 8.47067 8.37505 8.62169 8.4864 8.73304C8.59775 8.84439 8.74878 8.90695 8.90625 8.90695H10.0937C10.5662 8.90695 11.0192 9.09461 11.3533 9.42866C11.6873 9.76271 11.875 10.2158 11.875 10.6882C11.875 11.1606 11.6873 11.6137 11.3533 11.9477C11.0192 12.2818 10.5662 12.4694 10.0937 12.4694Z" fill="url(#paint0_linear_1860_11154)"/>
<path d="M20.7812 32.6562H14.8438V35.0312H20.7812V32.6562Z" fill="url(#paint1_linear_1860_11154)"/>
<path d="M27.9062 29.0938H21.9688V31.4688H27.9062V29.0938Z" fill="#F39200"/>
<path d="M27.9062 32.6562H21.9688V35.0312H27.9062V32.6562Z" fill="url(#paint2_linear_1860_11154)"/>
<path d="M35.0312 29.0938H29.0938V31.4688H35.0312V29.0938Z" fill="#F39200"/>
<path d="M35.0312 25.5312H29.0938V27.9062H35.0312V25.5312Z" fill="url(#paint3_linear_1860_11154)"/>
<path d="M35.0312 32.6562H29.0938V35.0312H35.0312V32.6562Z" fill="url(#paint4_linear_1860_11154)"/>
<path d="M32.6206 6.34835L34.5741 8.72335C34.6326 8.78498 34.7038 8.8333 34.7827 8.86506C34.8615 8.89681 34.9463 8.91126 35.0312 8.90741C35.17 8.90768 35.3044 8.85937 35.4112 8.77085C35.4714 8.721 35.5211 8.65979 35.5575 8.59071C35.5939 8.52163 35.6164 8.44604 35.6235 8.36827C35.6307 8.2905 35.6225 8.21208 35.5993 8.13751C35.5761 8.06293 35.5384 7.99366 35.4884 7.93366L32.5197 4.37116C32.464 4.30392 32.3941 4.2498 32.3151 4.21266C32.2361 4.17551 32.1498 4.15625 32.0625 4.15625C31.9752 4.15625 31.8889 4.17551 31.8099 4.21266C31.7309 4.2498 31.661 4.30392 31.6053 4.37116L28.6366 7.93366C28.5867 7.9937 28.5491 8.06298 28.5259 8.13755C28.5028 8.21211 28.4946 8.2905 28.5018 8.36824C28.5089 8.44598 28.5313 8.52155 28.5677 8.59063C28.6041 8.65971 28.6537 8.72095 28.7137 8.77085C28.7738 8.82075 28.8431 8.85834 28.9176 8.88147C28.9922 8.9046 29.0706 8.91281 29.1483 8.90564C29.2261 8.89848 29.3016 8.87607 29.3707 8.83969C29.4398 8.80332 29.501 8.7537 29.5509 8.69366L31.4272 6.44335C30.6256 17.3921 17.9016 26.1262 2.375 26.1262C2.21753 26.1262 2.06651 26.1887 1.95516 26.3001C1.84381 26.4114 1.78125 26.5624 1.78125 26.7199C1.78125 26.8774 1.84381 27.0284 1.95516 27.1398C2.06651 27.2511 2.21753 27.3137 2.375 27.3137C18.6081 27.3137 31.8962 17.9977 32.6206 6.34835Z" fill="url(#paint5_linear_1860_11154)"/>
<defs>
<linearGradient id="paint0_linear_1860_11154" x1="9.50002" y1="1.78906" x2="9.50002" y2="17.2266" gradientUnits="userSpaceOnUse">
<stop stop-color="#00749C"/>
<stop offset="1" stop-color="#009ED4" stop-opacity="0.7"/>
</linearGradient>
<linearGradient id="paint1_linear_1860_11154" x1="17.8125" y1="32.6562" x2="17.8125" y2="35.0312" gradientUnits="userSpaceOnUse">
<stop stop-color="#00749C"/>
<stop offset="1" stop-color="#009ED4" stop-opacity="0.7"/>
</linearGradient>
<linearGradient id="paint2_linear_1860_11154" x1="24.9375" y1="32.6562" x2="24.9375" y2="35.0312" gradientUnits="userSpaceOnUse">
<stop stop-color="#00749C"/>
<stop offset="1" stop-color="#009ED4" stop-opacity="0.7"/>
</linearGradient>
<linearGradient id="paint3_linear_1860_11154" x1="32.0625" y1="25.5312" x2="32.0625" y2="27.9062" gradientUnits="userSpaceOnUse">
<stop stop-color="#00749C"/>
<stop offset="1" stop-color="#009ED4" stop-opacity="0.7"/>
</linearGradient>
<linearGradient id="paint4_linear_1860_11154" x1="32.0625" y1="32.6562" x2="32.0625" y2="35.0312" gradientUnits="userSpaceOnUse">
<stop stop-color="#00749C"/>
<stop offset="1" stop-color="#009ED4" stop-opacity="0.7"/>
</linearGradient>
<linearGradient id="paint5_linear_1860_11154" x1="18.7036" y1="4.15625" x2="18.7036" y2="27.3137" gradientUnits="userSpaceOnUse">
<stop stop-color="#925700"/>
<stop offset="1" stop-color="#F39200" stop-opacity="0.68"/>
</linearGradient>
</defs>
</svg>
