<svg width="40" height="40" viewBox="0 0 40 40" fill="none" xmlns="http://www.w3.org/2000/svg">
<path d="M28.752 7.72266L33.7645 12.2777C33.7798 12.3569 33.8104 12.4325 33.8545 12.5002H23.4957L28.752 7.72266Z" fill="url(#paint0_linear_1860_11144)" fill-opacity="0.8"/>
<path d="M23.7495 13.7502H33.7495V21.2502H30.752V16.8752C30.752 16.7094 30.6861 16.5504 30.5689 16.4332C30.4517 16.316 30.2927 16.2502 30.127 16.2502H27.377C27.2112 16.2502 27.0522 16.316 26.935 16.4332C26.8178 16.5504 26.752 16.7094 26.752 16.8752V21.2502H23.7495V13.7502Z" fill="url(#paint1_linear_1860_11144)" fill-opacity="0.8"/>
<path fill-rule="evenodd" clip-rule="evenodd" d="M7.49945 20.0002H2.50195V31.2502H7.49945V20.0002ZM15.212 21.3702H8.74945V29.3814C8.81224 29.3846 8.87419 29.3972 8.9332 29.4189L21.3832 33.6352C22.3832 33.8852 23.6595 33.7014 24.4807 33.1502C24.4969 33.1394 24.5136 33.1294 24.5307 33.1202L36.667 26.5239L36.957 26.3577C37.1829 26.2374 37.3555 26.0367 37.4407 25.7953C37.5259 25.5539 37.5174 25.2894 37.417 25.0539C37.1845 24.5077 36.9282 24.4352 36.6595 24.3977C36.435 24.3644 36.2511 24.4095 36.1967 24.4229L36.1853 24.4256L36.1807 24.4264L27.4557 28.4689C27.3749 28.5115 27.2857 28.5358 27.1945 28.5402H27.192C26.9695 28.6027 26.7382 28.6477 26.4957 28.6477H17.802V27.3977H26.4957C26.6722 27.3977 26.847 27.3637 27.0107 27.2977H27.0182L27.0282 27.2927C27.4995 27.0952 27.8195 26.6402 27.8195 26.1014C27.8195 25.3777 27.2457 24.8064 26.4957 24.8064H20.1582L19.9945 24.4314C19.9547 24.3386 19.907 24.2545 19.8434 24.142C19.823 24.1059 19.8009 24.067 19.777 24.0239C19.5384 23.5933 19.2391 23.1992 18.8882 22.8539C17.9053 21.8956 16.5847 21.3626 15.212 21.3702Z" fill="url(#paint2_linear_1860_11144)"/>
<path d="M28.002 17.5002H29.502V21.2502H28.002V17.5002Z" fill="url(#paint3_linear_1860_11144)" fill-opacity="0.8"/>
<defs>
<linearGradient id="paint0_linear_1860_11144" x1="20.0005" y1="7.72266" x2="20.0005" y2="33.7449" gradientUnits="userSpaceOnUse">
<stop stop-color="#BB6F13"/>
<stop offset="0.9999" stop-color="#F7931A"/>
<stop offset="1" stop-color="#F38500"/>
</linearGradient>
<linearGradient id="paint1_linear_1860_11144" x1="20.0005" y1="7.72266" x2="20.0005" y2="33.7449" gradientUnits="userSpaceOnUse">
<stop stop-color="#BB6F13"/>
<stop offset="0.9999" stop-color="#F7931A"/>
<stop offset="1" stop-color="#F38500"/>
</linearGradient>
<linearGradient id="paint2_linear_1860_11144" x1="20.0005" y1="7.72266" x2="20.0005" y2="33.7449" gradientUnits="userSpaceOnUse">
<stop/>
<stop offset="1" stop-color="#009ED4" stop-opacity="0.63"/>
</linearGradient>
<linearGradient id="paint3_linear_1860_11144" x1="20.0005" y1="7.72266" x2="20.0005" y2="33.7449" gradientUnits="userSpaceOnUse">
<stop stop-color="#BB6F13"/>
<stop offset="0.9999" stop-color="#F7931A"/>
<stop offset="1" stop-color="#F38500"/>
</linearGradient>
</defs>
</svg>

