<svg width="42" height="42" viewBox="0 0 42 42" fill="none" xmlns="http://www.w3.org/2000/svg">
<path d="M27.9729 34.3558C27.9729 34.7758 27.6369 35.1958 27.1329 35.1958H9.15694C8.65294 35.1958 8.31694 34.7758 8.31694 34.3558V6.80384C8.31694 6.29984 8.65294 5.96384 9.15694 5.96384H27.1329C27.6369 5.96384 27.9729 6.29984 27.9729 6.80384V8.39984C28.4769 8.23184 28.9809 8.14784 29.4849 8.14784H30.4929C30.5769 8.14784 30.7449 8.14784 30.8289 8.14784V3.35984C30.8289 1.93184 29.7369 0.839844 28.3089 0.839844H7.98094C6.55294 0.839844 5.46094 1.93184 5.46094 3.35984V38.6398C5.46094 40.0678 6.55294 41.1598 7.98094 41.1598H28.3089C29.7369 41.1598 30.8289 40.0678 30.8289 38.6398V32.2558H27.9729V34.3558ZM19.4889 38.7238H16.8009C16.2969 38.7238 15.9609 38.3878 15.9609 37.8838C15.9609 37.3798 16.2969 37.0438 16.8009 37.0438H19.4889C19.9929 37.0438 20.3289 37.3798 20.3289 37.8838C20.3289 38.3878 19.9929 38.7238 19.4889 38.7238Z" fill="url(#paint0_linear_1860_11151)"/>
<path d="M29.4835 9.82812C27.4675 9.82812 25.7875 11.5081 25.7875 13.5241V16.5481C25.8715 16.5481 25.9555 16.5481 26.0395 16.5481H27.4675V13.5241C27.4675 12.4321 28.3915 11.5081 29.4835 11.5081H30.4915C31.5835 11.5081 32.5075 12.4321 32.5075 13.5241V16.5481H34.0195C34.1035 16.5481 34.1875 16.5481 34.2715 16.5481V13.5241C34.2715 11.5081 32.5915 9.82812 30.5755 9.82812H29.4835ZM34.0195 18.3121H26.0395C24.6115 18.3121 23.5195 19.4041 23.5195 20.8321V28.1401C23.5195 29.5681 24.6115 30.6601 26.0395 30.6601H34.0195C35.4475 30.6601 36.5395 29.5681 36.5395 28.1401V20.8321C36.5395 19.4041 35.3635 18.3121 34.0195 18.3121ZM30.8275 25.7041C30.8275 26.2081 30.4915 26.5441 29.9875 26.5441C29.4835 26.5441 29.1475 26.2081 29.1475 25.7041V23.1841C29.1475 22.6801 29.4835 22.3441 29.9875 22.3441C30.4915 22.3441 30.8275 22.6801 30.8275 23.1841V25.7041Z" fill="url(#paint1_linear_1860_11151)"/>
<defs>
<linearGradient id="paint0_linear_1860_11151" x1="18.1449" y1="0.839844" x2="18.1449" y2="41.1598" gradientUnits="userSpaceOnUse">
<stop stop-color="#015370"/>
<stop offset="1" stop-color="#009ED4" stop-opacity="0.71"/>
</linearGradient>
<linearGradient id="paint1_linear_1860_11151" x1="30.0295" y1="9.82812" x2="30.0295" y2="30.6601" gradientUnits="userSpaceOnUse">
<stop stop-color="#B76C11"/>
<stop offset="1" stop-color="#F7931A" stop-opacity="0.74"/>
</linearGradient>
</defs>
</svg>
