<svg width="60" height="60" viewBox="0 0 60 60" fill="none" xmlns="http://www.w3.org/2000/svg">
<g clip-path="url(#clip0_1818_24493)">
<path d="M56.7037 45.4537L45.4537 56.7037C44.4096 57.7488 43.1696 58.5778 41.8049 59.1434C40.4402 59.7091 38.9773 60.0002 37.5 60.0002C36.0227 60.0002 34.5598 59.7091 33.1951 59.1434C31.8304 58.5778 30.5904 57.7488 29.5462 56.7037L10.7963 37.9538C9.74974 36.9106 8.91978 35.6709 8.35408 34.3059C7.78839 32.9409 7.49813 31.4776 7.5 30V7.5H18.75C18.75 5.42625 17.0738 3.75 15 3.75H7.5C5.42625 3.75 3.75 5.42625 3.75 7.5V13.125C3.75 13.6223 3.55246 14.0992 3.20083 14.4508C2.84919 14.8025 2.37228 15 1.875 15C1.37772 15 0.900805 14.8025 0.549175 14.4508C0.197544 14.0992 0 13.6223 0 13.125L0 7.5C0 3.36 3.36 0 7.5 0H15C19.14 0 22.5 3.36 22.5 7.5V20.625C22.5 21.1223 22.3025 21.5992 21.9508 21.9508C21.5992 22.3025 21.1223 22.5 20.625 22.5C20.1277 22.5 19.6508 22.3025 19.2992 21.9508C18.9475 21.5992 18.75 21.1223 18.75 20.625V15.3788C16.575 16.1588 15 18.1838 15 20.625C15 23.73 17.52 26.25 20.625 26.25C23.73 26.25 26.25 23.73 26.25 20.625V7.5H30C32.88 7.5 35.7563 8.59875 37.9538 10.7963L56.7037 29.5462C57.7488 30.5904 58.5778 31.8304 59.1434 33.1951C59.7091 34.5598 60.0002 36.0227 60.0002 37.5C60.0002 38.9773 59.7091 40.4402 59.1434 41.8049C58.5778 43.1696 57.7488 44.4096 56.7037 45.4537Z" fill="#6A6969"/>
<path d="M26.9641 36.33V37.408H21.3781V36.33H26.9641ZM28.8091 33.04V31.878H31.4411V42H30.1531V33.04H28.8091ZM33.6295 36.834C33.6295 35.2287 33.8908 33.978 34.4135 33.082C34.9361 32.1767 35.8508 31.724 37.1575 31.724C38.4548 31.724 39.3648 32.1767 39.8875 33.082C40.4101 33.978 40.6715 35.2287 40.6715 36.834C40.6715 38.4673 40.4101 39.7367 39.8875 40.642C39.3648 41.5473 38.4548 42 37.1575 42C35.8508 42 34.9361 41.5473 34.4135 40.642C33.8908 39.7367 33.6295 38.4673 33.6295 36.834ZM39.4115 36.834C39.4115 36.022 39.3555 35.336 39.2435 34.776C39.1408 34.2067 38.9215 33.7493 38.5855 33.404C38.2588 33.0587 37.7828 32.886 37.1575 32.886C36.5228 32.886 36.0375 33.0587 35.7015 33.404C35.3748 33.7493 35.1555 34.2067 35.0435 34.776C34.9408 35.336 34.8895 36.022 34.8895 36.834C34.8895 37.674 34.9408 38.3787 35.0435 38.948C35.1555 39.5173 35.3748 39.9747 35.7015 40.32C36.0375 40.6653 36.5228 40.838 37.1575 40.838C37.7828 40.838 38.2588 40.6653 38.5855 40.32C38.9215 39.9747 39.1408 39.5173 39.2435 38.948C39.3555 38.3787 39.4115 37.674 39.4115 36.834ZM42.1405 34.16C42.1405 33.5253 42.3318 33.0213 42.7145 32.648C43.0971 32.2653 43.5871 32.074 44.1845 32.074C44.7818 32.074 45.2718 32.2653 45.6545 32.648C46.0371 33.0213 46.2285 33.5253 46.2285 34.16C46.2285 34.804 46.0371 35.3173 45.6545 35.7C45.2718 36.0733 44.7818 36.26 44.1845 36.26C43.5871 36.26 43.0971 36.0733 42.7145 35.7C42.3318 35.3173 42.1405 34.804 42.1405 34.16ZM50.3165 32.228L44.6465 42H43.3865L49.0565 32.228H50.3165ZM44.1845 32.858C43.8671 32.858 43.6151 32.97 43.4285 33.194C43.2511 33.4087 43.1625 33.7307 43.1625 34.16C43.1625 34.5893 43.2511 34.916 43.4285 35.14C43.6151 35.364 43.8671 35.476 44.1845 35.476C44.5018 35.476 44.7538 35.364 44.9405 35.14C45.1271 34.9067 45.2205 34.58 45.2205 34.16C45.2205 33.7307 45.1271 33.4087 44.9405 33.194C44.7538 32.97 44.5018 32.858 44.1845 32.858ZM47.5025 40.068C47.5025 39.424 47.6938 38.9153 48.0765 38.542C48.4591 38.1593 48.9491 37.968 49.5465 37.968C50.1438 37.968 50.6291 38.1593 51.0025 38.542C51.3851 38.9153 51.5765 39.424 51.5765 40.068C51.5765 40.7027 51.3851 41.2113 51.0025 41.594C50.6291 41.9767 50.1438 42.168 49.5465 42.168C48.9491 42.168 48.4591 41.9813 48.0765 41.608C47.6938 41.2253 47.5025 40.712 47.5025 40.068ZM49.5325 38.766C49.2151 38.766 48.9631 38.878 48.7765 39.102C48.5898 39.3167 48.4965 39.6387 48.4965 40.068C48.4965 40.488 48.5898 40.81 48.7765 41.034C48.9631 41.2487 49.2151 41.356 49.5325 41.356C49.8498 41.356 50.1018 41.2487 50.2885 41.034C50.4751 40.81 50.5685 40.488 50.5685 40.068C50.5685 39.6387 50.4751 39.3167 50.2885 39.102C50.1018 38.878 49.8498 38.766 49.5325 38.766Z" fill="white"/>
</g>
<defs>
<clipPath id="clip0_1818_24493">
<rect width="60" height="60" fill="white"/>
</clipPath>
</defs>
</svg>
