<svg width="60" height="60" viewBox="0 0 60 60" fill="none" xmlns="http://www.w3.org/2000/svg">
<g clip-path="url(#clip0_1935_11144)">
<path d="M56.7037 45.4537L45.4537 56.7037C44.4096 57.7488 43.1696 58.5778 41.8049 59.1434C40.4402 59.7091 38.9773 60.0002 37.5 60.0002C36.0227 60.0002 34.5598 59.7091 33.1951 59.1434C31.8304 58.5778 30.5904 57.7488 29.5462 56.7037L10.7963 37.9538C9.74974 36.9106 8.91978 35.6709 8.35408 34.3059C7.78839 32.9409 7.49813 31.4776 7.5 30V7.5H18.75C18.75 5.42625 17.0738 3.75 15 3.75H7.5C5.42625 3.75 3.75 5.42625 3.75 7.5V13.125C3.75 13.6223 3.55246 14.0992 3.20083 14.4508C2.84919 14.8025 2.37228 15 1.875 15C1.37772 15 0.900805 14.8025 0.549175 14.4508C0.197544 14.0992 0 13.6223 0 13.125L0 7.5C0 3.36 3.36 0 7.5 0H15C19.14 0 22.5 3.36 22.5 7.5V20.625C22.5 21.1223 22.3025 21.5992 21.9508 21.9508C21.5992 22.3025 21.1223 22.5 20.625 22.5C20.1277 22.5 19.6508 22.3025 19.2992 21.9508C18.9475 21.5992 18.75 21.1223 18.75 20.625V15.3788C16.575 16.1588 15 18.1838 15 20.625C15 23.73 17.52 26.25 20.625 26.25C23.73 26.25 26.25 23.73 26.25 20.625V7.5H30C32.88 7.5 35.7563 8.59875 37.9538 10.7963L56.7037 29.5462C57.7488 30.5904 58.5778 31.8304 59.1434 33.1951C59.7091 34.5598 60.0002 36.0227 60.0002 37.5C60.0002 38.9773 59.7091 40.4402 59.1434 41.8049C58.5778 43.1696 57.7488 44.4096 56.7037 45.4537Z" fill="#6A6969"/>
<path d="M21.7552 36.33V37.408H16.1692V36.33H21.7552ZM23.6001 33.04V31.878H26.2321V42H24.9441V33.04H23.6001ZM34.6505 32.872L30.7585 42H29.4705L33.4185 32.998H28.0145V31.906H34.6505V32.872ZM37.5891 40.236L36.0211 44.002H35.1671L36.1891 40.236H37.5891ZM45.2924 32.984H40.3784V36.176C40.5931 35.8773 40.9104 35.6347 41.3304 35.448C41.7504 35.252 42.2031 35.154 42.6884 35.154C43.4631 35.154 44.0931 35.3173 44.5784 35.644C45.0638 35.9613 45.4091 36.3767 45.6144 36.89C45.8291 37.394 45.9364 37.9307 45.9364 38.5C45.9364 39.172 45.8104 39.774 45.5584 40.306C45.3064 40.838 44.9191 41.258 44.3964 41.566C43.8831 41.874 43.2438 42.028 42.4784 42.028C41.4984 42.028 40.7051 41.776 40.0984 41.272C39.4918 40.768 39.1231 40.096 38.9924 39.256H40.2384C40.3598 39.788 40.6164 40.2033 41.0084 40.502C41.4004 40.8007 41.8951 40.95 42.4924 40.95C43.2298 40.95 43.7851 40.7307 44.1584 40.292C44.5318 39.844 44.7184 39.256 44.7184 38.528C44.7184 37.8 44.5318 37.24 44.1584 36.848C43.7851 36.4467 43.2344 36.246 42.5064 36.246C42.0118 36.246 41.5778 36.3673 41.2044 36.61C40.8404 36.8433 40.5744 37.1653 40.4064 37.576H39.2024V31.864H45.2924V32.984ZM47.3495 34.16C47.3495 33.5253 47.5408 33.0213 47.9235 32.648C48.3061 32.2653 48.7961 32.074 49.3935 32.074C49.9908 32.074 50.4808 32.2653 50.8635 32.648C51.2461 33.0213 51.4375 33.5253 51.4375 34.16C51.4375 34.804 51.2461 35.3173 50.8635 35.7C50.4808 36.0733 49.9908 36.26 49.3935 36.26C48.7961 36.26 48.3061 36.0733 47.9235 35.7C47.5408 35.3173 47.3495 34.804 47.3495 34.16ZM55.5255 32.228L49.8555 42H48.5955L54.2655 32.228H55.5255ZM49.3935 32.858C49.0761 32.858 48.8241 32.97 48.6375 33.194C48.4601 33.4087 48.3715 33.7307 48.3715 34.16C48.3715 34.5893 48.4601 34.916 48.6375 35.14C48.8241 35.364 49.0761 35.476 49.3935 35.476C49.7108 35.476 49.9628 35.364 50.1495 35.14C50.3361 34.9067 50.4295 34.58 50.4295 34.16C50.4295 33.7307 50.3361 33.4087 50.1495 33.194C49.9628 32.97 49.7108 32.858 49.3935 32.858ZM52.7115 40.068C52.7115 39.424 52.9028 38.9153 53.2855 38.542C53.6681 38.1593 54.1581 37.968 54.7555 37.968C55.3528 37.968 55.8381 38.1593 56.2115 38.542C56.5941 38.9153 56.7855 39.424 56.7855 40.068C56.7855 40.7027 56.5941 41.2113 56.2115 41.594C55.8381 41.9767 55.3528 42.168 54.7555 42.168C54.1581 42.168 53.6681 41.9813 53.2855 41.608C52.9028 41.2253 52.7115 40.712 52.7115 40.068ZM54.7415 38.766C54.4241 38.766 54.1721 38.878 53.9855 39.102C53.7988 39.3167 53.7055 39.6387 53.7055 40.068C53.7055 40.488 53.7988 40.81 53.9855 41.034C54.1721 41.2487 54.4241 41.356 54.7415 41.356C55.0588 41.356 55.3108 41.2487 55.4975 41.034C55.6841 40.81 55.7775 40.488 55.7775 40.068C55.7775 39.6387 55.6841 39.3167 55.4975 39.102C55.3108 38.878 55.0588 38.766 54.7415 38.766Z" fill="white"/>
</g>
<defs>
<clipPath id="clip0_1935_11144">
<rect width="60" height="60" fill="white"/>
</clipPath>
</defs>
</svg>
