<svg width="24" height="25" viewBox="0 0 24 25" fill="none" xmlns="http://www.w3.org/2000/svg">
<path d="M12.1 21.5C11.8167 21.5 11.5793 21.404 11.388 21.212C11.1967 21.02 11.1007 20.7827 11.1 20.5C11.1 20.3833 11.125 20.2623 11.175 20.137C11.225 20.0117 11.3 19.8993 11.4 19.8L16.025 15.175L15.3 14.45L10.7 19.075C10.6 19.175 10.4917 19.25 10.375 19.3C10.2583 19.35 10.1333 19.375 10 19.375C9.71667 19.375 9.47933 19.2793 9.288 19.088C9.09667 18.8967 9.00067 18.659 9 18.375C9 18.2083 9.025 18.0707 9.075 17.962C9.125 17.8533 9.19167 17.7577 9.275 17.675L13.9 13.05L13.2 12.35L8.575 16.95C8.475 17.05 8.36667 17.125 8.25 17.175C8.13333 17.225 8 17.25 7.85 17.25C7.58333 17.25 7.35 17.15 7.15 16.95C6.95 16.75 6.85 16.5167 6.85 16.25C6.85 16.1167 6.875 15.9917 6.925 15.875C6.975 15.7583 7.05 15.65 7.15 15.55L11.775 10.925L11.05 10.225L6.45 14.85C6.36667 14.9333 6.26667 15 6.15 15.05C6.03333 15.1 5.89167 15.125 5.725 15.125C5.44167 15.125 5.204 15.029 5.012 14.837C4.82 14.645 4.72433 14.4077 4.725 14.125C4.725 13.9917 4.75 13.8667 4.8 13.75C4.85 13.6333 4.925 13.525 5.025 13.425L10.6 7.85L14.35 11.625C14.5333 11.8083 14.75 11.9543 15 12.063C15.25 12.1717 15.5 12.2257 15.75 12.225C16.2833 12.225 16.75 12.0377 17.15 11.663C17.55 11.2883 17.75 10.809 17.75 10.225C17.75 9.99167 17.7083 9.75 17.625 9.5C17.5417 9.25 17.3917 9.01667 17.175 8.8L12.7 4.325C12.9833 4.05834 13.3 3.85434 13.65 3.713C14 3.57167 14.35 3.50067 14.7 3.5C15.1333 3.5 15.5333 3.571 15.9 3.713C16.2667 3.855 16.6 4.07567 16.9 4.375L21.125 8.625C21.425 8.925 21.646 9.25834 21.788 9.625C21.93 9.99167 22.0007 10.4167 22 10.9C22 11.2333 21.925 11.571 21.775 11.913C21.625 12.255 21.4083 12.5673 21.125 12.85L12.8 21.2C12.6667 21.3333 12.55 21.4167 12.45 21.45C12.35 21.4833 12.2333 21.5 12.1 21.5ZM3.525 13.5L2.875 12.85C2.59167 12.5833 2.375 12.2667 2.225 11.9C2.075 11.5333 2 11.15 2 10.75C2 10.3167 2.08333 9.91667 2.25 9.55C2.41667 9.18334 2.625 8.875 2.875 8.625L7.1 4.375C7.36667 4.10834 7.68333 3.89567 8.05 3.737C8.41667 3.57834 8.775 3.49934 9.125 3.5C9.575 3.5 9.975 3.56267 10.325 3.688C10.675 3.81334 11.0167 4.04234 11.35 4.375L16.475 9.5C16.575 9.6 16.65 9.70834 16.7 9.825C16.75 9.94167 16.775 10.0667 16.775 10.2C16.775 10.4667 16.675 10.7 16.475 10.9C16.275 11.1 16.0417 11.2 15.775 11.2C15.625 11.2 15.5 11.1793 15.4 11.138C15.3 11.0967 15.1917 11.0173 15.075 10.9L10.575 6.45L3.525 13.5Z" fill="#00B3B5"/>
</svg>
