<svg width="24" height="25" viewBox="0 0 24 25" fill="none" xmlns="http://www.w3.org/2000/svg">
<path d="M21 7V14.5H19V8L14 4.5L9 8V9.5H7V7L14 2L21 7ZM15.5 7.5H14.5V8.5H15.5V7.5ZM13.5 7.5H12.5V8.5H13.5V7.5ZM15.5 9.5H14.5V10.5H15.5V9.5ZM13.5 9.5H12.5V10.5H13.5V9.5ZM19 16.5H17C17 15.3 16.25 14.22 15.13 13.8L8.97 11.5H1V22.5H7V21.06L14 23L22 20.5V19.5C22 17.84 20.66 16.5 19 16.5ZM3 20.5V13.5H5V20.5H3ZM13.97 20.91L7 18.98V13.5H8.61L14.43 15.67C14.77 15.8 15 16.13 15 16.5C15 16.5 13.01 16.45 12.7 16.35L10.32 15.56L9.69 17.46L12.07 18.25C12.58 18.42 13.11 18.51 13.65 18.51H19C19.39 18.51 19.74 18.74 19.9 19.07L13.97 20.91Z" fill="#FFA143"/>
</svg>
