<svg width="24" height="24" viewBox="0 0 24 24" fill="none" xmlns="http://www.w3.org/2000/svg">
<path d="M17.962 5.09532H6.03809C5.24273 5.09627 4.48022 5.41265 3.91782 5.97505C3.35542 6.53746 3.03904 7.29996 3.03809 8.09532V15.9047C3.03904 16.7 3.35542 17.4625 3.91782 18.0249C4.48022 18.5874 5.24273 18.9037 6.03809 18.9047H17.962C18.7574 18.9037 19.5199 18.5874 20.0823 18.0249C20.6447 17.4625 20.9611 16.7 20.962 15.9047V8.09532C20.9611 7.29996 20.6447 6.53746 20.0823 5.97505C19.5199 5.41265 18.7574 5.09627 17.962 5.09532ZM6.03809 6.29532H17.962C18.4392 6.29583 18.8968 6.48564 19.2342 6.82309C19.5717 7.16055 19.7615 7.61809 19.762 8.09532V8.88228H4.23809V8.09532C4.23859 7.61809 4.4284 7.16055 4.76586 6.82309C5.10331 6.48564 5.56085 6.29583 6.03809 6.29532ZM17.962 17.7047H6.03809C5.56085 17.7042 5.10331 17.5144 4.76586 17.1769C4.4284 16.8395 4.23859 16.3819 4.23809 15.9047V10.0823H19.762V15.9047C19.7615 16.3819 19.5717 16.8395 19.2342 17.1769C18.8968 17.5144 18.4392 17.7042 17.962 17.7047ZM18.122 14.8986C18.122 15.0577 18.0588 15.2103 17.9462 15.3229C17.8337 15.4354 17.6811 15.4986 17.522 15.4986H16.0834C15.9243 15.4986 15.7717 15.4354 15.6591 15.3229C15.5466 15.2103 15.4834 15.0577 15.4834 14.8986C15.4834 14.7395 15.5466 14.5869 15.6591 14.4743C15.7717 14.3618 15.9243 14.2986 16.0834 14.2986H17.522C17.6811 14.2986 17.8337 14.3618 17.9462 14.4743C18.0588 14.5869 18.122 14.7395 18.122 14.8986Z" fill="white"/>
</svg>
