<svg width="20" height="20" viewBox="0 0 20 20" fill="none" xmlns="http://www.w3.org/2000/svg">
<path d="M17.1797 18H3.82031C3.36797 18 3 17.632 3 17.1797V7.6875C3 7.65642 3.01235 7.62661 3.03432 7.60464C3.0563 7.58266 3.08611 7.57031 3.11719 7.57031H17.8828C17.9139 7.57031 17.9437 7.58266 17.9657 7.60464C17.9877 7.62661 18 7.65642 18 7.6875V17.1797C18 17.632 17.632 18 17.1797 18ZM3.23438 7.80469V17.1797C3.23438 17.5028 3.49723 17.7656 3.82031 17.7656H17.1797C17.5028 17.7656 17.7656 17.5028 17.7656 17.1797V7.80469H3.23438Z" fill="white"/>
<path d="M17.8828 7.80467H3.11719C3.08611 7.80467 3.0563 7.79233 3.03432 7.77035C3.01235 7.74837 3 7.71856 3 7.68748V5.34373C3 4.89139 3.36797 4.52342 3.82031 4.52342H4.875C4.90608 4.52342 4.93589 4.53577 4.95786 4.55775C4.97984 4.57972 4.99219 4.60953 4.99219 4.64061C4.99219 4.67169 4.97984 4.7015 4.95786 4.72347C4.93589 4.74545 4.90608 4.7578 4.875 4.7578H3.82031C3.49723 4.7578 3.23438 5.02065 3.23438 5.34373V7.5703H17.7656V5.34373C17.7656 5.02065 17.5028 4.7578 17.1797 4.7578H16.125C16.0939 4.7578 16.0641 4.74545 16.0421 4.72347C16.0202 4.7015 16.0078 4.67169 16.0078 4.64061C16.0078 4.60953 16.0202 4.57972 16.0421 4.55775C16.0641 4.53577 16.0939 4.52342 16.125 4.52342H17.1797C17.632 4.52342 18 4.89139 18 5.34373V7.68748C18 7.71856 17.9877 7.74837 17.9657 7.77035C17.9437 7.79233 17.9139 7.80467 17.8828 7.80467Z" fill="white"/>
<path d="M9.73828 4.7578H6.39844C6.36736 4.7578 6.33755 4.74545 6.31557 4.72347C6.2936 4.7015 6.28125 4.67169 6.28125 4.64061C6.28125 4.60953 6.2936 4.57972 6.31557 4.55775C6.33755 4.53577 6.36736 4.52342 6.39844 4.52342H9.73828C9.76936 4.52342 9.79917 4.53577 9.82114 4.55775C9.84312 4.57972 9.85547 4.60953 9.85547 4.64061C9.85547 4.67169 9.84312 4.7015 9.82114 4.72347C9.79917 4.74545 9.76936 4.7578 9.73828 4.7578ZM14.6016 4.7578H11.2617C11.2306 4.7578 11.2008 4.74545 11.1789 4.72347C11.1569 4.7015 11.1445 4.67169 11.1445 4.64061C11.1445 4.60953 11.1569 4.57972 11.1789 4.55775C11.2008 4.53577 11.2306 4.52342 11.2617 4.52342H14.6016C14.6326 4.52342 14.6624 4.53577 14.6844 4.55775C14.7064 4.57972 14.7187 4.60953 14.7187 4.64061C14.7187 4.67169 14.7064 4.7015 14.6844 4.72347C14.6624 4.74545 14.6326 4.7578 14.6016 4.7578Z" fill="white"/>
<path d="M10.2656 6.28125C9.78094 6.28125 9.38672 5.88703 9.38672 5.40234V3.87891C9.38672 3.39422 9.78094 3 10.2656 3C10.7503 3 11.1445 3.39422 11.1445 3.87891V5.40234C11.1445 5.88703 10.7503 6.28125 10.2656 6.28125ZM10.2656 3.23438C10.0947 3.23456 9.93091 3.30253 9.81008 3.42336C9.68924 3.54419 9.62128 3.70802 9.62109 3.87891V5.40234C9.62109 5.75777 9.9102 6.04688 10.2656 6.04688C10.6211 6.04688 10.9102 5.75777 10.9102 5.40234V3.87891C10.9102 3.52348 10.6211 3.23438 10.2656 3.23438ZM15.1289 6.28125C14.6442 6.28125 14.25 5.88703 14.25 5.40234V3.87891C14.25 3.39422 14.6442 3 15.1289 3C15.6136 3 16.0078 3.39422 16.0078 3.87891V5.40234C16.0078 5.88703 15.6136 6.28125 15.1289 6.28125ZM15.1289 3.23438C14.958 3.23456 14.7942 3.30253 14.6734 3.42336C14.5525 3.54419 14.4846 3.70802 14.4844 3.87891V5.40234C14.4844 5.75777 14.7735 6.04688 15.1289 6.04688C15.4843 6.04688 15.7734 5.75777 15.7734 5.40234V3.87891C15.7734 3.52348 15.4843 3.23438 15.1289 3.23438ZM5.40234 6.28125C4.91766 6.28125 4.52344 5.88703 4.52344 5.40234V3.87891C4.52344 3.39422 4.91766 3 5.40234 3C5.88703 3 6.28125 3.39422 6.28125 3.87891V5.40234C6.28125 5.88703 5.88703 6.28125 5.40234 6.28125ZM5.40234 3.23438C5.23146 3.23456 5.06763 3.30253 4.9468 3.42336C4.82596 3.54419 4.758 3.70802 4.75781 3.87891V5.40234C4.75781 5.75777 5.04691 6.04688 5.40234 6.04688C5.75777 6.04688 6.04688 5.75777 6.04688 5.40234V3.87891C6.04688 3.52348 5.75777 3.23438 5.40234 3.23438ZM16.3594 10.6172H15.4219C15.228 10.6172 15.0703 10.4595 15.0703 10.2656V9.32812C15.0703 9.1343 15.228 8.97656 15.4219 8.97656H16.3594C16.5532 8.97656 16.7109 9.1343 16.7109 9.32812V10.2656C16.7109 10.4595 16.5532 10.6172 16.3594 10.6172ZM15.4219 9.21094C15.3573 9.21094 15.3047 9.26355 15.3047 9.32812V10.2656C15.3047 10.3302 15.3573 10.3828 15.4219 10.3828H16.3594C16.4241 10.3828 16.4766 10.3302 16.4766 10.2656V9.32812C16.4766 9.26355 16.4241 9.21094 16.3594 9.21094H15.4219ZM13.5469 10.6172H12.6094C12.4155 10.6172 12.2578 10.4595 12.2578 10.2656V9.32812C12.2578 9.1343 12.4155 8.97656 12.6094 8.97656H13.5469C13.7407 8.97656 13.8984 9.1343 13.8984 9.32812V10.2656C13.8984 10.4595 13.7407 10.6172 13.5469 10.6172ZM12.6094 9.21094C12.5448 9.21094 12.4922 9.26355 12.4922 9.32812V10.2656C12.4922 10.3302 12.5448 10.3828 12.6094 10.3828H13.5469C13.6114 10.3828 13.6641 10.3302 13.6641 10.2656V9.32812C13.6641 9.26355 13.6114 9.21094 13.5469 9.21094H12.6094ZM10.7344 10.6172H9.79688C9.60305 10.6172 9.44531 10.4595 9.44531 10.2656V9.32812C9.44531 9.1343 9.60305 8.97656 9.79688 8.97656H10.7344C10.9282 8.97656 11.0859 9.1343 11.0859 9.32812V10.2656C11.0859 10.4595 10.9282 10.6172 10.7344 10.6172ZM9.79688 9.21094C9.7323 9.21094 9.67969 9.26355 9.67969 9.32812V10.2656C9.67969 10.3302 9.7323 10.3828 9.79688 10.3828H10.7344C10.7989 10.3828 10.8516 10.3302 10.8516 10.2656V9.32812C10.8516 9.26355 10.7989 9.21094 10.7344 9.21094H9.79688ZM7.92188 10.6172H6.98438C6.79055 10.6172 6.63281 10.4595 6.63281 10.2656V9.32812C6.63281 9.1343 6.79055 8.97656 6.98438 8.97656H7.92188C8.1157 8.97656 8.27344 9.1343 8.27344 9.32812V10.2656C8.27344 10.4595 8.1157 10.6172 7.92188 10.6172ZM6.98438 9.21094C6.9198 9.21094 6.86719 9.26355 6.86719 9.32812V10.2656C6.86719 10.3302 6.9198 10.3828 6.98438 10.3828H7.92188C7.98645 10.3828 8.03906 10.3302 8.03906 10.2656V9.32812C8.03906 9.26355 7.98645 9.21094 7.92188 9.21094H6.98438ZM5.10938 10.6172H4.17188C3.97805 10.6172 3.82031 10.4595 3.82031 10.2656V9.32812C3.82031 9.1343 3.97805 8.97656 4.17188 8.97656H5.10938C5.3032 8.97656 5.46094 9.1343 5.46094 9.32812V10.2656C5.46094 10.4595 5.3032 10.6172 5.10938 10.6172ZM4.17188 9.21094C4.1073 9.21094 4.05469 9.26355 4.05469 9.32812V10.2656C4.05469 10.3302 4.1073 10.3828 4.17188 10.3828H5.10938C5.17395 10.3828 5.22656 10.3302 5.22656 10.2656V9.32812C5.22656 9.26355 5.17395 9.21094 5.10938 9.21094H4.17188ZM16.3594 13.1953H15.4219C15.228 13.1953 15.0703 13.0376 15.0703 12.8438V11.9062C15.0703 11.7124 15.228 11.5547 15.4219 11.5547H16.3594C16.5532 11.5547 16.7109 11.7124 16.7109 11.9062V12.8438C16.7109 13.0376 16.5532 13.1953 16.3594 13.1953ZM15.4219 11.7891C15.3573 11.7891 15.3047 11.8417 15.3047 11.9062V12.8438C15.3047 12.9083 15.3573 12.9609 15.4219 12.9609H16.3594C16.4241 12.9609 16.4766 12.9083 16.4766 12.8438V11.9062C16.4766 11.8417 16.4241 11.7891 16.3594 11.7891H15.4219ZM13.5469 13.1953H12.6094C12.4155 13.1953 12.2578 13.0376 12.2578 12.8438V11.9062C12.2578 11.7124 12.4155 11.5547 12.6094 11.5547H13.5469C13.7407 11.5547 13.8984 11.7124 13.8984 11.9062V12.8438C13.8984 13.0376 13.7407 13.1953 13.5469 13.1953ZM12.6094 11.7891C12.5448 11.7891 12.4922 11.8417 12.4922 11.9062V12.8438C12.4922 12.9083 12.5448 12.9609 12.6094 12.9609H13.5469C13.6114 12.9609 13.6641 12.9083 13.6641 12.8438V11.9062C13.6641 11.8417 13.6114 11.7891 13.5469 11.7891H12.6094ZM10.7344 13.1953H9.79688C9.60305 13.1953 9.44531 13.0376 9.44531 12.8438V11.9062C9.44531 11.7124 9.60305 11.5547 9.79688 11.5547H10.7344C10.9282 11.5547 11.0859 11.7124 11.0859 11.9062V12.8438C11.0859 13.0376 10.9282 13.1953 10.7344 13.1953ZM9.79688 11.7891C9.7323 11.7891 9.67969 11.8417 9.67969 11.9062V12.8438C9.67969 12.9083 9.7323 12.9609 9.79688 12.9609H10.7344C10.7989 12.9609 10.8516 12.9083 10.8516 12.8438V11.9062C10.8516 11.8417 10.7989 11.7891 10.7344 11.7891H9.79688ZM7.92188 13.1953H6.98438C6.79055 13.1953 6.63281 13.0376 6.63281 12.8438V11.9062C6.63281 11.7124 6.79055 11.5547 6.98438 11.5547H7.92188C8.1157 11.5547 8.27344 11.7124 8.27344 11.9062V12.8438C8.27344 13.0376 8.1157 13.1953 7.92188 13.1953ZM6.98438 11.7891C6.9198 11.7891 6.86719 11.8417 6.86719 11.9062V12.8438C6.86719 12.9083 6.9198 12.9609 6.98438 12.9609H7.92188C7.98645 12.9609 8.03906 12.9083 8.03906 12.8438V11.9062C8.03906 11.8417 7.98645 11.7891 7.92188 11.7891H6.98438ZM5.10938 13.1953H4.17188C3.97805 13.1953 3.82031 13.0376 3.82031 12.8438V11.9062C3.82031 11.7124 3.97805 11.5547 4.17188 11.5547H5.10938C5.3032 11.5547 5.46094 11.7124 5.46094 11.9062V12.8438C5.46094 13.0376 5.3032 13.1953 5.10938 13.1953ZM4.17188 11.7891C4.1073 11.7891 4.05469 11.8417 4.05469 11.9062V12.8438C4.05469 12.9083 4.1073 12.9609 4.17188 12.9609H5.10938C5.17395 12.9609 5.22656 12.9083 5.22656 12.8438V11.9062C5.22656 11.8417 5.17395 11.7891 5.10938 11.7891H4.17188ZM13.5469 15.7734H12.6094C12.4155 15.7734 12.2578 15.6157 12.2578 15.4219V14.4844C12.2578 14.2905 12.4155 14.1328 12.6094 14.1328H13.5469C13.7407 14.1328 13.8984 14.2905 13.8984 14.4844V15.4219C13.8984 15.6157 13.7407 15.7734 13.5469 15.7734ZM12.6094 14.3672C12.5448 14.3672 12.4922 14.4198 12.4922 14.4844V15.4219C12.4922 15.4864 12.5448 15.5391 12.6094 15.5391H13.5469C13.6114 15.5391 13.6641 15.4864 13.6641 15.4219V14.4844C13.6641 14.4198 13.6114 14.3672 13.5469 14.3672H12.6094ZM10.7344 15.7734H9.79688C9.60305 15.7734 9.44531 15.6157 9.44531 15.4219V14.4844C9.44531 14.2905 9.60305 14.1328 9.79688 14.1328H10.7344C10.9282 14.1328 11.0859 14.2905 11.0859 14.4844V15.4219C11.0859 15.6157 10.9282 15.7734 10.7344 15.7734ZM9.79688 14.3672C9.7323 14.3672 9.67969 14.4198 9.67969 14.4844V15.4219C9.67969 15.4864 9.7323 15.5391 9.79688 15.5391H10.7344C10.7989 15.5391 10.8516 15.4864 10.8516 15.4219V14.4844C10.8516 14.4198 10.7989 14.3672 10.7344 14.3672H9.79688ZM7.92188 15.7734H6.98438C6.79055 15.7734 6.63281 15.6157 6.63281 15.4219V14.4844C6.63281 14.2905 6.79055 14.1328 6.98438 14.1328H7.92188C8.1157 14.1328 8.27344 14.2905 8.27344 14.4844V15.4219C8.27344 15.6157 8.1157 15.7734 7.92188 15.7734ZM6.98438 14.3672C6.9198 14.3672 6.86719 14.4198 6.86719 14.4844V15.4219C6.86719 15.4864 6.9198 15.5391 6.98438 15.5391H7.92188C7.98645 15.5391 8.03906 15.4864 8.03906 15.4219V14.4844C8.03906 14.4198 7.98645 14.3672 7.92188 14.3672H6.98438ZM5.10938 15.7734H4.17188C3.97805 15.7734 3.82031 15.6157 3.82031 15.4219V14.4844C3.82031 14.2905 3.97805 14.1328 4.17188 14.1328H5.10938C5.3032 14.1328 5.46094 14.2905 5.46094 14.4844V15.4219C5.46094 15.6157 5.3032 15.7734 5.10938 15.7734ZM4.17188 14.3672C4.1073 14.3672 4.05469 14.4198 4.05469 14.4844V15.4219C4.05469 15.4864 4.1073 15.5391 4.17188 15.5391H5.10938C5.17395 15.5391 5.22656 15.4864 5.22656 15.4219V14.4844C5.22656 14.4198 5.17395 14.3672 5.10938 14.3672H4.17188Z" fill="white"/>
</svg>
