<svg width="20" height="20" viewBox="0 0 20 20" fill="none" xmlns="http://www.w3.org/2000/svg">
<path d="M4.55569 17.0263H14.2849V17.033C14.3215 17.0354 14.3755 17.0263 14.421 17.0263H14.4284C15.8369 17.0263 16.9922 15.8913 16.9922 14.482V2.24733C16.9917 2.20902 16.9837 2.17118 16.9685 2.13598C16.9534 2.10078 16.9315 2.06892 16.904 2.04221C16.8765 2.01551 16.8441 1.99449 16.8084 1.98036C16.7728 1.96623 16.7348 1.95927 16.6965 1.95988L5.04849 1.95311H5.04816C5.0105 1.95187 4.97297 1.95814 4.93777 1.97157C4.90257 1.98501 4.87039 2.00533 4.84314 2.03135C4.81589 2.05736 4.79409 2.08856 4.77904 2.1231C4.76399 2.15764 4.75598 2.19484 4.75548 2.23252L4.66918 14.1726H2.29157C2.21204 14.1751 2.13652 14.2081 2.08074 14.2648C2.02497 14.3216 1.99324 14.3976 1.99219 14.4772V14.4822C1.99219 15.8914 3.14715 17.0263 4.55569 17.0263ZM5.34209 2.52242L16.4068 2.53972V14.4817C16.4068 15.5682 15.5147 16.4409 14.4281 16.4409H14.4213C14.1627 16.441 13.9066 16.3902 13.6677 16.2913C13.4287 16.1924 13.2116 16.0474 13.0286 15.8646C12.8457 15.6818 12.7006 15.4648 12.6016 15.2258C12.5026 14.9869 12.4516 14.7309 12.4516 14.4723C12.4517 14.3936 12.421 14.318 12.366 14.2618C12.3114 14.2059 12.237 14.1739 12.1589 14.1726H5.25458L5.34209 2.52242ZM11.8826 14.758C11.9165 15.0849 12.0148 15.402 12.1717 15.6908C12.3286 15.9796 12.5411 16.2346 12.7969 16.4409H4.55602C4.08332 16.4402 3.62656 16.27 3.26867 15.9612C2.91078 15.6524 2.67549 15.2255 2.60554 14.758H11.8826Z" fill="#FFFBFB"/>
<path d="M9.68652 10.756L9.70397 10.4386C9.7071 10.3818 9.69361 10.3253 9.66515 10.2761C9.63669 10.2268 9.5945 10.1869 9.54373 10.1613L9.26125 10.0186L9.11857 9.73613C9.0929 9.68538 9.05301 9.64319 9.00376 9.61473C8.95452 9.58627 8.89805 9.57276 8.84125 9.57585L8.5238 9.59331L8.25893 9.41868C8.21111 9.38715 8.15508 9.37034 8.0978 9.37034C8.04052 9.37034 7.9845 9.38715 7.93668 9.41868L7.6718 9.59331L7.35439 9.57585C7.2976 9.57277 7.24113 9.58629 7.19189 9.61475C7.14265 9.64321 7.10275 9.68539 7.07707 9.73613L6.93439 10.0186L6.65191 10.1613C6.60114 10.1869 6.55894 10.2268 6.53047 10.2761C6.50201 10.3253 6.48851 10.3818 6.49163 10.4386L6.50912 10.756L6.33446 11.0209C6.30294 11.0688 6.28613 11.1248 6.28613 11.182C6.28613 11.2393 6.30294 11.2953 6.33446 11.3431L6.50912 11.608L6.49163 11.9255C6.48851 11.9823 6.50201 12.0388 6.53047 12.088C6.55894 12.1373 6.60114 12.1771 6.65191 12.2028L6.93439 12.3455L7.07707 12.628C7.10272 12.6787 7.14262 12.7209 7.19187 12.7494C7.24113 12.7779 7.29762 12.7914 7.35442 12.7882L7.67184 12.7707L7.93668 12.9454C7.9845 12.9769 8.04052 12.9937 8.0978 12.9937C8.15508 12.9937 8.21111 12.9769 8.25893 12.9454L8.5238 12.7707L8.84122 12.7882C8.89804 12.7914 8.95456 12.778 9.00383 12.7495C9.0531 12.721 9.09298 12.6788 9.11857 12.628L9.26125 12.3455L9.54373 12.2028C9.5945 12.1771 9.6367 12.1372 9.66516 12.088C9.69362 12.0387 9.70711 11.9822 9.70397 11.9254L9.68652 11.608L9.86118 11.3431C9.89271 11.2953 9.90952 11.2393 9.90952 11.182C9.90952 11.1247 9.89271 11.0687 9.86118 11.0209L9.68652 10.756ZM9.14462 11.3665C9.11008 11.4189 9.0933 11.481 9.09673 11.5437L9.10899 11.7665L8.91142 11.8663C8.85564 11.8945 8.81034 11.9398 8.78217 11.9956L8.68247 12.1933L8.4596 12.181C8.39692 12.1775 8.3348 12.1943 8.28241 12.2289L8.09791 12.3505L7.91349 12.2289C7.86571 12.1974 7.80974 12.1806 7.75251 12.1806C7.74713 12.1806 7.74179 12.1806 7.73641 12.181L7.51353 12.1933L7.41373 11.9957C7.38556 11.9399 7.34026 11.8946 7.28447 11.8664L7.08691 11.7666L7.09917 11.5438C7.10262 11.4811 7.08583 11.419 7.05128 11.3666L6.92963 11.1821L7.05128 10.9976C7.08583 10.9452 7.10262 10.8831 7.09917 10.8205L7.08691 10.5976L7.28447 10.4978C7.34026 10.4696 7.38556 10.4243 7.41373 10.3685L7.51353 10.171L7.73641 10.1832C7.7991 10.1867 7.86123 10.1698 7.91363 10.1353L8.09806 10.0137L8.28256 10.1353C8.33493 10.1699 8.39707 10.1867 8.45974 10.1832L8.68262 10.171L8.78242 10.3685C8.81059 10.4243 8.85589 10.4696 8.91168 10.4978L9.10924 10.5976L9.09699 10.8205C9.09354 10.8831 9.11033 10.9452 9.14488 10.9976L9.26649 11.1821L9.14462 11.3665Z" fill="#FFFBFB"/>
<path d="M6.56352 5.22749C6.56571 5.22749 6.56794 5.22749 6.57021 5.22749L9.82631 5.15432C9.86475 5.15345 9.90263 5.14503 9.93781 5.12952C9.97299 5.11401 10.0048 5.09173 10.0313 5.06394C10.0579 5.03615 10.0787 5.0034 10.0926 4.96756C10.1066 4.93172 10.1133 4.89349 10.1124 4.85505C10.1115 4.81661 10.1031 4.77873 10.0876 4.74355C10.0721 4.70837 10.0498 4.67659 10.022 4.65002C9.99424 4.62345 9.96149 4.60262 9.92564 4.58871C9.8898 4.5748 9.85157 4.56809 9.81314 4.56895L6.55704 4.64212C6.47942 4.64298 6.40531 4.67464 6.35103 4.73014C6.29675 4.78563 6.26674 4.86042 6.2676 4.93804C6.26845 5.01567 6.30011 5.08977 6.35561 5.14405C6.41111 5.19833 6.48589 5.22835 6.56352 5.22749ZM6.56352 6.34334H14.9416C15.0192 6.34334 15.0936 6.31251 15.1485 6.25762C15.2034 6.20273 15.2342 6.12828 15.2342 6.05066C15.2342 5.97304 15.2034 5.89859 15.1485 5.8437C15.0936 5.78881 15.0192 5.75798 14.9416 5.75798H6.56352C6.48589 5.75798 6.41145 5.78881 6.35656 5.8437C6.30167 5.89859 6.27083 5.97304 6.27083 6.05066C6.27083 6.12828 6.30167 6.20273 6.35656 6.25762C6.41145 6.31251 6.48589 6.34334 6.56352 6.34334ZM6.56352 7.51407H14.9416C15.0192 7.51407 15.0936 7.48324 15.1485 7.42835C15.2034 7.37346 15.2342 7.29902 15.2342 7.22139C15.2342 7.14377 15.2034 7.06932 15.1485 7.01443C15.0936 6.95954 15.0192 6.92871 14.9416 6.92871H6.56352C6.48589 6.92871 6.41145 6.95954 6.35656 7.01443C6.30167 7.06932 6.27083 7.14377 6.27083 7.22139C6.27083 7.29902 6.30167 7.37346 6.35656 7.42835C6.41145 7.48324 6.48589 7.51407 6.56352 7.51407ZM6.56352 8.68481H14.9416C15.0192 8.68481 15.0936 8.65397 15.1485 8.59908C15.2034 8.54419 15.2342 8.46975 15.2342 8.39212C15.2342 8.3145 15.2034 8.24005 15.1485 8.18516C15.0936 8.13028 15.0192 8.09944 14.9416 8.09944H6.56352C6.48589 8.09944 6.41145 8.13028 6.35656 8.18516C6.30167 8.24005 6.27083 8.3145 6.27083 8.39212C6.27083 8.46975 6.30167 8.54419 6.35656 8.59908C6.41145 8.65397 6.48589 8.68481 6.56352 8.68481ZM14.8318 12.4531C14.8318 12.3755 14.801 12.301 14.7461 12.2461C14.6912 12.1913 14.6168 12.1604 14.5391 12.1604H10.6977C10.62 12.1604 10.5456 12.1913 10.4907 12.2461C10.4358 12.301 10.405 12.3755 10.405 12.4531C10.405 12.5307 10.4358 12.6052 10.4907 12.6601C10.5456 12.7149 10.62 12.7458 10.6977 12.7458H14.5391C14.6168 12.7458 14.6912 12.7149 14.7461 12.6601C14.801 12.6052 14.8318 12.5307 14.8318 12.4531ZM13.0676 11.2176L12.6515 10.9378L12.2491 10.6722C12.1906 10.6336 12.1202 10.6173 12.0507 10.6262C11.9812 10.6351 11.9172 10.6686 11.8704 10.7207C11.6987 10.9115 11.4908 11.1285 11.35 11.2618C11.3284 11.2262 11.3069 11.1877 11.2887 11.1515C11.254 11.082 11.1931 11.0292 11.1195 11.0047C11.0458 10.9801 10.9655 10.9858 10.896 11.0206C10.8266 11.0553 10.7738 11.1162 10.7492 11.1898C10.7247 11.2635 10.7304 11.3438 10.7651 11.4133C11.029 11.9409 11.2401 11.9409 11.3196 11.9409C11.4281 11.9409 11.5399 11.9409 12.1355 11.2986L12.327 11.425L12.8026 11.7448C12.843 11.7719 12.8896 11.7886 12.938 11.7932L13.7063 11.8664C13.7836 11.8738 13.8606 11.8501 13.9205 11.8007C13.9803 11.7513 14.0181 11.6801 14.0254 11.6028C14.0328 11.5255 14.0092 11.4485 13.9597 11.3887C13.9103 11.3288 13.8391 11.291 13.7618 11.2837L13.0676 11.2176Z" fill="#FFFBFB"/>
</svg>
