<svg width="20" height="20" viewBox="0 0 20 20" fill="none" xmlns="http://www.w3.org/2000/svg">
<path d="M8.03071 3C5.2569 3 3 5.2569 3 8.03071C3 10.8045 5.2569 13.0614 8.03071 13.0614C9.30474 13.0614 10.4662 12.5816 11.3535 11.7981L17.5554 18L18 17.5554L11.7981 11.3535C12.5816 10.4662 13.0614 9.30474 13.0614 8.03071C13.0614 5.2569 10.8045 3 8.03071 3ZM8.03071 12.4326C5.60339 12.4326 3.62884 10.458 3.62884 8.03071C3.62884 5.60339 5.60339 3.62884 8.03071 3.62884C10.458 3.62884 12.4326 5.60339 12.4326 8.03071C12.4326 10.458 10.458 12.4326 8.03071 12.4326Z" fill="white"/>
</svg>
