<svg width="20" height="20" viewBox="0 0 20 20" fill="none" xmlns="http://www.w3.org/2000/svg">
<path fill-rule="evenodd" clip-rule="evenodd" d="M17.3785 9.91417L10.0241 2.53571L2.62252 9.91317C2.45954 10.0756 2.4591 10.3395 2.62156 10.5025C2.78401 10.6654 3.04783 10.6659 3.21081 10.5034L4.16667 9.55067V17.0833C4.16667 17.3134 4.35321 17.4999 4.58333 17.4999H8.33333C8.56346 17.4999 8.75 17.3134 8.75 17.0833V13.4413C8.75 13.2112 8.93654 13.0246 9.16667 13.0246H10.8333C11.0635 13.0246 11.25 13.2112 11.25 13.4413V17.0833C11.25 17.3134 11.4365 17.4999 11.6667 17.4999H15.4167C15.6468 17.4999 15.8333 17.3134 15.8333 17.0833V9.54442L16.7882 10.5025C16.9507 10.6654 17.2145 10.6659 17.3775 10.5034C17.5405 10.341 17.5409 10.0771 17.3785 9.91417ZM15 8.70833L10.0222 3.71422L5 8.72004V16.6666H7.91667V13.4413C7.91667 12.7509 8.47629 12.1913 9.16667 12.1913H10.8333C11.5237 12.1913 12.0833 12.7509 12.0833 13.4413V16.6666H15V8.70833Z" fill="white"/>
</svg>
