<svg width="24" height="24" viewBox="0 0 24 24" fill="none" xmlns="http://www.w3.org/2000/svg">
<path fill-rule="evenodd" clip-rule="evenodd" d="M4.021 3.356C4.05196 3.25305 4.11528 3.16282 4.20156 3.0987C4.28784 3.03457 4.3925 2.99996 4.5 3H19.5C19.6075 2.99996 19.7122 3.03457 19.7984 3.0987C19.8847 3.16282 19.948 3.25305 19.979 3.356L21.479 8.356C21.493 8.40272 21.5001 8.45123 21.5 8.5C21.5003 9.26533 21.2497 10.0097 20.7866 10.619C20.3235 11.2283 19.6735 11.6691 18.936 11.8737C18.1985 12.0784 17.4143 12.0357 16.7034 11.7522C15.9926 11.4687 15.3942 10.96 15 10.304C14.6889 10.8216 14.2491 11.2499 13.7234 11.5471C13.1976 11.8443 12.6039 12.0003 12 12C11.3961 12.0003 10.8024 11.8443 10.2766 11.5471C9.75093 11.2499 9.31111 10.8216 9 10.304C8.60579 10.96 8.00743 11.4687 7.29655 11.7522C6.58567 12.0357 5.80145 12.0784 5.064 11.8737C4.32654 11.6691 3.6765 11.2283 3.21341 10.619C2.75033 10.0097 2.49973 9.26533 2.5 8.5C2.49994 8.45123 2.50702 8.40272 2.521 8.356L4.021 3.356ZM9.5 8.5C9.5 9.16304 9.76339 9.79893 10.2322 10.2678C10.7011 10.7366 11.337 11 12 11C12.663 11 13.2989 10.7366 13.7678 10.2678C14.2366 9.79893 14.5 9.16304 14.5 8.5C14.5 8.36739 14.5527 8.24021 14.6464 8.14645C14.7402 8.05268 14.8674 8 15 8C15.1326 8 15.2598 8.05268 15.3536 8.14645C15.4473 8.24021 15.5 8.36739 15.5 8.5C15.5002 9.15686 15.7589 9.78725 16.2201 10.2549C16.6814 10.7225 17.3082 10.9899 17.965 10.9991C18.6218 11.0083 19.2558 10.7586 19.73 10.304C20.2042 9.8495 20.4804 9.22659 20.499 8.57L19.128 4H4.872L3.501 8.57C3.51958 9.22659 3.79582 9.8495 4.27 10.304C4.74419 10.7586 5.37821 11.0083 6.035 10.9991C6.6918 10.9899 7.31858 10.7225 7.77985 10.2549C8.24112 9.78725 8.49982 9.15686 8.5 8.5C8.5 8.36739 8.55268 8.24021 8.64645 8.14645C8.74021 8.05268 8.86739 8 9 8C9.13261 8 9.25979 8.05268 9.35355 8.14645C9.44732 8.24021 9.5 8.36739 9.5 8.5Z" fill="white"/>
<path fill-rule="evenodd" clip-rule="evenodd" d="M4.5 20V11H3.5V20.5C3.5 20.6326 3.55268 20.7598 3.64645 20.8536C3.74021 20.9473 3.86739 21 4 21H20C20.1326 21 20.2598 20.9473 20.3536 20.8536C20.4473 20.7598 20.5 20.6326 20.5 20.5V11H19.5V20H4.5Z" fill="white"/>
</svg>
