<svg width="20" height="20" viewBox="0 0 20 20" fill="none" xmlns="http://www.w3.org/2000/svg">
<path d="M5.5005 16.7668L9.829 17.9198C10.444 18.0839 11.0986 18.0067 11.6585 17.7038L17.998 14.2828C18.2895 14.1247 18.5173 13.8706 18.6426 13.5636C18.768 13.2566 18.7831 12.9157 18.6855 12.5988C18.5715 12.23 18.32 11.9293 17.9778 11.7513C17.6355 11.5733 17.2445 11.5413 16.877 11.66L12.7965 12.98C12.6337 12.8212 12.437 12.7014 12.2212 12.6295L8.7155 11.4608C8.21525 11.294 7.72225 11.2813 7.2455 11.2688L5.5005 11.2558V10.5038H1.25V17.5038H5.5005V16.7668ZM7.03975 12.2633L7.21925 12.2683C7.65975 12.2798 8.04 12.2898 8.39925 12.4095L11.905 13.5783C12.0295 13.6193 12.1331 13.7071 12.1942 13.823C12.2553 13.939 12.269 14.0741 12.2325 14.2C12.1964 14.3276 12.1117 14.4358 11.9966 14.5015C11.8815 14.5672 11.7452 14.5851 11.617 14.5513L7.618 13.515L7.36725 14.483L11.3663 15.519C11.492 15.5517 11.6213 15.5682 11.7513 15.5683C12.0778 15.5682 12.3953 15.4615 12.6556 15.2644C12.9159 15.0672 13.1047 14.7905 13.1932 14.4763C13.2502 14.2788 13.2648 14.0788 13.243 13.8865L17.185 12.6113C17.2394 12.5935 17.2968 12.5868 17.3538 12.5915C17.4108 12.5962 17.4663 12.6123 17.517 12.6388C17.6203 12.6925 17.696 12.7833 17.7305 12.8943C17.7599 12.9899 17.7553 13.0927 17.7175 13.1853C17.6797 13.2779 17.6109 13.3546 17.523 13.4023L11.1835 16.8238C10.8477 17.0057 10.455 17.0522 10.086 16.9535L5.5005 15.732V12.2548L7.03975 12.2633ZM4.5005 16.5038H2.25V11.5038H4.5005V16.5038ZM6.504 9.50375L17.504 9.50325V2.0145L6.504 1.99525V9.50375ZM7.504 2.997L16.504 3.01275V8.50325L7.504 8.50375V2.997Z" fill="white"/>
<path d="M12.0038 4.57825C12.2251 4.57825 12.4053 4.72925 12.4053 4.91475H13.4053C13.4053 4.346 13.0301 3.86025 12.5038 3.66775V3.409H11.5038V3.66775C10.9773 3.86025 10.6021 4.346 10.6021 4.91475C10.6021 5.65175 11.2308 6.2515 12.0038 6.2515C12.2251 6.2515 12.4053 6.4025 12.4053 6.588C12.4053 6.77375 12.2253 6.92475 12.0038 6.92475C11.7823 6.92475 11.6021 6.77375 11.6021 6.588H10.6021C10.6021 7.157 10.9773 7.64275 11.5038 7.83525V8.094H12.5038V7.83525C13.0301 7.64275 13.4053 7.157 13.4053 6.588C13.4053 5.851 12.7766 5.2515 12.0038 5.2515C11.7823 5.2515 11.6021 5.1005 11.6021 4.91475C11.6021 4.72925 11.7821 4.57825 12.0038 4.57825ZM14.4176 5.25325H15.4996V6.25325H14.4176V5.25325ZM8.50781 5.25325H9.58981V6.25325H8.50781V5.25325Z" fill="white"/>
</svg>
