<svg width="53" height="189" viewBox="0 0 53 189" fill="none" xmlns="http://www.w3.org/2000/svg">
<path d="M29 3C29 1.61929 27.8807 0.5 26.5 0.5C25.1193 0.5 24 1.61929 24 3L29 3ZM24 3L24 163L29 163L29 3L24 3Z" fill="#00B3B5"/>
<g filter="url(#filter0_d_1654_693)">
<circle cx="26.5" cy="162.5" r="10.5" fill="#00B3B5"/>
</g>
<path d="M24 2.5C24 1.11929 25.1193 0 26.5 0V0C27.8807 0 29 1.11929 29 2.5V64.5C29 65.8807 27.8807 67 26.5 67V67C25.1193 67 24 65.8807 24 64.5V2.5Z" fill="url(#paint0_linear_1654_693)"/>
<defs>
<filter id="filter0_d_1654_693" x="0" y="136" width="53" height="53" filterUnits="userSpaceOnUse" color-interpolation-filters="sRGB">
<feFlood flood-opacity="0" result="BackgroundImageFix"/>
<feColorMatrix in="SourceAlpha" type="matrix" values="0 0 0 0 0 0 0 0 0 0 0 0 0 0 0 0 0 0 127 0" result="hardAlpha"/>
<feOffset/>
<feGaussianBlur stdDeviation="8"/>
<feComposite in2="hardAlpha" operator="out"/>
<feColorMatrix type="matrix" values="0 0 0 0 1 0 0 0 0 0.631373 0 0 0 0 0.262745 0 0 0 1 0"/>
<feBlend mode="normal" in2="BackgroundImageFix" result="effect1_dropShadow_1654_693"/>
<feBlend mode="normal" in="SourceGraphic" in2="effect1_dropShadow_1654_693" result="shape"/>
</filter>
<linearGradient id="paint0_linear_1654_693" x1="26.5" y1="0" x2="26.5" y2="67" gradientUnits="userSpaceOnUse">
<stop stop-color="white"/>
<stop offset="1" stop-color="#00B3B5"/>
</linearGradient>
</defs>
</svg>
